{
.appVersion = "1352";
classes = (
{
code = "Kha.te Gha.te Cha.te Jha.te Ddha.te Tha.te Dha.te Pha.te Bha.te PhaHalf2.te KhamatraI.te GhamatraI.te ChamatraI.te JhamatraI.te DdhamatraI.te ThamatraI.te DhamatraI.te PhamatraI.te BhamatraI.te KhamatraE.te GhamatraE.te ChamatraE.te JhamatraE.te DdhamatraE.te ThamatraE.te DhamatraE.te PhamatraE.te BhamatraE.te KhamatraEe.te GhamatraEe.te ChamatraEe.te JhamatraEe.te DdhamatraEe.te ThamatraEe.te DhamatraEe.te PhamatraEe.te BhamatraEe.te KhamatraO.te GhamatraO.te ChamatraO.te JhamatraO.te DdhamatraO.te ThamatraO.te DhamatraO.te PhamatraO.te BhamatraO.te KhamatraOo.te GhamatraOo.te ChamatraOo.te JhamatraOo.te DdhamatraOo.te ThamatraOo.te DhamatraOo.te PhamatraOo.te BhamatraOo.te KhamatraAu.te GhamatraAu.te ChamatraAu.te JhamatraAu.te DdhamatraAu.te ThamatraAu.te DhamatraAu.te PhamatraAu.te BhamatraAu.te KhamatraIi.te GhamatraIi.te ChamatraIi.te JhamatraIi.te DdhamatraIi.te ThamatraIi.te DhamatraIi.te PhamatraIi.te BhamatraIi.te KhamatraAa.te GhamatraAa.te ChamatraAa.te JhamatraAa.te DdhamatraAa.te ThamatraAa.te DhamatraAa.te PhamatraAa.te BhamatraAa.te KhamatraU.te GhamatraU.te ChamatraU.te JhamatraU.te DdhamatraU.te ThamatraU.te DhamatraU.te PhamatraU.te BhamatraU.te KhamatraUu.te GhamatraUu.te ChamatraUu.te JhamatraUu.te DdhamatraUu.te ThamatraUu.te DhamatraUu.te PhamatraUu.te BhamatraUu.te KhaHalant.te GhaHalant.te ChaHalant.te JhaHalant.te DdhaHalant.te ThaHalant.te DhaHalant.te PhaHalant.te BhaHalant.te";
name = CombuChars;
},
{
code = "Khasmall1.te Gasmall1.te Ghasmall1.te Ngasmall1.te Jasmall1.te Jhasmall1.te Nyasmall1.te Ttasmall1.te Tthasmall1.te Ddasmall1.te Ddhasmall1.te Nnasmall1.te Tasmall1.te Thasmall1.te Dasmall1.te Dhasmall1.te Rrasmall1.te Lasmall1.te Ssasmall1.te Hasmall1.te Jhasmall3.te TtRasmall1.te TRasmall1.te GRasmall1.te KaSsasmall1.te";
name = smallbelow1_withoutRa;
},
{

glyphs = (
{
glyphname = .notdef;
layers = (
{
layerId = UUID0;
paths = (
{
closed = 1;
nodes = (
"486 0 LINE SMOOTH",
"524 0 OFFCURVE",
"546 23 OFFCURVE",
"546 60 CURVE SMOOTH",
"546 589 LINE SMOOTH",
"546 626 OFFCURVE",
"524 649 OFFCURVE",
"486 649 CURVE SMOOTH",
"158 649 LINE SMOOTH",
"121 649 OFFCURVE",
"99 626 OFFCURVE",
"99 589 CURVE SMOOTH",
"99 60 LINE",
"99 23 OFFCURVE",
"122 0 OFFCURVE",
"159 0 CURVE SMOOTH"
);
},
{
closed = 1;
nodes = (
"180 581 LINE",
"466 581 LINE",
"466 68 LINE",
"180 68 LINE"
);
}
);
width = 645;
},
{
layerId = UUID1;
paths = (
{
closed = 1;
nodes = (
"525 0 LINE SMOOTH",
"574 0 OFFCURVE",
"604 31 OFFCURVE",
"604 79 CURVE SMOOTH",
"604 570 LINE SMOOTH",
"604 618 OFFCURVE",
"574 649 OFFCURVE",
"525 649 CURVE SMOOTH",
"159 649 LINE SMOOTH",
"110 649 OFFCURVE",
"80 618 OFFCURVE",
"80 570 CURVE SMOOTH",
"80 79 LINE",
"80 31 OFFCURVE",
"110 0 OFFCURVE",
"159 0 CURVE SMOOTH"
);
},
{
closed = 1;
nodes = (
"229 517 LINE",
"455 517 LINE",
"455 132 LINE",
"229 132 LINE"
);
}
);
width = 684;
}
);
},
{
glyphname = exclam;
layers = (
{
layerId = UUID0;
paths = (
{
closed = 1;
nodes = (
"164 611 OFFCURVE",
"149 625 OFFCURVE",
"124 625 CURVE SMOOTH",
"108 625 OFFCURVE",
"92 620 OFFCURVE",
"79 612 CURVE",
"79 500 OFFCURVE",
"82 279 OFFCURVE",
"88 202 CURVE SMOOTH",
"89 185 OFFCURVE",
"102 177 OFFCURVE",
"121 177 CURVE SMOOTH",
"134 177 OFFCURVE",
"146 181 OFFCURVE",
"154 187 CURVE",
"160 305 OFFCURVE",
"164 501 OFFCURVE",
"164 582 CURVE"
);
},
{
closed = 1;
nodes = (
"66 13 OFFCURVE",
"87 -11 OFFCURVE",
"122 -11 CURVE SMOOTH",
"157 -11 OFFCURVE",
"178 13 OFFCURVE",
"178 45 CURVE SMOOTH",
"178 77 OFFCURVE",
"157 101 OFFCURVE",
"122 101 CURVE SMOOTH",
"87 101 OFFCURVE",
"66 77 OFFCURVE",
"66 45 CURVE"
);
}
);
width = 250;
},
{
layerId = UUID1;
paths = (
{
closed = 1;
nodes = (
"237 610 OFFCURVE",
"205 635 OFFCURVE",
"151 635 CURVE SMOOTH",
"118 635 OFFCURVE",
"82 626 OFFCURVE",
"55 611 CURVE",
"55 510 OFFCURVE",
"64 322 OFFCURVE",
"76 260 CURVE SMOOTH",
"83 226 OFFCURVE",
"111 216 OFFCURVE",
"149 216 CURVE SMOOTH",
"167 216 OFFCURVE",
"201 222 OFFCURVE",
"212 231 CURVE",
"231 329 OFFCURVE",
"237 497 OFFCURVE",
"237 558 CURVE"
);
},
{
closed = 1;
nodes = (
"53 21 OFFCURVE",
"90 -18 OFFCURVE",
"149 -18 CURVE SMOOTH",
"208 -18 OFFCURVE",
"245 21 OFFCURVE",
"245 76 CURVE SMOOTH",
"245 131 OFFCURVE",
"208 170 OFFCURVE",
"149 170 CURVE SMOOTH",
"90 170 OFFCURVE",
"53 131 OFFCURVE",
"53 76 CURVE"
);
}
);
width = 298;
}
);
unicode = 0021;
},
{
glyphname = quotedbl;
layers = (
{
layerId = UUID0;
paths = (
{
closed = 1;
nodes = (
"103 465 OFFCURVE",
"107 552 OFFCURVE",
"107 586 CURVE SMOOTH",
"107 613 OFFCURVE",
"94 625 OFFCURVE",
"70 625 CURVE SMOOTH",
"55 625 OFFCURVE",
"42 621 OFFCURVE",
"31 615 CURVE",
"37 441 LINE SMOOTH",
"38 421 OFFCURVE",
"50 412 OFFCURVE",
"70 412 CURVE SMOOTH",
"82 412 OFFCURVE",
"92 414 OFFCURVE",
"101 418 CURVE"
);
},
{
closed = 1;
nodes = (
"236 465 OFFCURVE",
"239 552 OFFCURVE",
"239 585 CURVE SMOOTH",
"239 613 OFFCURVE",
"227 625 OFFCURVE",
"203 625 CURVE SMOOTH",
"187 625 OFFCURVE",
"175 621 OFFCURVE",
"163 615 CURVE",
"170 441 LINE SMOOTH",
"171 421 OFFCURVE",
"181 412 OFFCURVE",
"202 412 CURVE SMOOTH",
"213 412 OFFCURVE",
"224 414 OFFCURVE",
"234 418 CURVE"
);
}
);
width = 270;
},
{
layerId = UUID1;
paths = (
{
closed = 1;
nodes = (
"169 431 OFFCURVE",
"181 538 OFFCURVE",
"181 575 CURVE SMOOTH",
"181 618 OFFCURVE",
"155 635 OFFCURVE",
"105 635 CURVE SMOOTH",
"71 635 OFFCURVE",
"44 626 OFFCURVE",
"25 611 CURVE",
"38 412 LINE SMOOTH",
"40 379 OFFCURVE",
"67 368 OFFCURVE",
"100 368 CURVE SMOOTH",
"125 368 OFFCURVE",
"143 370 OFFCURVE",
"158 378 CURVE"
);
},
{
closed = 1;
nodes = (
"370 431 OFFCURVE",
"382 538 OFFCURVE",
"382 575 CURVE SMOOTH",
"382 618 OFFCURVE",
"356 635 OFFCURVE",
"306 635 CURVE SMOOTH",
"272 635 OFFCURVE",
"245 626 OFFCURVE",
"226 611 CURVE",
"239 412 LINE SMOOTH",
"241 379 OFFCURVE",
"268 368 OFFCURVE",
"301 368 CURVE SMOOTH",
"326 368 OFFCURVE",
"344 370 OFFCURVE",
"359 378 CURVE"
);
}
);
width = 410;
}
);
leftKerningGroup = quotesingle;
rightKerningGroup = quotesingle;
unicode = 0022;
},
{
glyphname = numbersign;
layers = (
{
layerId = UUID0;
paths = (
{
closed = 1;
nodes = (
"588 162 OFFCURVE",
"600 173 OFFCURVE",
"600 194 CURVE SMOOTH",
"600 206 OFFCURVE",
"597 216 OFFCURVE",
"594 224 CURVE",
"76 224 LINE SMOOTH",
"55 224 OFFCURVE",
"43 213 OFFCURVE",
"43 191 CURVE SMOOTH",
"43 180 OFFCURVE",
"46 170 OFFCURVE",
"49 162 CURVE",
"566 162 LINE"
);
},
{
closed = 1;
nodes = (
"618 396 OFFCURVE",
"630 407 OFFCURVE",
"630 428 CURVE SMOOTH",
"630 440 OFFCURVE",
"627 450 OFFCURVE",
"624 458 CURVE",
"106 458 LINE SMOOTH",
"85 458 OFFCURVE",
"72 447 OFFCURVE",
"72 425 CURVE SMOOTH",
"72 413 OFFCURVE",
"76 404 OFFCURVE",
"79 396 CURVE",
"596 396 LINE"
);
},
{
closed = 1;
nodes = (
"310 547 OFFCURVE",
"316 568 OFFCURVE",
"316 581 CURVE SMOOTH",
"316 603 OFFCURVE",
"302 613 OFFCURVE",
"281 613 CURVE SMOOTH",
"273 613 OFFCURVE",
"263 612 OFFCURVE",
"256 611 CURVE",
"144 76 LINE SMOOTH",
"140 63 OFFCURVE",
"135 40 OFFCURVE",
"135 27 CURVE SMOOTH",
"135 5 OFFCURVE",
"149 -5 OFFCURVE",
"170 -5 CURVE SMOOTH",
"179 -5 OFFCURVE",
"188 -4 OFFCURVE",
"195 -3 CURVE",
"307 532 LINE"
);
},
{
closed = 1;
nodes = (
"526 547 OFFCURVE",
"532 568 OFFCURVE",
"532 581 CURVE SMOOTH",
"532 603 OFFCURVE",
"518 613 OFFCURVE",
"497 613 CURVE SMOOTH",
"489 613 OFFCURVE",
"479 612 OFFCURVE",
"472 611 CURVE",
"359 76 LINE SMOOTH",
"356 63 OFFCURVE",
"351 40 OFFCURVE",
"351 27 CURVE SMOOTH",
"351 5 OFFCURVE",
"365 -5 OFFCURVE",
"386 -5 CURVE SMOOTH",
"395 -5 OFFCURVE",
"404 -4 OFFCURVE",
"411 -3 CURVE",
"523 532 LINE"
);
}
);
width = 667;
},
{
layerId = UUID1;
paths = (
{
closed = 1;
nodes = (
"634 129 OFFCURVE",
"657 148 OFFCURVE",
"657 194 CURVE SMOOTH",
"657 219 OFFCURVE",
"647 243 OFFCURVE",
"639 256 CURVE",
"87 256 LINE SMOOTH",
"53 256 OFFCURVE",
"30 237 OFFCURVE",
"30 191 CURVE SMOOTH",
"30 166 OFFCURVE",
"39 142 OFFCURVE",
"48 129 CURVE",
"600 129 LINE"
);
},
{
closed = 1;
nodes = (
"661 357 OFFCURVE",
"684 376 OFFCURVE",
"684 422 CURVE SMOOTH",
"684 447 OFFCURVE",
"674 471 OFFCURVE",
"666 484 CURVE",
"114 484 LINE SMOOTH",
"80 484 OFFCURVE",
"57 465 OFFCURVE",
"57 419 CURVE SMOOTH",
"57 394 OFFCURVE",
"66 370 OFFCURVE",
"75 357 CURVE",
"627 357 LINE"
);
},
{
closed = 1;
nodes = (
"350 479 OFFCURVE",
"361 517 OFFCURVE",
"361 550 CURVE SMOOTH",
"361 603 OFFCURVE",
"327 617 OFFCURVE",
"278 617 CURVE SMOOTH",
"265 617 OFFCURVE",
"248 617 OFFCURVE",
"229 615 CURVE",
"131 167 LINE SMOOTH",
"125 140 OFFCURVE",
"114 98 OFFCURVE",
"114 65 CURVE SMOOTH",
"114 12 OFFCURVE",
"146 -4 OFFCURVE",
"196 -4 CURVE SMOOTH",
"210 -4 OFFCURVE",
"226 -4 OFFCURVE",
"244 -1 CURVE",
"343 447 LINE"
);
},
{
closed = 1;
nodes = (
"590 479 OFFCURVE",
"601 517 OFFCURVE",
"601 550 CURVE SMOOTH",
"601 603 OFFCURVE",
"567 617 OFFCURVE",
"518 617 CURVE SMOOTH",
"505 617 OFFCURVE",
"488 617 OFFCURVE",
"469 615 CURVE",
"371 167 LINE SMOOTH",
"365 140 OFFCURVE",
"354 98 OFFCURVE",
"354 65 CURVE SMOOTH",
"354 12 OFFCURVE",
"386 -4 OFFCURVE",
"436 -4 CURVE SMOOTH",
"450 -4 OFFCURVE",
"466 -4 OFFCURVE",
"484 -1 CURVE",
"583 447 LINE"
);
}
);
width = 714;
}
);
unicode = 0023;
},
{
glyphname = dollar;
layers = (
{
components = (
{
name = S;
}
);
layerId = UUID0;
paths = (
{
closed = 1;
nodes = (
"221 -61 LINE SMOOTH",
"221 -82 OFFCURVE",
"236 -94 OFFCURVE",
"262 -94 CURVE SMOOTH",
"276 -94 OFFCURVE",
"288 -91 OFFCURVE",
"294 -89 CURVE",
"294 25 LINE",
"221 25 LINE"
);
},
{
closed = 1;
nodes = (
"294 669 LINE SMOOTH",
"294 690 OFFCURVE",
"280 702 OFFCURVE",
"254 702 CURVE SMOOTH",
"240 702 OFFCURVE",
"227 699 OFFCURVE",
"221 697 CURVE",
"221 568 LINE",
"294 568 LINE"
);
}
);
width = 522;
},
{
components = (
{
name = S;
transform = "{1, 0, 0, 1, 4, 0}";
}
);
layerId = UUID1;
paths = (
{
closed = 1;
nodes = (
"206 -23 LINE SMOOTH",
"206 -78 OFFCURVE",
"231 -94 OFFCURVE",
"289 -94 CURVE SMOOTH",
"317 -94 OFFCURVE",
"343 -90 OFFCURVE",
"356 -86 CURVE",
"356 69 LINE",
"206 69 LINE"
);
},
{
closed = 1;
nodes = (
"356 632 LINE SMOOTH",
"356 687 OFFCURVE",
"331 703 OFFCURVE",
"273 703 CURVE SMOOTH",
"245 703 OFFCURVE",
"219 699 OFFCURVE",
"206 695 CURVE",
"206 517 LINE",
"356 517 LINE"
);
}
);
width = 565;
}
);
unicode = 0024;
},
{
glyphname = percent;
layers = (
{
layerId = UUID0;
paths = (
{
closed = 1;
nodes = (
"335 561 OFFCURVE",
"272 616 OFFCURVE",
"194 616 CURVE SMOOTH",
"115 616 OFFCURVE",
"53 561 OFFCURVE",
"53 474 CURVE SMOOTH",
"53 387 OFFCURVE",
"115 332 OFFCURVE",
"194 332 CURVE SMOOTH",
"272 332 OFFCURVE",
"335 387 OFFCURVE",
"335 474 CURVE"
);
},
{
closed = 1;
nodes = (
"124 526 OFFCURVE",
"153 556 OFFCURVE",
"194 556 CURVE SMOOTH",
"235 556 OFFCURVE",
"264 526 OFFCURVE",
"264 474 CURVE SMOOTH",
"264 422 OFFCURVE",
"235 392 OFFCURVE",
"194 392 CURVE SMOOTH",
"153 392 OFFCURVE",
"124 422 OFFCURVE",
"124 474 CURVE"
);
},
{
closed = 1;
nodes = (
"176 50 OFFCURVE",
"171 39 OFFCURVE",
"171 28 CURVE SMOOTH",
"171 10 OFFCURVE",
"192 -4 OFFCURVE",
"221 -7 CURVE",
"588 542 LINE SMOOTH",
"598 557 OFFCURVE",
"604 569 OFFCURVE",
"604 582 CURVE SMOOTH",
"604 601 OFFCURVE",
"584 612 OFFCURVE",
"554 616 CURVE",
"186 65 LINE"
);
},
{
closed = 1;
nodes = (
"719 221 OFFCURVE",
"657 276 OFFCURVE",
"578 276 CURVE SMOOTH",
"500 276 OFFCURVE",
"437 221 OFFCURVE",
"437 135 CURVE SMOOTH",
"437 47 OFFCURVE",
"500 -8 OFFCURVE",
"578 -8 CURVE SMOOTH",
"657 -8 OFFCURVE",
"719 47 OFFCURVE",
"719 135 CURVE"
);
},
{
closed = 1;
nodes = (
"508 186 OFFCURVE",
"537 216 OFFCURVE",
"578 216 CURVE SMOOTH",
"619 216 OFFCURVE",
"648 186 OFFCURVE",
"648 135 CURVE SMOOTH",
"648 82 OFFCURVE",
"619 52 OFFCURVE",
"578 52 CURVE SMOOTH",
"537 52 OFFCURVE",
"508 82 OFFCURVE",
"508 135 CURVE"
);
}
);
width = 772;
},
{
layerId = UUID1;
paths = (
{
closed = 1;
nodes = (
"351 556 OFFCURVE",
"284 616 OFFCURVE",
"190 616 CURVE SMOOTH",
"95 616 OFFCURVE",
"29 556 OFFCURVE",
"29 458 CURVE SMOOTH",
"29 359 OFFCURVE",
"95 299 OFFCURVE",
"190 299 CURVE SMOOTH",
"284 299 OFFCURVE",
"351 359 OFFCURVE",
"351 458 CURVE"
);
},
{
closed = 1;
nodes = (
"150 497 OFFCURVE",
"167 515 OFFCURVE",
"190 515 CURVE SMOOTH",
"213 515 OFFCURVE",
"230 497 OFFCURVE",
"230 458 CURVE SMOOTH",
"230 418 OFFCURVE",
"213 399 OFFCURVE",
"190 399 CURVE SMOOTH",
"167 399 OFFCURVE",
"150 418 OFFCURVE",
"150 458 CURVE"
);
},
{
closed = 1;
nodes = (
"179 91 OFFCURVE",
"167 69 OFFCURVE",
"167 48 CURVE SMOOTH",
"167 17 OFFCURVE",
"205 -3 OFFCURVE",
"256 -7 CURVE",
"602 494 LINE SMOOTH",
"619 518 OFFCURVE",
"631 541 OFFCURVE",
"631 562 CURVE SMOOTH",
"631 593 OFFCURVE",
"587 610 OFFCURVE",
"542 617 CURVE",
"196 115 LINE"
);
},
{
closed = 1;
nodes = (
"770 249 OFFCURVE",
"703 309 OFFCURVE",
"609 309 CURVE SMOOTH",
"514 309 OFFCURVE",
"448 249 OFFCURVE",
"448 151 CURVE SMOOTH",
"448 52 OFFCURVE",
"514 -8 OFFCURVE",
"609 -8 CURVE SMOOTH",
"703 -8 OFFCURVE",
"770 52 OFFCURVE",
"770 151 CURVE"
);
},
{
closed = 1;
nodes = (
"569 190 OFFCURVE",
"586 208 OFFCURVE",
"609 208 CURVE SMOOTH",
"632 208 OFFCURVE",
"649 190 OFFCURVE",
"649 151 CURVE SMOOTH",
"649 111 OFFCURVE",
"632 92 OFFCURVE",
"609 92 CURVE SMOOTH",
"586 92 OFFCURVE",
"569 111 OFFCURVE",
"569 151 CURVE"
);
}
);
width = 799;
}
);
leftKerningGroup = percent;
rightKerningGroup = percent;
unicode = 0025;
},
{
glyphname = ampersand;
layers = (
{
layerId = UUID0;
paths = (
{
closed = 1;
nodes = (
"548 157 OFFCURVE",
"571 242 OFFCURVE",
"571 317 CURVE SMOOTH",
"571 346 OFFCURVE",
"557 362 OFFCURVE",
"531 362 CURVE SMOOTH",
"519 362 OFFCURVE",
"506 358 OFFCURVE",
"494 353 CURVE",
"494 267 OFFCURVE",
"479 200 OFFCURVE",
"455 156 CURVE",
"433 124 LINE",
"388 72 OFFCURVE",
"331 53 OFFCURVE",
"280 53 CURVE SMOOTH",
"187 53 OFFCURVE",
"131 106 OFFCURVE",
"131 186 CURVE SMOOTH",
"131 263 OFFCURVE",
"185 307 OFFCURVE",
"239 319 CURVE",
"204 378 LINE",
"117 355 OFFCURVE",
"50 289 OFFCURVE",
"50 187 CURVE SMOOTH",
"50 64 OFFCURVE",
"141 -15 OFFCURVE",
"279 -15 CURVE SMOOTH",
"371 -15 OFFCURVE",
"435 18 OFFCURVE",
"480 68 CURVE",
"509 102 LINE"
);
},
{
closed = 1;
nodes = (
"590 -14 OFFCURVE",
"605 2 OFFCURVE",
"609 29 CURVE",
"277 374 LINE",
"237 415 OFFCURVE",
"215 443 OFFCURVE",
"215 484 CURVE SMOOTH",
"215 526 OFFCURVE",
"246 553 OFFCURVE",
"297 553 CURVE SMOOTH",
"328 553 OFFCURVE",
"358 544 OFFCURVE",
"379 532 CURVE",
"390 539 OFFCURVE",
"400 552 OFFCURVE",
"400 568 CURVE SMOOTH",
"400 598 OFFCURVE",
"362 621 OFFCURVE",
"292 621 CURVE SMOOTH",
"191 621 OFFCURVE",
"133 567 OFFCURVE",
"133 485 CURVE SMOOTH",
"133 438 OFFCURVE",
"153 400 OFFCURVE",
"194 357 CURVE",
"219 329 LINE",
"525 9 LINE SMOOTH",
"538 -6 OFFCURVE",
"550 -14 OFFCURVE",
"565 -14 CURVE"
);
}
);
width = 637;
},
{
layerId = UUID1;
paths = (
{
closed = 1;
nodes = (
"597 179 OFFCURVE",
"613 245 OFFCURVE",
"613 300 CURVE SMOOTH",
"613 354 OFFCURVE",
"599 393 OFFCURVE",
"536 393 CURVE SMOOTH",
"514 393 OFFCURVE",
"492 389 OFFCURVE",
"467 378 CURVE",
"467 339 OFFCURVE",
"465 281 OFFCURVE",
"451 237 CURVE",
"399 158 LINE",
"359 119 OFFCURVE",
"310 114 OFFCURVE",
"289 114 CURVE SMOOTH",
"228 114 OFFCURVE",
"196 150 OFFCURVE",
"196 196 CURVE SMOOTH",
"196 231 OFFCURVE",
"221 260 OFFCURVE",
"255 271 CURVE",
"176 371 LINE",
"103 344 OFFCURVE",
"36 284 OFFCURVE",
"36 185 CURVE SMOOTH",
"36 71 OFFCURVE",
"123 -16 OFFCURVE",
"279 -16 CURVE SMOOTH",
"348 -16 OFFCURVE",
"433 4 OFFCURVE",
"489 60 CURVE",
"554 116 LINE"
);
},
{
closed = 1;
nodes = (
"610 -14 OFFCURVE",
"646 22 OFFCURVE",
"649 72 CURVE",
"329 381 LINE",
"298 410 OFFCURVE",
"284 426 OFFCURVE",
"284 446 CURVE SMOOTH",
"284 477 OFFCURVE",
"309 492 OFFCURVE",
"344 492 CURVE SMOOTH",
"365 492 OFFCURVE",
"385 487 OFFCURVE",
"400 481 CURVE",
"417 498 OFFCURVE",
"426 522 OFFCURVE",
"426 543 CURVE SMOOTH",
"426 589 OFFCURVE",
"395 623 OFFCURVE",
"311 623 CURVE SMOOTH",
"191 623 OFFCURVE",
"124 554 OFFCURVE",
"124 470 CURVE SMOOTH",
"124 439 OFFCURVE",
"129 404 OFFCURVE",
"180 348 CURVE",
"207 305 LINE",
"488 24 LINE SMOOTH",
"514 -2 OFFCURVE",
"538 -14 OFFCURVE",
"566 -14 CURVE"
);
}
);
width = 673;
}
);
unicode = 0026;
},
{
glyphname = quotesingle;
layers = (
{
layerId = UUID0;
paths = (
{
closed = 1;
nodes = (
"106 465 OFFCURVE",
"109 551 OFFCURVE",
"109 585 CURVE SMOOTH",
"109 613 OFFCURVE",
"96 625 OFFCURVE",
"71 625 CURVE SMOOTH",
"54 625 OFFCURVE",
"42 621 OFFCURVE",
"31 615 CURVE",
"37 441 LINE SMOOTH",
"38 422 OFFCURVE",
"50 412 OFFCURVE",
"70 412 CURVE SMOOTH",
"82 412 OFFCURVE",
"94 415 OFFCURVE",
"103 418 CURVE"
);
}
);
width = 139;
},
{
layerId = UUID1;
paths = (
{
closed = 1;
nodes = (
"179 435 OFFCURVE",
"191 534 OFFCURVE",
"191 571 CURVE SMOOTH",
"191 616 OFFCURVE",
"160 635 OFFCURVE",
"110 635 CURVE SMOOTH",
"74 635 OFFCURVE",
"44 622 OFFCURVE",
"25 607 CURVE",
"38 416 LINE SMOOTH",
"40 383 OFFCURVE",
"69 368 OFFCURVE",
"105 368 CURVE SMOOTH",
"131 368 OFFCURVE",
"154 374 OFFCURVE",
"168 382 CURVE"
);
}
);
width = 219;
}
);
leftKerningGroup = quotesingle;
rightKerningGroup = quotesingle;
unicode = 0027;
},
{
glyphname = parenleft;
layers = (
{
layerId = UUID0;
paths = (
{
closed = 1;
nodes = (
"223 -116 OFFCURVE",
"237 -103 OFFCURVE",
"244 -87 CURVE",
"164 22 OFFCURVE",
"131 131 OFFCURVE",
"131 274 CURVE SMOOTH",
"131 416 OFFCURVE",
"172 537 OFFCURVE",
"244 629 CURVE",
"237 645 OFFCURVE",
"223 657 OFFCURVE",
"204 657 CURVE SMOOTH",
"183 657 OFFCURVE",
"165 642 OFFCURVE",
"148 615 CURVE SMOOTH",
"99 541 OFFCURVE",
"55 422 OFFCURVE",
"55 274 CURVE SMOOTH",
"55 125 OFFCURVE",
"88 12 OFFCURVE",
"148 -73 CURVE SMOOTH",
"166 -100 OFFCURVE",
"183 -116 OFFCURVE",
"204 -116 CURVE"
);
}
);
width = 254;
},
{
layerId = UUID1;
paths = (
{
closed = 1;
nodes = (
"259 -136 OFFCURVE",
"288 -112 OFFCURVE",
"303 -89 CURVE",
"239 8 OFFCURVE",
"204 111 OFFCURVE",
"204 266 CURVE SMOOTH",
"204 421 OFFCURVE",
"239 524 OFFCURVE",
"303 621 CURVE",
"288 644 OFFCURVE",
"259 668 OFFCURVE",
"223 668 CURVE SMOOTH",
"169 668 OFFCURVE",
"133 630 OFFCURVE",
"108 583 CURVE SMOOTH",
"70 512 OFFCURVE",
"42 405 OFFCURVE",
"42 266 CURVE SMOOTH",
"42 127 OFFCURVE",
"70 20 OFFCURVE",
"108 -51 CURVE SMOOTH",
"133 -98 OFFCURVE",
"169 -136 OFFCURVE",
"223 -136 CURVE"
);
}
);
width = 305;
}
);
rightKerningGroup = parenleft;
unicode = 0028;
},
{
glyphname = asterisk;
layers = (
{
layerId = UUID0;
paths = (
{
closed = 1;
nodes = (
"71 573 LINE SMOOTH",
"63 576 OFFCURVE",
"57 579 OFFCURVE",
"50 579 CURVE SMOOTH",
"32 579 OFFCURVE",
"20 566 OFFCURVE",
"20 547 CURVE SMOOTH",
"20 541 OFFCURVE",
"21 533 OFFCURVE",
"23 526 CURVE",
"168 478 LINE",
"146 535 LINE"
);
},
{
closed = 1;
nodes = (
"113 504 LINE",
"61 446 LINE SMOOTH",
"54 439 OFFCURVE",
"49 429 OFFCURVE",
"49 419 CURVE SMOOTH",
"49 403 OFFCURVE",
"61 390 OFFCURVE",
"87 390 CURVE SMOOTH",
"91 390 OFFCURVE",
"95 390 OFFCURVE",
"100 391 CURVE",
"181 510 LINE"
);
},
{
closed = 1;
nodes = (
"187 416 LINE SMOOTH",
"196 404 OFFCURVE",
"208 390 OFFCURVE",
"223 390 CURVE SMOOTH",
"239 390 OFFCURVE",
"255 404 OFFCURVE",
"258 421 CURVE",
"162 536 LINE",
"135 490 LINE"
);
},
{
closed = 1;
nodes = (
"170 484 LINE",
"254 524 LINE SMOOTH",
"268 531 OFFCURVE",
"279 537 OFFCURVE",
"279 553 CURVE SMOOTH",
"279 569 OFFCURVE",
"266 583 OFFCURVE",
"254 588 CURVE",
"124 515 LINE"
);
},
{
closed = 1;
nodes = (
"176 540 OFFCURVE",
"182 611 OFFCURVE",
"182 623 CURVE SMOOTH",
"182 641 OFFCURVE",
"169 649 OFFCURVE",
"152 649 CURVE SMOOTH",
"139 649 OFFCURVE",
"127 644 OFFCURVE",
"121 640 CURVE",
"126 492 LINE",
"176 520 LINE"
);
}
);
width = 299;
},
{
layerId = UUID1;
paths = (
{
closed = 1;
nodes = (
"108 563 LINE SMOOTH",
"96 567 OFFCURVE",
"84 570 OFFCURVE",
"75 570 CURVE SMOOTH",
"40 570 OFFCURVE",
"20 550 OFFCURVE",
"20 517 CURVE SMOOTH",
"20 506 OFFCURVE",
"22 492 OFFCURVE",
"26 480 CURVE",
"188 435 LINE",
"153 548 LINE"
);
},
{
closed = 1;
nodes = (
"104 486 LINE",
"72 444 LINE SMOOTH",
"58 426 OFFCURVE",
"50 412 OFFCURVE",
"50 396 CURVE SMOOTH",
"50 366 OFFCURVE",
"73 347 OFFCURVE",
"117 347 CURVE SMOOTH",
"124 347 OFFCURVE",
"132 348 OFFCURVE",
"140 350 CURVE",
"239 496 LINE"
);
},
{
closed = 1;
nodes = (
"186 393 LINE SMOOTH",
"201 368 OFFCURVE",
"213 347 OFFCURVE",
"245 347 CURVE SMOOTH",
"276 347 OFFCURVE",
"298 368 OFFCURVE",
"307 397 CURVE",
"208 539 LINE",
"146 461 LINE"
);
},
{
closed = 1;
nodes = (
"217 446 LINE",
"279 471 LINE SMOOTH",
"308 483 OFFCURVE",
"326 490 OFFCURVE",
"326 522 CURVE SMOOTH",
"326 550 OFFCURVE",
"307 571 OFFCURVE",
"285 581 CURVE",
"140 520 LINE"
);
},
{
closed = 1;
nodes = (
"225 530 OFFCURVE",
"228 591 OFFCURVE",
"228 601 CURVE SMOOTH",
"228 633 OFFCURVE",
"207 649 OFFCURVE",
"177 649 CURVE SMOOTH",
"153 649 OFFCURVE",
"134 637 OFFCURVE",
"123 630 CURVE",
"123 464 LINE",
"224 513 LINE"
);
}
);
width = 351;
}
);
unicode = 002A;
},
{
glyphname = plus;
layers = (
{
layerId = UUID0;
paths = (
{
closed = 1;
nodes = (
"484 266 OFFCURVE",
"497 279 OFFCURVE",
"497 301 CURVE SMOOTH",
"497 313 OFFCURVE",
"493 324 OFFCURVE",
"490 332 CURVE",
"86 332 LINE SMOOTH",
"64 332 OFFCURVE",
"51 320 OFFCURVE",
"51 298 CURVE SMOOTH",
"51 285 OFFCURVE",
"54 275 OFFCURVE",
"58 266 CURVE",
"462 266 LINE"
);
},
{
closed = 1;
nodes = (
"312 517 OFFCURVE",
"301 528 OFFCURVE",
"276 528 CURVE SMOOTH",
"260 528 OFFCURVE",
"250 525 OFFCURVE",
"239 521 CURVE",
"239 106 LINE SMOOTH",
"239 77 OFFCURVE",
"251 66 OFFCURVE",
"278 66 CURVE SMOOTH",
"292 66 OFFCURVE",
"302 69 OFFCURVE",
"312 73 CURVE",
"312 488 LINE"
);
}
);
width = 548;
},
{
layerId = UUID1;
paths = (
{
closed = 1;
nodes = (
"490 222 OFFCURVE",
"515 240 OFFCURVE",
"515 289 CURVE SMOOTH",
"515 316 OFFCURVE",
"506 342 OFFCURVE",
"498 356 CURVE",
"91 356 LINE SMOOTH",
"55 356 OFFCURVE",
"30 335 OFFCURVE",
"30 286 CURVE SMOOTH",
"30 259 OFFCURVE",
"38 236 OFFCURVE",
"47 222 CURVE",
"454 222 LINE"
);
},
{
closed = 1;
nodes = (
"351 521 OFFCURVE",
"320 534 OFFCURVE",
"267 534 CURVE SMOOTH",
"242 534 OFFCURVE",
"210 528 OFFCURVE",
"197 525 CURVE",
"197 112 LINE SMOOTH",
"197 53 OFFCURVE",
"226 41 OFFCURVE",
"280 41 CURVE SMOOTH",
"305 41 OFFCURVE",
"338 46 OFFCURVE",
"351 49 CURVE",
"351 462 LINE"
);
}
);
width = 545;
}
);
leftKerningGroup = hyphen;
rightKerningGroup = hyphen;
unicode = 002B;
},
{
glyphname = comma;
layers = (
{
layerId = UUID0;
paths = (
{
closed = 1;
nodes = (
"86 -66 OFFCURVE",
"126 21 OFFCURVE",
"126 66 CURVE SMOOTH",
"126 93 OFFCURVE",
"112 103 OFFCURVE",
"88 103 CURVE SMOOTH",
"73 103 OFFCURVE",
"61 99 OFFCURVE",
"50 94 CURVE",
"40 39 OFFCURVE",
"11 -53 OFFCURVE",
"-7 -104 CURVE",
"1 -114 OFFCURVE",
"15 -121 OFFCURVE",
"29 -121 CURVE SMOOTH",
"46 -121 OFFCURVE",
"57 -112 OFFCURVE",
"68 -94 CURVE"
);
}
);
width = 145;
},
{
layerId = UUID1;
paths = (
{
closed = 1;
nodes = (
"183 -29 OFFCURVE",
"219 59 OFFCURVE",
"219 114 CURVE SMOOTH",
"219 162 OFFCURVE",
"182 178 OFFCURVE",
"141 178 CURVE SMOOTH",
"109 178 OFFCURVE",
"75 168 OFFCURVE",
"52 156 CURVE",
"39 86 OFFCURVE",
"19 -8 OFFCURVE",
"-10 -90 CURVE",
"11 -107 OFFCURVE",
"36 -115 OFFCURVE",
"65 -115 CURVE SMOOTH",
"102 -115 OFFCURVE",
"127 -102 OFFCURVE",
"149 -73 CURVE"
);
}
);
width = 243;
}
);
leftKerningGroup = period;
rightKerningGroup = period;
unicode = 002C;
},
{
glyphname = hyphen;
layers = (
{
layerId = UUID0;
paths = (
{
closed = 1;
nodes = (
"322 228 OFFCURVE",
"335 241 OFFCURVE",
"335 263 CURVE SMOOTH",
"335 275 OFFCURVE",
"331 286 OFFCURVE",
"328 294 CURVE",
"89 294 LINE SMOOTH",
"67 294 OFFCURVE",
"54 282 OFFCURVE",
"54 260 CURVE SMOOTH",
"54 247 OFFCURVE",
"57 237 OFFCURVE",
"61 228 CURVE",
"300 228 LINE"
);
}
);
width = 389;
},
{
layerId = UUID1;
paths = (
{
closed = 1;
nodes = (
"299 186 OFFCURVE",
"324 207 OFFCURVE",
"324 256 CURVE SMOOTH",
"324 283 OFFCURVE",
"313 309 OFFCURVE",
"305 323 CURVE",
"91 323 LINE SMOOTH",
"55 323 OFFCURVE",
"30 302 OFFCURVE",
"30 253 CURVE SMOOTH",
"30 226 OFFCURVE",
"40 200 OFFCURVE",
"49 186 CURVE",
"263 186 LINE"
);
}
);
width = 354;
}
);
leftKerningGroup = hyphen;
rightKerningGroup = hyphen;
unicode = 002D;
},
{
glyphname = period;
layers = (
{
layerId = UUID0;
paths = (
{
closed = 1;
nodes = (
"16 11 OFFCURVE",
"36 -13 OFFCURVE",
"71 -13 CURVE SMOOTH",
"106 -13 OFFCURVE",
"125 11 OFFCURVE",
"125 42 CURVE SMOOTH",
"125 74 OFFCURVE",
"106 98 OFFCURVE",
"71 98 CURVE SMOOTH",
"36 98 OFFCURVE",
"16 74 OFFCURVE",
"16 42 CURVE"
);
}
);
width = 141;
},
{
layerId = UUID1;
paths = (
{
closed = 1;
nodes = (
"22 26 OFFCURVE",
"60 -17 OFFCURVE",
"119 -17 CURVE SMOOTH",
"178 -17 OFFCURVE",
"216 26 OFFCURVE",
"216 81 CURVE SMOOTH",
"216 136 OFFCURVE",
"178 179 OFFCURVE",
"119 179 CURVE SMOOTH",
"60 179 OFFCURVE",
"22 136 OFFCURVE",
"22 81 CURVE"
);
}
);
width = 238;
}
);
leftKerningGroup = period;
rightKerningGroup = period;
unicode = 002E;
},
{
glyphname = slash;
layers = (
{
layerId = UUID0;
paths = (
{
closed = 1;
nodes = (
"278 637 OFFCURVE",
"283 656 OFFCURVE",
"283 671 CURVE SMOOTH",
"283 696 OFFCURVE",
"267 707 OFFCURVE",
"244 707 CURVE SMOOTH",
"235 707 OFFCURVE",
"227 706 OFFCURVE",
"218 705 CURVE",
"34 -21 LINE SMOOTH",
"31 -33 OFFCURVE",
"24 -56 OFFCURVE",
"24 -71 CURVE SMOOTH",
"24 -94 OFFCURVE",
"38 -107 OFFCURVE",
"63 -107 CURVE SMOOTH",
"73 -107 OFFCURVE",
"81 -106 OFFCURVE",
"89 -105 CURVE",
"274 621 LINE"
);
}
);
width = 305;
},
{
layerId = UUID1;
paths = (
{
closed = 1;
nodes = (
"326 563 OFFCURVE",
"340 598 OFFCURVE",
"340 636 CURVE SMOOTH",
"340 687 OFFCURVE",
"306 708 OFFCURVE",
"253 708 CURVE SMOOTH",
"239 708 OFFCURVE",
"221 708 OFFCURVE",
"201 705 CURVE",
"25 70 LINE SMOOTH",
"17 42 OFFCURVE",
"3 3 OFFCURVE",
"3 -33 CURVE SMOOTH",
"3 -86 OFFCURVE",
"35 -109 OFFCURVE",
"90 -109 CURVE SMOOTH",
"105 -109 OFFCURVE",
"122 -109 OFFCURVE",
"141 -106 CURVE",
"317 529 LINE"
);
}
);
width = 343;
}
);
unicode = 002F;
},
{
glyphname = zero;
layers = (
{
layerId = UUID0;
paths = (
{
closed = 1;
nodes = (
"433 -13 OFFCURVE",
"529 91 OFFCURVE",
"529 304 CURVE SMOOTH",
"529 530 OFFCURVE",
"415 620 OFFCURVE",
"291 620 CURVE SMOOTH",
"169 620 OFFCURVE",
"54 533 OFFCURVE",
"54 304 CURVE SMOOTH",
"54 90 OFFCURVE",
"150 -13 OFFCURVE",
"291 -13 CURVE SMOOTH"
);
},
{
closed = 1;
nodes = (
"193 55 OFFCURVE",
"136 144 OFFCURVE",
"136 304 CURVE SMOOTH",
"136 478 OFFCURVE",
"206 552 OFFCURVE",
"291 552 CURVE SMOOTH",
"376 552 OFFCURVE",
"447 482 OFFCURVE",
"447 304 CURVE SMOOTH",
"447 144 OFFCURVE",
"390 55 OFFCURVE",
"291 55 CURVE SMOOTH"
);
}
);
width = 583;
},
{
layerId = UUID1;
paths = (
{
closed = 1;
nodes = (
"459 -16 OFFCURVE",
"571 92 OFFCURVE",
"571 304 CURVE SMOOTH",
"571 510 OFFCURVE",
"459 623 OFFCURVE",
"303 623 CURVE SMOOTH",
"145 623 OFFCURVE",
"35 510 OFFCURVE",
"35 304 CURVE SMOOTH",
"35 92 OFFCURVE",
"145 -16 OFFCURVE",
"303 -16 CURVE SMOOTH"
);
},
{
closed = 1;
nodes = (
"240 119 OFFCURVE",
"206 179 OFFCURVE",
"206 304 CURVE SMOOTH",
"206 421 OFFCURVE",
"240 488 OFFCURVE",
"302 488 CURVE SMOOTH",
"364 488 OFFCURVE",
"400 421 OFFCURVE",
"400 304 CURVE SMOOTH",
"400 179 OFFCURVE",
"364 119 OFFCURVE",
"302 119 CURVE SMOOTH"
);
}
);
width = 606;
}
);
unicode = 0030;
},
{
glyphname = one;
layers = (
{
layerId = UUID0;
paths = (
{
closed = 1;
nodes = (
"254 571 LINE SMOOTH",
"254 597 OFFCURVE",
"237 615 OFFCURVE",
"210 615 CURVE SMOOTH",
"191 615 LINE",
"51 554 LINE SMOOTH",
"25 543 OFFCURVE",
"15 531 OFFCURVE",
"15 510 CURVE SMOOTH",
"15 490 OFFCURVE",
"28 476 OFFCURVE",
"45 470 CURVE",
"173 530 LINE",
"173 224 LINE",
"254 224 LINE"
);
},
{
closed = 1;
nodes = (
"173 29 LINE SMOOTH",
"173 3 OFFCURVE",
"188 -8 OFFCURVE",
"216 -8 CURVE SMOOTH",
"232 -8 OFFCURVE",
"246 -4 OFFCURVE",
"254 -1 CURVE",
"254 264 LINE",
"173 264 LINE"
);
}
);
width = 357;
},
{
layerId = UUID1;
paths = (
{
closed = 1;
nodes = (
"325 522 LINE SMOOTH",
"325 579 OFFCURVE",
"289 615 OFFCURVE",
"232 615 CURVE SMOOTH",
"195 615 LINE",
"83 577 LINE SMOOTH",
"35 561 OFFCURVE",
"10 533 OFFCURVE",
"10 493 CURVE SMOOTH",
"10 450 OFFCURVE",
"35 428 OFFCURVE",
"55 415 CURVE",
"155 446 LINE",
"155 131 LINE",
"325 131 LINE"
);
},
{
closed = 1;
nodes = (
"155 72 LINE SMOOTH",
"155 10 OFFCURVE",
"183 -8 OFFCURVE",
"249 -8 CURVE SMOOTH",
"281 -8 OFFCURVE",
"310 -3 OFFCURVE",
"325 1 CURVE",
"325 264 LINE",
"155 264 LINE"
);
}
);
width = 393;
}
);
unicode = 0031;
},
{
glyphname = two;
layers = (
{
layerId = UUID0;
paths = (
{
closed = 1;
nodes = (
"57 525 OFFCURVE",
"70 511 OFFCURVE",
"85 505 CURVE",
"115 528 OFFCURVE",
"162 552 OFFCURVE",
"221 552 CURVE SMOOTH",
"307 552 OFFCURVE",
"350 508 OFFCURVE",
"350 445 CURVE SMOOTH",
"350 388 OFFCURVE",
"324 342 OFFCURVE",
"242 265 CURVE SMOOTH",
"62 92 LINE SMOOTH",
"46 77 OFFCURVE",
"38 61 OFFCURVE",
"38 40 CURVE SMOOTH",
"38 24 OFFCURVE",
"45 9 OFFCURVE",
"58 0 CURVE",
"411 0 LINE SMOOTH",
"430 0 OFFCURVE",
"442 13 OFFCURVE",
"442 34 CURVE SMOOTH",
"442 48 OFFCURVE",
"437 60 OFFCURVE",
"432 66 CURVE",
"135 66 LINE",
"298 217 LINE SMOOTH",
"397 308 OFFCURVE",
"433 373 OFFCURVE",
"433 446 CURVE SMOOTH",
"433 552 OFFCURVE",
"355 620 OFFCURVE",
"227 620 CURVE SMOOTH",
"134 620 OFFCURVE",
"57 581 OFFCURVE",
"57 545 CURVE"
);
}
);
width = 508;
},
{
layerId = UUID1;
paths = (
{
closed = 1;
nodes = (
"60 488 OFFCURVE",
"77 464 OFFCURVE",
"99 448 CURVE",
"127 467 OFFCURVE",
"170 487 OFFCURVE",
"223 487 CURVE SMOOTH",
"276 487 OFFCURVE",
"308 464 OFFCURVE",
"308 427 CURVE SMOOTH",
"308 397 OFFCURVE",
"287 366 OFFCURVE",
"218 307 CURVE SMOOTH",
"80 189 LINE SMOOTH",
"58 170 OFFCURVE",
"35 139 OFFCURVE",
"35 94 CURVE SMOOTH",
"35 52 OFFCURVE",
"53 20 OFFCURVE",
"82 0 CURVE",
"429 0 LINE SMOOTH",
"464 0 OFFCURVE",
"487 19 OFFCURVE",
"487 67 CURVE SMOOTH",
"487 93 OFFCURVE",
"478 118 OFFCURVE",
"470 132 CURVE",
"230 132 LINE",
"361 237 LINE SMOOTH",
"441 301 OFFCURVE",
"480 366 OFFCURVE",
"480 437 CURVE SMOOTH",
"480 542 OFFCURVE",
"399 623 OFFCURVE",
"241 623 CURVE SMOOTH",
"131 623 OFFCURVE",
"60 589 OFFCURVE",
"60 520 CURVE"
);
}
);
width = 522;
}
);
unicode = 0032;
},
{
glyphname = three;
layers = (
{
layerId = UUID0;
paths = (
{
closed = 1;
nodes = (
"120 621 OFFCURVE",
"45 583 OFFCURVE",
"45 547 CURVE SMOOTH",
"45 529 OFFCURVE",
"58 514 OFFCURVE",
"71 507 CURVE",
"103 529 OFFCURVE",
"152 553 OFFCURVE",
"216 553 CURVE SMOOTH",
"299 553 OFFCURVE",
"350 518 OFFCURVE",
"350 453 CURVE SMOOTH",
"350 393 OFFCURVE",
"311 353 OFFCURVE",
"213 353 CURVE SMOOTH",
"137 353 LINE",
"132 346 OFFCURVE",
"127 333 OFFCURVE",
"127 319 CURVE SMOOTH",
"127 306 OFFCURVE",
"132 292 OFFCURVE",
"137 285 CURVE",
"220 285 LINE SMOOTH",
"316 285 OFFCURVE",
"368 240 OFFCURVE",
"368 172 CURVE SMOOTH",
"368 95 OFFCURVE",
"308 57 OFFCURVE",
"220 57 CURVE SMOOTH",
"140 57 OFFCURVE",
"93 82 OFFCURVE",
"59 109 CURVE",
"43 100 OFFCURVE",
"32 87 OFFCURVE",
"32 68 CURVE SMOOTH",
"32 28 OFFCURVE",
"110 -11 OFFCURVE",
"220 -11 CURVE SMOOTH",
"354 -11 OFFCURVE",
"447 50 OFFCURVE",
"447 170 CURVE SMOOTH",
"447 256 OFFCURVE",
"386 304 OFFCURVE",
"333 321 CURVE",
"369 330 OFFCURVE",
"429 374 OFFCURVE",
"429 455 CURVE SMOOTH",
"429 565 OFFCURVE",
"343 621 OFFCURVE",
"217 621 CURVE"
);
}
);
width = 506;
},
{
layerId = UUID1;
paths = (
{
closed = 1;
nodes = (
"117 623 OFFCURVE",
"42 593 OFFCURVE",
"42 526 CURVE SMOOTH",
"42 494 OFFCURVE",
"59 471 OFFCURVE",
"81 455 CURVE",
"108 473 OFFCURVE",
"150 488 OFFCURVE",
"204 488 CURVE SMOOTH",
"265 488 OFFCURVE",
"296 464 OFFCURVE",
"296 430 CURVE SMOOTH",
"296 394 OFFCURVE",
"273 375 OFFCURVE",
"224 375 CURVE SMOOTH",
"130 375 LINE",
"120 361 OFFCURVE",
"113 339 OFFCURVE",
"113 308 CURVE SMOOTH",
"113 279 OFFCURVE",
"121 257 OFFCURVE",
"130 243 CURVE",
"224 243 LINE SMOOTH",
"288 243 OFFCURVE",
"311 222 OFFCURVE",
"311 184 CURVE SMOOTH",
"311 146 OFFCURVE",
"278 119 OFFCURVE",
"211 119 CURVE SMOOTH",
"139 119 OFFCURVE",
"96 146 OFFCURVE",
"70 164 CURVE",
"45 150 OFFCURVE",
"25 123 OFFCURVE",
"25 87 CURVE SMOOTH",
"25 27 OFFCURVE",
"97 -16 OFFCURVE",
"235 -16 CURVE SMOOTH",
"380 -16 OFFCURVE",
"483 54 OFFCURVE",
"483 168 CURVE SMOOTH",
"483 253 OFFCURVE",
"437 296 OFFCURVE",
"382 316 CURVE",
"429 338 OFFCURVE",
"468 384 OFFCURVE",
"468 448 CURVE SMOOTH",
"468 554 OFFCURVE",
"385 623 OFFCURVE",
"233 623 CURVE"
);
}
);
width = 518;
}
);
unicode = 0033;
},
{
glyphname = four;
layers = (
{
layerId = UUID0;
paths = (
{
closed = 1;
nodes = (
"29 215 OFFCURVE",
"27 207 OFFCURVE",
"27 195 CURVE SMOOTH",
"27 173 OFFCURVE",
"39 154 OFFCURVE",
"52 148 CURVE",
"341 148 LINE",
"341 27 LINE SMOOTH",
"341 4 OFFCURVE",
"356 -8 OFFCURVE",
"384 -8 CURVE SMOOTH",
"399 -8 OFFCURVE",
"412 -4 OFFCURVE",
"419 -2 CURVE",
"419 148 LINE",
"497 148 LINE SMOOTH",
"517 148 OFFCURVE",
"528 161 OFFCURVE",
"528 182 CURVE SMOOTH",
"528 196 OFFCURVE",
"523 208 OFFCURVE",
"519 215 CURVE",
"419 215 LINE",
"419 565 LINE SMOOTH",
"419 604 OFFCURVE",
"392 614 OFFCURVE",
"364 614 CURVE SMOOTH",
"352 614 OFFCURVE",
"335 612 OFFCURVE",
"323 609 CURVE",
"32 223 LINE"
);
},
{
closed = 1;
nodes = (
"120 215 LINE",
"342 530 LINE",
"344 530 LINE",
"342 215 LINE"
);
}
);
width = 548;
},
{
layerId = UUID1;
paths = (
{
closed = 1;
nodes = (
"36 272 OFFCURVE",
"31 237 OFFCURVE",
"31 212 CURVE SMOOTH",
"31 167 OFFCURVE",
"56 135 OFFCURVE",
"87 119 CURVE",
"324 119 LINE",
"324 63 LINE SMOOTH",
"324 -1 OFFCURVE",
"357 -8 OFFCURVE",
"415 -8 CURVE SMOOTH",
"442 -8 OFFCURVE",
"476 -2 OFFCURVE",
"490 1 CURVE",
"490 119 LINE",
"527 119 LINE SMOOTH",
"562 119 OFFCURVE",
"587 139 OFFCURVE",
"587 189 CURVE SMOOTH",
"587 216 OFFCURVE",
"577 242 OFFCURVE",
"569 256 CURVE",
"490 256 LINE",
"490 522 LINE SMOOTH",
"490 595 OFFCURVE",
"431 615 OFFCURVE",
"370 615 CURVE SMOOTH",
"344 615 OFFCURVE",
"307 609 OFFCURVE",
"282 601 CURVE",
"53 294 LINE"
);
},
{
closed = 1;
nodes = (
"206 256 LINE",
"330 444 LINE",
"333 444 LINE",
"333 256 LINE"
);
}
);
width = 602;
}
);
unicode = 0034;
},
{
glyphname = five;
layers = (
{
layerId = UUID0;
paths = (
{
closed = 1;
nodes = (
"148 608 LINE SMOOTH",
"120 608 OFFCURVE",
"105 590 OFFCURVE",
"103 562 CURVE SMOOTH",
"86 371 LINE SMOOTH",
"85 359 OFFCURVE",
"84 345 OFFCURVE",
"84 337 CURVE SMOOTH",
"84 306 OFFCURVE",
"108 285 OFFCURVE",
"144 283 CURVE",
"177 302 OFFCURVE",
"215 319 OFFCURVE",
"262 319 CURVE SMOOTH",
"346 319 OFFCURVE",
"403 271 OFFCURVE",
"403 190 CURVE SMOOTH",
"403 111 OFFCURVE",
"350 54 OFFCURVE",
"258 54 CURVE SMOOTH",
"182 54 OFFCURVE",
"128 87 OFFCURVE",
"99 113 CURVE",
"84 107 OFFCURVE",
"67 90 OFFCURVE",
"67 69 CURVE SMOOTH",
"67 32 OFFCURVE",
"143 -13 OFFCURVE",
"258 -13 CURVE SMOOTH",
"403 -13 OFFCURVE",
"485 74 OFFCURVE",
"485 190 CURVE SMOOTH",
"485 317 OFFCURVE",
"391 386 OFFCURVE",
"272 386 CURVE SMOOTH",
"226 386 OFFCURVE",
"182 372 OFFCURVE",
"160 360 CURVE",
"177 549 LINE",
"204 608 LINE"
);
},
{
closed = 1;
nodes = (
"432 540 LINE SMOOTH",
"452 540 OFFCURVE",
"463 554 OFFCURVE",
"463 576 CURVE SMOOTH",
"463 589 OFFCURVE",
"458 602 OFFCURVE",
"454 608 CURVE",
"162 608 LINE",
"162 540 LINE"
);
}
);
width = 538;
},
{
layerId = UUID1;
paths = (
{
closed = 1;
nodes = (
"162 608 LINE SMOOTH",
"105 608 OFFCURVE",
"72 572 OFFCURVE",
"68 515 CURVE SMOOTH",
"56 363 LINE SMOOTH",
"55 344 OFFCURVE",
"55 341 OFFCURVE",
"55 337 CURVE SMOOTH",
"55 270 OFFCURVE",
"96 238 OFFCURVE",
"161 235 CURVE",
"191 249 OFFCURVE",
"211 258 OFFCURVE",
"247 258 CURVE SMOOTH",
"304 258 OFFCURVE",
"328 230 OFFCURVE",
"328 191 CURVE SMOOTH",
"328 151 OFFCURVE",
"300 119 OFFCURVE",
"238 119 CURVE SMOOTH",
"173 119 OFFCURVE",
"134 143 OFFCURVE",
"97 171 CURVE",
"71 157 OFFCURVE",
"45 131 OFFCURVE",
"45 94 CURVE SMOOTH",
"45 22 OFFCURVE",
"128 -16 OFFCURVE",
"250 -16 CURVE SMOOTH",
"425 -16 OFFCURVE",
"500 82 OFFCURVE",
"500 192 CURVE SMOOTH",
"500 302 OFFCURVE",
"436 390 OFFCURVE",
"297 390 CURVE SMOOTH",
"257 390 OFFCURVE",
"234 384 OFFCURVE",
"209 377 CURVE",
"219 508 LINE",
"244 608 LINE"
);
},
{
closed = 1;
nodes = (
"408 471 LINE SMOOTH",
"445 471 OFFCURVE",
"468 493 OFFCURVE",
"468 542 CURVE SMOOTH",
"468 570 OFFCURVE",
"459 593 OFFCURVE",
"450 608 CURVE",
"174 608 LINE",
"174 471 LINE"
);
}
);
width = 522;
}
);
unicode = 0035;
},
{
glyphname = six;
layers = (
{
layerId = UUID0;
paths = (
{
closed = 1;
nodes = (
"455 599 OFFCURVE",
"390 620 OFFCURVE",
"321 620 CURVE SMOOTH",
"187 620 OFFCURVE",
"54 536 OFFCURVE",
"54 285 CURVE SMOOTH",
"54 73 OFFCURVE",
"154 -13 OFFCURVE",
"288 -13 CURVE SMOOTH",
"417 -13 OFFCURVE",
"501 63 OFFCURVE",
"501 187 CURVE SMOOTH",
"501 317 OFFCURVE",
"416 385 OFFCURVE",
"299 385 CURVE SMOOTH",
"218 385 OFFCURVE",
"161 346 OFFCURVE",
"135 320 CURVE",
"139 478 OFFCURVE",
"219 551 OFFCURVE",
"323 551 CURVE SMOOTH",
"365 551 OFFCURVE",
"403 538 OFFCURVE",
"432 523 CURVE",
"445 530 OFFCURVE",
"455 545 OFFCURVE",
"455 561 CURVE"
);
},
{
closed = 1;
nodes = (
"191 54 OFFCURVE",
"135 130 OFFCURVE",
"135 244 CURVE",
"132 237 LINE",
"162 281 OFFCURVE",
"217 317 OFFCURVE",
"290 317 CURVE SMOOTH",
"363 317 OFFCURVE",
"420 275 OFFCURVE",
"420 189 CURVE SMOOTH",
"420 103 OFFCURVE",
"365 54 OFFCURVE",
"288 54 CURVE"
);
}
);
width = 550;
},
{
layerId = UUID1;
paths = (
{
closed = 1;
nodes = (
"483 593 OFFCURVE",
"424 623 OFFCURVE",
"318 623 CURVE SMOOTH",
"151 623 OFFCURVE",
"35 510 OFFCURVE",
"35 288 CURVE SMOOTH",
"35 94 OFFCURVE",
"131 -16 OFFCURVE",
"288 -16 CURVE SMOOTH",
"445 -16 OFFCURVE",
"526 84 OFFCURVE",
"526 199 CURVE SMOOTH",
"526 330 OFFCURVE",
"447 404 OFFCURVE",
"325 404 CURVE SMOOTH",
"278 404 OFFCURVE",
"231 386 OFFCURVE",
"204 367 CURVE",
"218 445 OFFCURVE",
"261 489 OFFCURVE",
"340 489 CURVE SMOOTH",
"373 489 OFFCURVE",
"415 480 OFFCURVE",
"451 464 CURVE",
"468 477 OFFCURVE",
"483 506 OFFCURVE",
"483 534 CURVE"
);
},
{
closed = 1;
nodes = (
"246 119 OFFCURVE",
"212 148 OFFCURVE",
"212 219 CURVE",
"212 244 LINE",
"229 263 OFFCURVE",
"262 274 OFFCURVE",
"287 274 CURVE SMOOTH",
"331 274 OFFCURVE",
"355 245 OFFCURVE",
"355 198 CURVE SMOOTH",
"355 151 OFFCURVE",
"333 119 OFFCURVE",
"289 119 CURVE"
);
}
);
width = 558;
}
);
unicode = 0036;
},
{
glyphname = seven;
layers = (
{
layerId = UUID0;
paths = (
{
closed = 1;
nodes = (
"35 608 OFFCURVE",
"24 594 OFFCURVE",
"24 572 CURVE SMOOTH",
"24 558 OFFCURVE",
"29 546 OFFCURVE",
"33 540 CURVE",
"349 540 LINE",
"123 81 LINE SMOOTH",
"114 61 OFFCURVE",
"106 47 OFFCURVE",
"106 31 CURVE SMOOTH",
"106 8 OFFCURVE",
"127 -5 OFFCURVE",
"153 -5 CURVE SMOOTH",
"161 -5 OFFCURVE",
"168 -5 OFFCURVE",
"176 -4 CURVE",
"427 526 LINE",
"435 542 OFFCURVE",
"438 555 OFFCURVE",
"438 568 CURVE SMOOTH",
"438 585 OFFCURVE",
"429 600 OFFCURVE",
"415 608 CURVE",
"55 608 LINE"
);
}
);
width = 458;
},
{
layerId = UUID1;
paths = (
{
closed = 1;
nodes = (
"45 608 OFFCURVE",
"20 588 OFFCURVE",
"20 538 CURVE SMOOTH",
"20 511 OFFCURVE",
"30 485 OFFCURVE",
"38 471 CURVE",
"283 471 LINE",
"137 172 LINE SMOOTH",
"115 127 OFFCURVE",
"100 96 OFFCURVE",
"100 68 CURVE SMOOTH",
"100 13 OFFCURVE",
"141 -8 OFFCURVE",
"201 -8 CURVE SMOOTH",
"216 -8 OFFCURVE",
"232 -8 OFFCURVE",
"251 -7 CURVE",
"459 464 LINE",
"468 485 OFFCURVE",
"472 508 OFFCURVE",
"472 529 CURVE SMOOTH",
"472 567 OFFCURVE",
"450 593 OFFCURVE",
"428 608 CURVE",
"80 608 LINE"
);
}
);
width = 482;
}
);
unicode = 0037;
},
{
glyphname = eight;
layers = (
{
layerId = UUID0;
paths = (
{
closed = 1;
nodes = (
"418 -13 OFFCURVE",
"510 52 OFFCURVE",
"510 160 CURVE SMOOTH",
"510 261 OFFCURVE",
"431 312 OFFCURVE",
"349 328 CURVE",
"305 343 LINE",
"222 350 OFFCURVE",
"154 378 OFFCURVE",
"154 454 CURVE SMOOTH",
"154 514 OFFCURVE",
"206 553 OFFCURVE",
"285 553 CURVE SMOOTH",
"366 553 OFFCURVE",
"416 516 OFFCURVE",
"416 453 CURVE SMOOTH",
"416 391 OFFCURVE",
"368 356 OFFCURVE",
"272 338 CURVE",
"212 328 LINE",
"136 313 OFFCURVE",
"59 259 OFFCURVE",
"59 161 CURVE SMOOTH",
"59 51 OFFCURVE",
"148 -13 OFFCURVE",
"285 -13 CURVE SMOOTH"
);
},
{
closed = 1;
nodes = (
"194 54 OFFCURVE",
"139 94 OFFCURVE",
"139 162 CURVE SMOOTH",
"139 234 OFFCURVE",
"196 279 OFFCURVE",
"282 293 CURVE",
"350 307 LINE",
"431 321 OFFCURVE",
"496 369 OFFCURVE",
"496 453 CURVE SMOOTH",
"496 557 OFFCURVE",
"415 620 OFFCURVE",
"285 620 CURVE SMOOTH",
"159 620 OFFCURVE",
"74 556 OFFCURVE",
"74 455 CURVE SMOOTH",
"74 377 OFFCURVE",
"123 330 OFFCURVE",
"201 309 CURVE",
"252 294 LINE",
"360 287 OFFCURVE",
"430 240 OFFCURVE",
"430 163 CURVE SMOOTH",
"430 92 OFFCURVE",
"372 54 OFFCURVE",
"285 54 CURVE SMOOTH"
);
}
);
width = 569;
},
{
layerId = UUID1;
paths = (
{
closed = 1;
nodes = (
"434 -18 OFFCURVE",
"535 52 OFFCURVE",
"535 166 CURVE SMOOTH",
"535 267 OFFCURVE",
"465 308 OFFCURVE",
"402 330 CURVE",
"301 369 LINE",
"250 376 OFFCURVE",
"214 398 OFFCURVE",
"214 440 CURVE SMOOTH",
"214 475 OFFCURVE",
"240 498 OFFCURVE",
"281 498 CURVE SMOOTH",
"326 498 OFFCURVE",
"352 477 OFFCURVE",
"352 441 CURVE SMOOTH",
"352 400 OFFCURVE",
"318 377 OFFCURVE",
"262 364 CURVE",
"196 342 LINE",
"115 327 OFFCURVE",
"31 272 OFFCURVE",
"31 168 CURVE SMOOTH",
"31 52 OFFCURVE",
"133 -18 OFFCURVE",
"281 -18 CURVE SMOOTH"
);
},
{
closed = 1;
nodes = (
"233 110 OFFCURVE",
"201 135 OFFCURVE",
"201 178 CURVE SMOOTH",
"201 220 OFFCURVE",
"235 259 OFFCURVE",
"316 270 CURVE",
"409 307 LINE",
"471 330 OFFCURVE",
"519 373 OFFCURVE",
"519 450 CURVE SMOOTH",
"519 558 OFFCURVE",
"429 625 OFFCURVE",
"281 625 CURVE SMOOTH",
"142 625 OFFCURVE",
"47 558 OFFCURVE",
"47 449 CURVE SMOOTH",
"47 371 OFFCURVE",
"100 320 OFFCURVE",
"184 299 CURVE",
"226 265 LINE",
"314 260 OFFCURVE",
"365 226 OFFCURVE",
"365 178 CURVE SMOOTH",
"365 133 OFFCURVE",
"331 110 OFFCURVE",
"281 110 CURVE SMOOTH"
);
}
);
width = 560;
}
);
unicode = 0038;
},
{
glyphname = nine;
layers = (
{
layerId = UUID0;
paths = (
{
closed = 1;
nodes = (
"82 9 OFFCURVE",
"148 -13 OFFCURVE",
"228 -13 CURVE SMOOTH",
"389 -13 OFFCURVE",
"498 78 OFFCURVE",
"498 323 CURVE SMOOTH",
"498 528 OFFCURVE",
"399 620 OFFCURVE",
"262 620 CURVE SMOOTH",
"144 620 OFFCURVE",
"51 544 OFFCURVE",
"51 418 CURVE SMOOTH",
"51 278 OFFCURVE",
"151 223 OFFCURVE",
"264 223 CURVE SMOOTH",
"346 223 OFFCURVE",
"399 263 OFFCURVE",
"417 284 CURVE",
"417 117 OFFCURVE",
"331 56 OFFCURVE",
"227 56 CURVE SMOOTH",
"171 56 OFFCURVE",
"130 73 OFFCURVE",
"105 88 CURVE",
"92 81 OFFCURVE",
"82 65 OFFCURVE",
"82 49 CURVE"
);
},
{
closed = 1;
nodes = (
"196 290 OFFCURVE",
"132 328 OFFCURVE",
"132 420 CURVE SMOOTH",
"132 503 OFFCURVE",
"188 553 OFFCURVE",
"262 553 CURVE SMOOTH",
"360 553 OFFCURVE",
"417 479 OFFCURVE",
"417 361 CURVE",
"418 372 LINE",
"400 331 OFFCURVE",
"343 290 OFFCURVE",
"275 290 CURVE"
);
}
);
width = 552;
},
{
layerId = UUID1;
paths = (
{
closed = 1;
nodes = (
"69 14 OFFCURVE",
"134 -16 OFFCURVE",
"240 -16 CURVE SMOOTH",
"407 -16 OFFCURVE",
"523 97 OFFCURVE",
"523 319 CURVE SMOOTH",
"523 513 OFFCURVE",
"427 623 OFFCURVE",
"270 623 CURVE SMOOTH",
"113 623 OFFCURVE",
"32 523 OFFCURVE",
"32 408 CURVE SMOOTH",
"32 277 OFFCURVE",
"117 209 OFFCURVE",
"237 209 CURVE SMOOTH",
"284 209 OFFCURVE",
"326 222 OFFCURVE",
"353 243 CURVE",
"354 168 OFFCURVE",
"299 118 OFFCURVE",
"212 118 CURVE SMOOTH",
"179 118 OFFCURVE",
"137 127 OFFCURVE",
"101 143 CURVE",
"84 130 OFFCURVE",
"69 101 OFFCURVE",
"69 73 CURVE"
);
},
{
closed = 1;
nodes = (
"233 337 OFFCURVE",
"201 365 OFFCURVE",
"201 412 CURVE SMOOTH",
"201 458 OFFCURVE",
"225 488 OFFCURVE",
"269 488 CURVE SMOOTH",
"321 488 OFFCURVE",
"347 451 OFFCURVE",
"347 380 CURVE",
"347 367 LINE",
"330 348 OFFCURVE",
"301 337 OFFCURVE",
"276 337 CURVE"
);
}
);
width = 558;
}
);
unicode = 0039;
},
{
glyphname = colon;
layers = (
{
layerId = UUID0;
paths = (
{
closed = 1;
nodes = (
"40 360 OFFCURVE",
"60 337 OFFCURVE",
"94 337 CURVE SMOOTH",
"129 337 OFFCURVE",
"149 360 OFFCURVE",
"149 392 CURVE SMOOTH",
"149 424 OFFCURVE",
"129 448 OFFCURVE",
"94 448 CURVE SMOOTH",
"60 448 OFFCURVE",
"40 424 OFFCURVE",
"40 392 CURVE"
);
},
{
closed = 1;
nodes = (
"40 11 OFFCURVE",
"59 -13 OFFCURVE",
"94 -13 CURVE SMOOTH",
"129 -13 OFFCURVE",
"149 11 OFFCURVE",
"149 42 CURVE SMOOTH",
"149 74 OFFCURVE",
"129 98 OFFCURVE",
"94 98 CURVE SMOOTH",
"59 98 OFFCURVE",
"40 74 OFFCURVE",
"40 42 CURVE"
);
}
);
width = 189;
},
{
layerId = UUID1;
paths = (
{
closed = 1;
nodes = (
"38 340 OFFCURVE",
"76 297 OFFCURVE",
"135 297 CURVE SMOOTH",
"194 297 OFFCURVE",
"232 340 OFFCURVE",
"232 395 CURVE SMOOTH",
"232 450 OFFCURVE",
"194 493 OFFCURVE",
"135 493 CURVE SMOOTH",
"76 493 OFFCURVE",
"38 450 OFFCURVE",
"38 395 CURVE"
);
},
{
closed = 1;
nodes = (
"32 26 OFFCURVE",
"70 -17 OFFCURVE",
"129 -17 CURVE SMOOTH",
"188 -17 OFFCURVE",
"226 26 OFFCURVE",
"226 81 CURVE SMOOTH",
"226 136 OFFCURVE",
"188 179 OFFCURVE",
"129 179 CURVE SMOOTH",
"70 179 OFFCURVE",
"32 136 OFFCURVE",
"32 81 CURVE"
);
}
);
width = 258;
}
);
leftKerningGroup = colon;
rightKerningGroup = colon;
unicode = 003A;
},
{
glyphname = semicolon;
layers = (
{
components = (
{
name = comma;
transform = "{1, 0, 0, 1, 21, 0}";
}
);
layerId = UUID0;
paths = (
{
closed = 1;
nodes = (
"46 360 OFFCURVE",
"65 337 OFFCURVE",
"100 337 CURVE SMOOTH",
"135 337 OFFCURVE",
"155 360 OFFCURVE",
"155 392 CURVE SMOOTH",
"155 424 OFFCURVE",
"135 448 OFFCURVE",
"100 448 CURVE SMOOTH",
"65 448 OFFCURVE",
"46 424 OFFCURVE",
"46 392 CURVE"
);
}
);
width = 202;
},
{
components = (
{
name = comma;
transform = "{1, 0, 0, 1, 13, 0}";
}
);
layerId = UUID1;
paths = (
{
closed = 1;
nodes = (
"38 340 OFFCURVE",
"76 297 OFFCURVE",
"135 297 CURVE SMOOTH",
"194 297 OFFCURVE",
"232 340 OFFCURVE",
"232 395 CURVE SMOOTH",
"232 450 OFFCURVE",
"194 493 OFFCURVE",
"135 493 CURVE SMOOTH",
"76 493 OFFCURVE",
"38 450 OFFCURVE",
"38 395 CURVE"
);
}
);
width = 266;
}
);
leftKerningGroup = colon;
rightKerningGroup = colon;
unicode = 003B;
},
{
glyphname = less;
layers = (
{
layerId = UUID0;
paths = (
{
closed = 1;
nodes = (
"402 425 LINE",
"423 438 OFFCURVE",
"438 449 OFFCURVE",
"438 471 CURVE SMOOTH",
"438 487 OFFCURVE",
"427 501 OFFCURVE",
"405 509 CURVE",
"71 338 LINE SMOOTH",
"61 332 OFFCURVE",
"54 320 OFFCURVE",
"54 300 CURVE SMOOTH",
"54 287 OFFCURVE",
"58 276 OFFCURVE",
"64 267 CURVE",
"369 101 LINE",
"382 93 OFFCURVE",
"394 88 OFFCURVE",
"404 88 CURVE SMOOTH",
"427 88 OFFCURVE",
"441 103 OFFCURVE",
"441 123 CURVE SMOOTH",
"441 130 OFFCURVE",
"441 134 OFFCURVE",
"440 141 CURVE",
"132 301 LINE"
);
}
);
width = 473;
},
{
layerId = UUID1;
paths = (
{
closed = 1;
nodes = (
"391 354 LINE",
"436 377 OFFCURVE",
"460 398 OFFCURVE",
"460 445 CURVE SMOOTH",
"460 480 OFFCURVE",
"441 512 OFFCURVE",
"376 529 CURVE",
"77 379 LINE SMOOTH",
"47 362 OFFCURVE",
"30 334 OFFCURVE",
"30 278 CURVE SMOOTH",
"30 242 OFFCURVE",
"39 210 OFFCURVE",
"56 188 CURVE",
"291 69 LINE",
"332 48 OFFCURVE",
"355 36 OFFCURVE",
"383 36 CURVE SMOOTH",
"441 36 OFFCURVE",
"460 78 OFFCURVE",
"460 125 CURVE SMOOTH",
"460 134 OFFCURVE",
"459 146 OFFCURVE",
"457 154 CURVE",
"191 275 LINE"
);
}
);
width = 490;
}
);
leftKerningGroup = less;
rightKerningGroup = less;
unicode = 003C;
},
{
glyphname = equal;
layers = (
{
layerId = UUID0;
paths = (
{
closed = 1;
nodes = (
"454 363 OFFCURVE",
"466 375 OFFCURVE",
"466 397 CURVE SMOOTH",
"466 410 OFFCURVE",
"463 420 OFFCURVE",
"460 428 CURVE",
"86 428 LINE SMOOTH",
"64 428 OFFCURVE",
"51 416 OFFCURVE",
"51 394 CURVE SMOOTH",
"51 382 OFFCURVE",
"54 371 OFFCURVE",
"58 363 CURVE",
"431 363 LINE"
);
},
{
closed = 1;
nodes = (
"454 161 OFFCURVE",
"466 173 OFFCURVE",
"466 195 CURVE SMOOTH",
"466 207 OFFCURVE",
"463 218 OFFCURVE",
"460 226 CURVE",
"86 226 LINE SMOOTH",
"64 226 OFFCURVE",
"51 214 OFFCURVE",
"51 192 CURVE SMOOTH",
"51 179 OFFCURVE",
"54 169 OFFCURVE",
"58 161 CURVE",
"431 161 LINE"
);
}
);
width = 518;
},
{
layerId = UUID1;
paths = (
{
closed = 1;
nodes = (
"452 333 OFFCURVE",
"477 351 OFFCURVE",
"477 400 CURVE SMOOTH",
"477 427 OFFCURVE",
"468 453 OFFCURVE",
"460 467 CURVE",
"93 467 LINE SMOOTH",
"57 467 OFFCURVE",
"32 446 OFFCURVE",
"32 397 CURVE SMOOTH",
"32 370 OFFCURVE",
"40 347 OFFCURVE",
"49 333 CURVE",
"416 333 LINE"
);
},
{
closed = 1;
nodes = (
"452 124 OFFCURVE",
"477 142 OFFCURVE",
"477 191 CURVE SMOOTH",
"477 218 OFFCURVE",
"468 244 OFFCURVE",
"460 258 CURVE",
"93 258 LINE SMOOTH",
"57 258 OFFCURVE",
"32 237 OFFCURVE",
"32 188 CURVE SMOOTH",
"32 161 OFFCURVE",
"40 138 OFFCURVE",
"49 124 CURVE",
"416 124 LINE"
);
}
);
width = 509;
}
);
leftKerningGroup = hyphen;
rightKerningGroup = hyphen;
unicode = 003D;
},
{
glyphname = greater;
layers = (
{
layerId = UUID0;
paths = (
{
closed = 1;
nodes = (
"71 175 LINE",
"49 163 OFFCURVE",
"35 151 OFFCURVE",
"35 130 CURVE SMOOTH",
"35 114 OFFCURVE",
"45 99 OFFCURVE",
"68 92 CURVE",
"392 262 LINE SMOOTH",
"402 269 OFFCURVE",
"409 280 OFFCURVE",
"409 300 CURVE SMOOTH",
"409 313 OFFCURVE",
"405 325 OFFCURVE",
"399 334 CURVE",
"103 500 LINE",
"90 507 OFFCURVE",
"79 512 OFFCURVE",
"68 512 CURVE SMOOTH",
"46 512 OFFCURVE",
"32 496 OFFCURVE",
"32 477 CURVE SMOOTH",
"32 471 OFFCURVE",
"32 466 OFFCURVE",
"33 459 CURVE",
"331 302 LINE"
);
}
);
width = 460;
},
{
layerId = UUID1;
paths = (
{
closed = 1;
nodes = (
"103 209 LINE",
"58 187 OFFCURVE",
"34 165 OFFCURVE",
"34 118 CURVE SMOOTH",
"34 83 OFFCURVE",
"53 51 OFFCURVE",
"118 34 CURVE",
"413 184 LINE SMOOTH",
"443 201 OFFCURVE",
"460 229 OFFCURVE",
"460 285 CURVE SMOOTH",
"460 321 OFFCURVE",
"451 353 OFFCURVE",
"434 375 CURVE",
"199 492 LINE",
"165 509 OFFCURVE",
"135 524 OFFCURVE",
"107 524 CURVE SMOOTH",
"49 524 OFFCURVE",
"30 482 OFFCURVE",
"30 435 CURVE SMOOTH",
"30 426 OFFCURVE",
"31 414 OFFCURVE",
"33 406 CURVE",
"299 288 LINE"
);
}
);
width = 491;
}
);
leftKerningGroup = greater;
rightKerningGroup = greater;
unicode = 003E;
},
{
glyphname = question;
layers = (
{
layerId = UUID0;
paths = (
{
closed = 1;
nodes = (
"351 258 OFFCURVE",
"420 326 OFFCURVE",
"420 438 CURVE SMOOTH",
"420 547 OFFCURVE",
"330 625 OFFCURVE",
"198 625 CURVE SMOOTH",
"98 625 OFFCURVE",
"27 591 OFFCURVE",
"27 552 CURVE SMOOTH",
"27 535 OFFCURVE",
"35 520 OFFCURVE",
"50 509 CURVE",
"82 535 OFFCURVE",
"142 554 OFFCURVE",
"195 554 CURVE SMOOTH",
"292 554 OFFCURVE",
"337 501 OFFCURVE",
"337 437 CURVE SMOOTH",
"337 365 OFFCURVE",
"288 322 OFFCURVE",
"200 299 CURVE SMOOTH",
"131 281 LINE SMOOTH",
"104 274 OFFCURVE",
"95 263 OFFCURVE",
"95 244 CURVE SMOOTH",
"95 227 OFFCURVE",
"103 212 OFFCURVE",
"115 200 CURVE",
"213 224 LINE"
);
},
{
closed = 1;
nodes = (
"104 13 OFFCURVE",
"126 -11 OFFCURVE",
"160 -11 CURVE SMOOTH",
"195 -11 OFFCURVE",
"217 13 OFFCURVE",
"217 45 CURVE SMOOTH",
"217 77 OFFCURVE",
"195 102 OFFCURVE",
"160 102 CURVE SMOOTH",
"126 102 OFFCURVE",
"104 77 OFFCURVE",
"104 45 CURVE"
);
}
);
width = 459;
},
{
layerId = UUID1;
paths = (
{
closed = 1;
nodes = (
"387 261 OFFCURVE",
"463 325 OFFCURVE",
"463 441 CURVE SMOOTH",
"463 554 OFFCURVE",
"381 636 OFFCURVE",
"224 636 CURVE SMOOTH",
"108 636 OFFCURVE",
"24 604 OFFCURVE",
"24 534 CURVE SMOOTH",
"24 500 OFFCURVE",
"43 475 OFFCURVE",
"65 458 CURVE",
"94 478 OFFCURVE",
"146 493 OFFCURVE",
"200 493 CURVE SMOOTH",
"260 493 OFFCURVE",
"282 466 OFFCURVE",
"282 441 CURVE SMOOTH",
"282 411 OFFCURVE",
"267 398 OFFCURVE",
"232 387 CURVE SMOOTH",
"154 368 LINE SMOOTH",
"111 357 OFFCURVE",
"89 339 OFFCURVE",
"89 298 CURVE SMOOTH",
"89 256 OFFCURVE",
"113 224 OFFCURVE",
"136 210 CURVE",
"237 230 LINE"
);
},
{
closed = 1;
nodes = (
"103 22 OFFCURVE",
"140 -17 OFFCURVE",
"199 -17 CURVE SMOOTH",
"258 -17 OFFCURVE",
"295 22 OFFCURVE",
"295 77 CURVE SMOOTH",
"295 132 OFFCURVE",
"258 171 OFFCURVE",
"199 171 CURVE SMOOTH",
"140 171 OFFCURVE",
"103 132 OFFCURVE",
"103 77 CURVE"
);
}
);
width = 498;
}
);
unicode = 003F;
},
{
glyphname = at;
layers = (
{
layerId = UUID0;
paths = (
{
closed = 1;
nodes = (
"380 304 OFFCURVE",
"438 363 OFFCURVE",
"523 363 CURVE SMOOTH",
"562 363 OFFCURVE",
"593 354 OFFCURVE",
"614 344 CURVE",
"586 60 LINE",
"665 60 LINE",
"691 322 LINE SMOOTH",
"692 331 OFFCURVE",
"693 343 OFFCURVE",
"693 352 CURVE SMOOTH",
"693 370 OFFCURVE",
"678 388 OFFCURVE",
"652 401 CURVE SMOOTH",
"621 417 OFFCURVE",
"574 429 OFFCURVE",
"528 429 CURVE SMOOTH",
"390 429 OFFCURVE",
"298 344 OFFCURVE",
"298 200 CURVE SMOOTH",
"298 74 OFFCURVE",
"376 0 OFFCURVE",
"492 0 CURVE SMOOTH",
"560 0 OFFCURVE",
"604 24 OFFCURVE",
"632 53 CURVE",
"620 127 LINE",
"585 85 OFFCURVE",
"550 66 OFFCURVE",
"503 66 CURVE SMOOTH",
"426 66 OFFCURVE",
"380 114 OFFCURVE",
"380 200 CURVE"
);
},
{
closed = 1;
nodes = (
"640 10 OFFCURVE",
"684 -5 OFFCURVE",
"726 -5 CURVE SMOOTH",
"864 -5 OFFCURVE",
"936 94 OFFCURVE",
"936 266 CURVE SMOOTH",
"936 498 OFFCURVE",
"776 652 OFFCURVE",
"515 652 CURVE SMOOTH",
"236 652 OFFCURVE",
"55 474 OFFCURVE",
"55 204 CURVE SMOOTH",
"55 -56 OFFCURVE",
"226 -221 OFFCURVE",
"480 -221 CURVE SMOOTH",
"582 -221 OFFCURVE",
"615 -202 OFFCURVE",
"615 -172 CURVE SMOOTH",
"615 -160 OFFCURVE",
"610 -149 OFFCURVE",
"602 -141 CURVE",
"575 -149 OFFCURVE",
"536 -156 OFFCURVE",
"486 -156 CURVE SMOOTH",
"275 -156 OFFCURVE",
"134 -14 OFFCURVE",
"134 204 CURVE SMOOTH",
"134 433 OFFCURVE",
"283 587 OFFCURVE",
"516 587 CURVE SMOOTH",
"724 587 OFFCURVE",
"857 457 OFFCURVE",
"857 267 CURVE SMOOTH",
"857 146 OFFCURVE",
"813 61 OFFCURVE",
"726 61 CURVE SMOOTH",
"690 61 OFFCURVE",
"666 78 OFFCURVE",
"650 91 CURVE",
"632 91 OFFCURVE",
"618 67 OFFCURVE",
"608 37 CURVE"
);
}
);
width = 1000;
},
{
layerId = UUID1;
paths = (
{
closed = 1;
nodes = (
"480 270 OFFCURVE",
"517 309 OFFCURVE",
"563 309 CURVE SMOOTH",
"586 309 OFFCURVE",
"598 305 OFFCURVE",
"609 299 CURVE",
"585 51 LINE",
"738 53 LINE",
"768 308 LINE SMOOTH",
"769 315 OFFCURVE",
"769 321 OFFCURVE",
"769 328 CURVE SMOOTH",
"769 354 OFFCURVE",
"755 378 OFFCURVE",
"730 395 CURVE SMOOTH",
"693 420 OFFCURVE",
"641 442 OFFCURVE",
"564 442 CURVE SMOOTH",
"413 442 OFFCURVE",
"311 342 OFFCURVE",
"311 197 CURVE SMOOTH",
"311 72 OFFCURVE",
"395 0 OFFCURVE",
"515 0 CURVE SMOOTH",
"586 0 OFFCURVE",
"642 23 OFFCURVE",
"674 57 CURVE",
"634 191 LINE",
"613 154 OFFCURVE",
"587 128 OFFCURVE",
"544 128 CURVE SMOOTH",
"511 128 OFFCURVE",
"480 145 OFFCURVE",
"480 198 CURVE"
);
},
{
closed = 1;
nodes = (
"679 6 OFFCURVE",
"732 -5 OFFCURVE",
"772 -5 CURVE SMOOTH",
"935 -5 OFFCURVE",
"1029 98 OFFCURVE",
"1029 276 CURVE SMOOTH",
"1029 512 OFFCURVE",
"836 663 OFFCURVE",
"561 663 CURVE SMOOTH",
"273 663 OFFCURVE",
"49 488 OFFCURVE",
"49 204 CURVE SMOOTH",
"49 -105 OFFCURVE",
"292 -227 OFFCURVE",
"497 -227 CURVE SMOOTH",
"618 -227 OFFCURVE",
"651 -195 OFFCURVE",
"651 -140 CURVE SMOOTH",
"651 -122 OFFCURVE",
"642 -98 OFFCURVE",
"633 -83 CURVE",
"604 -87 OFFCURVE",
"568 -94 OFFCURVE",
"509 -94 CURVE SMOOTH",
"337 -94 OFFCURVE",
"210 20 OFFCURVE",
"210 204 CURVE SMOOTH",
"210 394 OFFCURVE",
"353 535 OFFCURVE",
"562 535 CURVE SMOOTH",
"741 535 OFFCURVE",
"869 430 OFFCURVE",
"869 277 CURVE SMOOTH",
"869 187 OFFCURVE",
"832 124 OFFCURVE",
"772 124 CURVE SMOOTH",
"765 124 OFFCURVE",
"752 126 OFFCURVE",
"747 128 CURVE",
"682 128 OFFCURVE",
"640 78 OFFCURVE",
"640 30 CURVE"
);
}
);
width = 1069;
}
);
unicode = 0040;
},
{
glyphname = A;
layers = (
{
layerId = UUID0;
paths = (
{
closed = 1;
nodes = (
"321 478 OFFCURVE",
"369 341 OFFCURVE",
"410 220 CURVE",
"418 192 LINE",
"473 29 LINE SMOOTH",
"482 2 OFFCURVE",
"494 -8 OFFCURVE",
"519 -8 CURVE SMOOTH",
"538 -8 OFFCURVE",
"553 0 OFFCURVE",
"563 12 CURVE",
"510 175 OFFCURVE",
"421 432 OFFCURVE",
"357 587 CURVE SMOOTH",
"350 606 OFFCURVE",
"322 613 OFFCURVE",
"295 613 CURVE SMOOTH",
"272 613 OFFCURVE",
"248 606 OFFCURVE",
"238 601 CURVE",
"174 440 OFFCURVE",
"79 179 OFFCURVE",
"40 67 CURVE SMOOTH",
"35 52 OFFCURVE",
"30 40 OFFCURVE",
"30 28 CURVE SMOOTH",
"30 3 OFFCURVE",
"50 -8 OFFCURVE",
"71 -8 CURVE SMOOTH",
"85 -8 OFFCURVE",
"95 -6 OFFCURVE",
"104 -2 CURVE",
"118 40 OFFCURVE",
"156 148 OFFCURVE",
"171 196 CURVE",
"176 211 LINE",
"213 317 OFFCURVE",
"263 461 OFFCURVE",
"294 545 CURVE",
"298 545 LINE"
);
},
{
closed = 1;
nodes = (
"453 162 LINE",
"437 229 LINE",
"158 229 LINE",
"132 162 LINE"
);
}
);
width = 592;
},
{
layerId = UUID1;
paths = (
{
closed = 1;
nodes = (
"336 405 OFFCURVE",
"356 333 OFFCURVE",
"376 256 CURVE",
"396 153 LINE",
"421 57 LINE SMOOTH",
"433 11 OFFCURVE",
"452 -10 OFFCURVE",
"517 -10 CURVE SMOOTH",
"561 -10 OFFCURVE",
"594 3 OFFCURVE",
"610 21 CURVE",
"569 169 OFFCURVE",
"500 418 OFFCURVE",
"453 555 CURVE SMOOTH",
"439 597 OFFCURVE",
"381 616 OFFCURVE",
"315 616 CURVE SMOOTH",
"269 616 OFFCURVE",
"216 601 OFFCURVE",
"194 588 CURVE",
"166 517 OFFCURVE",
"64 223 OFFCURVE",
"36 116 CURVE SMOOTH",
"29 91 OFFCURVE",
"23 74 OFFCURVE",
"23 55 CURVE SMOOTH",
"23 14 OFFCURVE",
"56 -11 OFFCURVE",
"123 -11 CURVE SMOOTH",
"152 -11 OFFCURVE",
"172 -5 OFFCURVE",
"190 1 CURVE",
"200 41 OFFCURVE",
"211 86 OFFCURVE",
"226 140 CURVE",
"248 253 LINE",
"270 331 OFFCURVE",
"296 403 OFFCURVE",
"314 459 CURVE",
"320 459 LINE"
);
},
{
closed = 1;
nodes = (
"461 126 LINE",
"440 261 LINE",
"220 261 LINE",
"151 126 LINE"
);
}
);
width = 627;
}
);
leftKerningGroup = A;
rightKerningGroup = A;
unicode = 0041;
},
{
glyphname = B;
layers = (
{
layerId = UUID0;
paths = (
{
closed = 1;
nodes = (
"145 349 LINE",
"145 283 LINE",
"420 283 LINE",
"420 349 LINE"
);
},
{
closed = 1;
nodes = (
"405 283 OFFCURVE",
"457 239 OFFCURVE",
"457 170 CURVE SMOOTH",
"457 92 OFFCURVE",
"398 56 OFFCURVE",
"288 56 CURVE SMOOTH",
"245 56 OFFCURVE",
"201 60 OFFCURVE",
"169 67 CURVE",
"169 543 LINE",
"198 548 OFFCURVE",
"231 552 OFFCURVE",
"277 552 CURVE SMOOTH",
"380 552 OFFCURVE",
"433 519 OFFCURVE",
"433 453 CURVE SMOOTH",
"433 388 OFFCURVE",
"387 349 OFFCURVE",
"299 349 CURVE",
"308 299 LINE",
"459 299 OFFCURVE",
"516 370 OFFCURVE",
"516 455 CURVE SMOOTH",
"516 566 OFFCURVE",
"427 619 OFFCURVE",
"277 619 CURVE SMOOTH",
"218 619 OFFCURVE",
"167 615 OFFCURVE",
"122 602 CURVE SMOOTH",
"100 596 OFFCURVE",
"89 585 OFFCURVE",
"89 564 CURVE SMOOTH",
"89 52 LINE SMOOTH",
"89 30 OFFCURVE",
"102 14 OFFCURVE",
"131 6 CURVE SMOOTH",
"179 -7 OFFCURVE",
"233 -11 OFFCURVE",
"288 -11 CURVE SMOOTH",
"449 -11 OFFCURVE",
"540 47 OFFCURVE",
"540 168 CURVE SMOOTH",
"540 259 OFFCURVE",
"473 333 OFFCURVE",
"337 333 CURVE",
"305 283 LINE"
);
}
);
width = 599;
},
{
layerId = UUID1;
paths = (
{
closed = 1;
nodes = (
"173 369 LINE",
"173 247 LINE",
"379 247 LINE",
"379 369 LINE"
);
},
{
closed = 1;
nodes = (
"376 247 OFFCURVE",
"406 230 OFFCURVE",
"406 186 CURVE SMOOTH",
"406 139 OFFCURVE",
"366 118 OFFCURVE",
"313 118 CURVE SMOOTH",
"287 118 OFFCURVE",
"253 120 OFFCURVE",
"235 125 CURVE",
"235 487 LINE",
"249 489 OFFCURVE",
"280 491 OFFCURVE",
"300 491 CURVE SMOOTH",
"360 491 OFFCURVE",
"390 468 OFFCURVE",
"390 432 CURVE SMOOTH",
"390 391 OFFCURVE",
"365 369 OFFCURVE",
"308 369 CURVE",
"314 297 LINE",
"467 297 OFFCURVE",
"564 347 OFFCURVE",
"564 447 CURVE SMOOTH",
"564 566 OFFCURVE",
"467 623 OFFCURVE",
"298 623 CURVE SMOOTH",
"227 623 OFFCURVE",
"153 616 OFFCURVE",
"108 600 CURVE SMOOTH",
"82 591 OFFCURVE",
"65 577 OFFCURVE",
"65 549 CURVE SMOOTH",
"65 82 LINE SMOOTH",
"65 46 OFFCURVE",
"84 23 OFFCURVE",
"120 9 CURVE SMOOTH",
"173 -11 OFFCURVE",
"254 -16 OFFCURVE",
"300 -16 CURVE SMOOTH",
"483 -16 OFFCURVE",
"585 47 OFFCURVE",
"585 178 CURVE SMOOTH",
"585 283 OFFCURVE",
"497 341 OFFCURVE",
"322 341 CURVE",
"317 247 LINE"
);
}
);
width = 619;
}
);
leftKerningGroup = B;
unicode = 0042;
},
{
glyphname = C;
layers = (
{
layerId = UUID0;
paths = (
{
closed = 1;
nodes = (
"533 579 OFFCURVE",
"457 621 OFFCURVE",
"347 621 CURVE SMOOTH",
"189 621 OFFCURVE",
"54 513 OFFCURVE",
"54 303 CURVE SMOOTH",
"54 93 OFFCURVE",
"183 -13 OFFCURVE",
"350 -13 CURVE SMOOTH",
"432 -13 OFFCURVE",
"484 7 OFFCURVE",
"515 28 CURVE SMOOTH",
"532 40 OFFCURVE",
"539 52 OFFCURVE",
"539 66 CURVE SMOOTH",
"539 85 OFFCURVE",
"524 100 OFFCURVE",
"511 105 CURVE",
"477 79 OFFCURVE",
"425 56 OFFCURVE",
"356 56 CURVE SMOOTH",
"226 56 OFFCURVE",
"138 139 OFFCURVE",
"138 303 CURVE SMOOTH",
"138 467 OFFCURVE",
"231 552 OFFCURVE",
"353 552 CURVE SMOOTH",
"427 552 OFFCURVE",
"471 526 OFFCURVE",
"505 502 CURVE",
"520 508 OFFCURVE",
"533 523 OFFCURVE",
"533 541 CURVE"
);
}
);
width = 588;
},
{
layerId = UUID1;
paths = (
{
closed = 1;
nodes = (
"541 580 OFFCURVE",
"470 625 OFFCURVE",
"348 625 CURVE SMOOTH",
"175 625 OFFCURVE",
"35 510 OFFCURVE",
"35 303 CURVE SMOOTH",
"35 80 OFFCURVE",
"178 -18 OFFCURVE",
"359 -18 CURVE SMOOTH",
"421 -18 OFFCURVE",
"466 -5 OFFCURVE",
"490 6 CURVE SMOOTH",
"528 23 OFFCURVE",
"543 49 OFFCURVE",
"543 80 CURVE SMOOTH",
"543 114 OFFCURVE",
"529 141 OFFCURVE",
"507 159 CURVE",
"472 140 OFFCURVE",
"437 123 OFFCURVE",
"383 123 CURVE SMOOTH",
"278 123 OFFCURVE",
"215 185 OFFCURVE",
"215 303 CURVE SMOOTH",
"215 417 OFFCURVE",
"272 484 OFFCURVE",
"374 484 CURVE SMOOTH",
"426 484 OFFCURVE",
"464 465 OFFCURVE",
"498 443 CURVE",
"520 458 OFFCURVE",
"541 484 OFFCURVE",
"541 518 CURVE"
);
}
);
width = 571;
}
);
leftKerningGroup = O;
rightKerningGroup = C;
unicode = 0043;
},
{
glyphname = D;
layers = (
{
layerId = UUID0;
paths = (
{
closed = 1;
nodes = (
"515 482 OFFCURVE",
"404 551 OFFCURVE",
"269 551 CURVE SMOOTH",
"227 551 OFFCURVE",
"197 548 OFFCURVE",
"170 543 CURVE",
"170 67 LINE",
"202 59 OFFCURVE",
"239 57 OFFCURVE",
"278 57 CURVE SMOOTH",
"434 57 OFFCURVE",
"515 144 OFFCURVE",
"515 311 CURVE"
);
},
{
closed = 1;
nodes = (
"598 93 OFFCURVE",
"473 -11 OFFCURVE",
"279 -11 CURVE SMOOTH",
"237 -11 OFFCURVE",
"179 -10 OFFCURVE",
"131 5 CURVE SMOOTH",
"102 14 OFFCURVE",
"89 29 OFFCURVE",
"89 51 CURVE SMOOTH",
"89 565 LINE SMOOTH",
"89 586 OFFCURVE",
"100 596 OFFCURVE",
"122 603 CURVE SMOOTH",
"163 616 OFFCURVE",
"218 619 OFFCURVE",
"270 619 CURVE SMOOTH",
"465 619 OFFCURVE",
"598 516 OFFCURVE",
"598 311 CURVE"
);
}
);
width = 652;
},
{
layerId = UUID1;
paths = (
{
closed = 1;
nodes = (
"451 420 OFFCURVE",
"390 482 OFFCURVE",
"297 482 CURVE SMOOTH",
"278 482 OFFCURVE",
"259 481 OFFCURVE",
"239 478 CURVE",
"239 130 LINE",
"253 127 OFFCURVE",
"278 125 OFFCURVE",
"296 125 CURVE SMOOTH",
"387 125 OFFCURVE",
"451 184 OFFCURVE",
"451 301 CURVE"
);
},
{
closed = 1;
nodes = (
"631 90 OFFCURVE",
"496 -16 OFFCURVE",
"295 -16 CURVE SMOOTH",
"249 -16 OFFCURVE",
"173 -11 OFFCURVE",
"120 9 CURVE SMOOTH",
"84 23 OFFCURVE",
"65 46 OFFCURVE",
"65 82 CURVE SMOOTH",
"65 549 LINE SMOOTH",
"65 577 OFFCURVE",
"82 591 OFFCURVE",
"108 600 CURVE SMOOTH",
"165 619 OFFCURVE",
"234 623 OFFCURVE",
"285 623 CURVE SMOOTH",
"492 623 OFFCURVE",
"631 522 OFFCURVE",
"631 304 CURVE"
);
}
);
width = 666;
}
);
leftKerningGroup = B;
rightKerningGroup = O;
unicode = 0044;
},
{
glyphname = E;
layers = (
{
layerId = UUID0;
paths = (
{
closed = 1;
nodes = (
"89 44 LINE SMOOTH",
"89 18 OFFCURVE",
"106 0 OFFCURVE",
"133 0 CURVE SMOOTH",
"148 0 OFFCURVE",
"164 6 OFFCURVE",
"170 8 CURVE",
"170 366 LINE",
"89 366 LINE"
);
},
{
closed = 1;
nodes = (
"170 600 LINE",
"164 602 OFFCURVE",
"148 608 OFFCURVE",
"133 608 CURVE SMOOTH",
"106 608 OFFCURVE",
"89 590 OFFCURVE",
"89 564 CURVE SMOOTH",
"89 249 LINE",
"170 248 LINE"
);
},
{
closed = 1;
nodes = (
"412 278 LINE SMOOTH",
"432 278 OFFCURVE",
"443 292 OFFCURVE",
"443 314 CURVE SMOOTH",
"443 327 OFFCURVE",
"438 340 OFFCURVE",
"434 346 CURVE",
"133 346 LINE",
"133 278 LINE"
);
},
{
closed = 1;
nodes = (
"448 0 LINE SMOOTH",
"468 0 OFFCURVE",
"479 14 OFFCURVE",
"479 36 CURVE SMOOTH",
"479 50 OFFCURVE",
"474 62 OFFCURVE",
"470 68 CURVE",
"133 68 LINE",
"133 0 LINE"
);
},
{
closed = 1;
nodes = (
"443 539 LINE SMOOTH",
"463 539 OFFCURVE",
"474 554 OFFCURVE",
"474 576 CURVE SMOOTH",
"474 589 OFFCURVE",
"469 602 OFFCURVE",
"465 608 CURVE",
"133 608 LINE",
"133 539 LINE"
);
}
);
width = 531;
},
{
layerId = UUID1;
paths = (
{
closed = 1;
nodes = (
"65 90 LINE SMOOTH",
"65 33 OFFCURVE",
"101 -3 OFFCURVE",
"158 -3 CURVE SMOOTH",
"190 -3 OFFCURVE",
"220 2 OFFCURVE",
"235 6 CURVE",
"235 442 LINE",
"65 442 LINE"
);
},
{
closed = 1;
nodes = (
"235 597 LINE",
"220 601 OFFCURVE",
"190 606 OFFCURVE",
"158 606 CURVE SMOOTH",
"101 606 OFFCURVE",
"65 570 OFFCURVE",
"65 513 CURVE SMOOTH",
"65 161 LINE",
"235 161 LINE"
);
},
{
closed = 1;
nodes = (
"418 240 LINE SMOOTH",
"455 240 OFFCURVE",
"478 261 OFFCURVE",
"478 310 CURVE SMOOTH",
"478 338 OFFCURVE",
"469 361 OFFCURVE",
"460 376 CURVE",
"158 376 LINE",
"158 240 LINE"
);
},
{
closed = 1;
nodes = (
"450 -3 LINE SMOOTH",
"487 -3 OFFCURVE",
"510 18 OFFCURVE",
"510 67 CURVE SMOOTH",
"510 95 OFFCURVE",
"501 120 OFFCURVE",
"492 135 CURVE",
"158 135 LINE",
"158 -3 LINE"
);
},
{
closed = 1;
nodes = (
"446 469 LINE SMOOTH",
"483 469 OFFCURVE",
"506 491 OFFCURVE",
"506 540 CURVE SMOOTH",
"506 568 OFFCURVE",
"497 591 OFFCURVE",
"488 606 CURVE",
"158 606 LINE",
"158 469 LINE"
);
}
);
width = 548;
}
);
rightKerningGroup = E;
unicode = 0045;
},
{
glyphname = F;
layers = (
{
layerId = UUID0;
paths = (
{
closed = 1;
nodes = (
"170 600 LINE",
"164 602 OFFCURVE",
"148 608 OFFCURVE",
"133 608 CURVE SMOOTH",
"106 608 OFFCURVE",
"89 590 OFFCURVE",
"89 564 CURVE SMOOTH",
"89 247 LINE",
"170 246 LINE"
);
},
{
closed = 1;
nodes = (
"408 262 LINE SMOOTH",
"428 262 OFFCURVE",
"439 277 OFFCURVE",
"439 299 CURVE SMOOTH",
"439 312 OFFCURVE",
"434 324 OFFCURVE",
"430 331 CURVE",
"133 331 LINE",
"133 262 LINE"
);
},
{
closed = 1;
nodes = (
"443 539 LINE SMOOTH",
"463 539 OFFCURVE",
"474 554 OFFCURVE",
"474 576 CURVE SMOOTH",
"474 589 OFFCURVE",
"469 602 OFFCURVE",
"465 608 CURVE",
"133 608 LINE",
"133 539 LINE"
);
},
{
closed = 1;
nodes = (
"89 31 LINE SMOOTH",
"89 7 OFFCURVE",
"104 -5 OFFCURVE",
"134 -5 CURVE SMOOTH",
"149 -5 OFFCURVE",
"164 -1 OFFCURVE",
"171 1 CURVE",
"171 356 LINE",
"89 356 LINE"
);
}
);
width = 517;
},
{
layerId = UUID1;
paths = (
{
closed = 1;
nodes = (
"238 597 LINE",
"223 601 OFFCURVE",
"190 606 OFFCURVE",
"158 606 CURVE SMOOTH",
"101 606 OFFCURVE",
"65 570 OFFCURVE",
"65 513 CURVE SMOOTH",
"65 250 LINE",
"238 250 LINE"
);
},
{
closed = 1;
nodes = (
"415 215 LINE SMOOTH",
"452 215 OFFCURVE",
"476 236 OFFCURVE",
"476 286 CURVE SMOOTH",
"476 314 OFFCURVE",
"466 338 OFFCURVE",
"457 353 CURVE",
"156 353 LINE",
"156 215 LINE"
);
},
{
closed = 1;
nodes = (
"448 466 LINE SMOOTH",
"485 466 OFFCURVE",
"509 488 OFFCURVE",
"509 538 CURVE SMOOTH",
"509 566 OFFCURVE",
"500 591 OFFCURVE",
"491 606 CURVE",
"158 606 LINE",
"158 466 LINE"
);
},
{
closed = 1;
nodes = (
"65 75 LINE SMOOTH",
"65 13 OFFCURVE",
"89 -8 OFFCURVE",
"159 -8 CURVE SMOOTH",
"191 -8 OFFCURVE",
"225 -3 OFFCURVE",
"240 1 CURVE",
"240 293 LINE",
"65 293 LINE"
);
}
);
width = 531;
}
);
rightKerningGroup = F;
unicode = 0046;
},
{
glyphname = G;
layers = (
{
layerId = UUID0;
paths = (
{
closed = 1;
nodes = (
"570 312 OFFCURVE",
"551 329 OFFCURVE",
"527 329 CURVE SMOOTH",
"360 329 LINE SMOOTH",
"340 329 OFFCURVE",
"329 315 OFFCURVE",
"329 293 CURVE SMOOTH",
"329 280 OFFCURVE",
"334 267 OFFCURVE",
"338 261 CURVE",
"489 261 LINE",
"489 77 LINE",
"465 65 OFFCURVE",
"419 56 OFFCURVE",
"371 56 CURVE SMOOTH",
"238 56 OFFCURVE",
"138 131 OFFCURVE",
"138 303 CURVE SMOOTH",
"138 467 OFFCURVE",
"235 552 OFFCURVE",
"362 552 CURVE SMOOTH",
"439 552 OFFCURVE",
"485 527 OFFCURVE",
"521 503 CURVE",
"536 510 OFFCURVE",
"548 524 OFFCURVE",
"548 542 CURVE SMOOTH",
"548 580 OFFCURVE",
"470 621 OFFCURVE",
"357 621 CURVE SMOOTH",
"192 621 OFFCURVE",
"54 517 OFFCURVE",
"54 303 CURVE SMOOTH",
"54 87 OFFCURVE",
"183 -13 OFFCURVE",
"370 -13 CURVE SMOOTH",
"430 -13 OFFCURVE",
"495 0 OFFCURVE",
"528 17 CURVE SMOOTH",
"556 30 OFFCURVE",
"570 46 OFFCURVE",
"570 70 CURVE SMOOTH",
"570 287 LINE"
);
}
);
width = 639;
},
{
layerId = UUID1;
paths = (
{
closed = 1;
nodes = (
"614 343 OFFCURVE",
"591 366 OFFCURVE",
"551 366 CURVE SMOOTH",
"382 366 LINE SMOOTH",
"347 366 OFFCURVE",
"323 346 OFFCURVE",
"323 298 CURVE SMOOTH",
"323 271 OFFCURVE",
"332 246 OFFCURVE",
"340 231 CURVE",
"447 231 LINE",
"447 135 LINE",
"435 129 OFFCURVE",
"412 122 OFFCURVE",
"383 122 CURVE SMOOTH",
"285 122 OFFCURVE",
"215 182 OFFCURVE",
"215 303 CURVE SMOOTH",
"215 413 OFFCURVE",
"288 484 OFFCURVE",
"395 484 CURVE SMOOTH",
"460 484 OFFCURVE",
"512 461 OFFCURVE",
"545 441 CURVE",
"567 456 OFFCURVE",
"588 482 OFFCURVE",
"588 516 CURVE SMOOTH",
"588 581 OFFCURVE",
"508 625 OFFCURVE",
"382 625 CURVE SMOOTH",
"188 625 OFFCURVE",
"35 512 OFFCURVE",
"35 302 CURVE SMOOTH",
"35 77 OFFCURVE",
"188 -18 OFFCURVE",
"380 -18 CURVE SMOOTH",
"451 -18 OFFCURVE",
"531 0 OFFCURVE",
"568 22 CURVE SMOOTH",
"600 41 OFFCURVE",
"614 56 OFFCURVE",
"614 97 CURVE SMOOTH",
"614 303 LINE"
);
}
);
width = 664;
}
);
leftKerningGroup = O;
rightKerningGroup = G;
unicode = 0047;
},
{
glyphname = H;
layers = (
{
layerId = UUID0;
paths = (
{
closed = 1;
nodes = (
"89 32 LINE SMOOTH",
"89 6 OFFCURVE",
"103 -5 OFFCURVE",
"133 -5 CURVE SMOOTH",
"149 -5 OFFCURVE",
"163 -1 OFFCURVE",
"171 2 CURVE",
"171 362 LINE",
"89 362 LINE"
);
},
{
closed = 1;
nodes = (
"171 576 LINE SMOOTH",
"171 602 OFFCURVE",
"156 613 OFFCURVE",
"127 613 CURVE SMOOTH",
"111 613 OFFCURVE",
"96 609 OFFCURVE",
"89 606 CURVE",
"89 295 LINE",
"171 295 LINE"
);
},
{
closed = 1;
nodes = (
"483 32 LINE SMOOTH",
"483 6 OFFCURVE",
"497 -5 OFFCURVE",
"527 -5 CURVE SMOOTH",
"543 -5 OFFCURVE",
"557 -1 OFFCURVE",
"565 2 CURVE",
"565 362 LINE",
"483 362 LINE"
);
},
{
closed = 1;
nodes = (
"565 576 LINE SMOOTH",
"565 602 OFFCURVE",
"550 613 OFFCURVE",
"521 613 CURVE SMOOTH",
"505 613 OFFCURVE",
"490 609 OFFCURVE",
"483 606 CURVE",
"483 295 LINE",
"565 295 LINE"
);
},
{
closed = 1;
nodes = (
"526 342 LINE",
"138 342 LINE",
"138 274 LINE",
"526 274 LINE"
);
}
);
width = 654;
},
{
layerId = UUID1;
paths = (
{
closed = 1;
nodes = (
"65 75 LINE SMOOTH",
"65 13 OFFCURVE",
"89 -8 OFFCURVE",
"159 -8 CURVE SMOOTH",
"191 -8 OFFCURVE",
"225 -3 OFFCURVE",
"240 1 CURVE",
"240 442 LINE",
"65 442 LINE"
);
},
{
closed = 1;
nodes = (
"240 534 LINE SMOOTH",
"240 599 OFFCURVE",
"212 617 OFFCURVE",
"146 617 CURVE SMOOTH",
"116 617 OFFCURVE",
"81 611 OFFCURVE",
"65 608 CURVE",
"65 211 LINE",
"240 211 LINE"
);
},
{
closed = 1;
nodes = (
"432 75 LINE SMOOTH",
"432 13 OFFCURVE",
"456 -8 OFFCURVE",
"526 -8 CURVE SMOOTH",
"558 -8 OFFCURVE",
"592 -3 OFFCURVE",
"607 1 CURVE",
"607 442 LINE",
"432 442 LINE"
);
},
{
closed = 1;
nodes = (
"607 532 LINE SMOOTH",
"607 597 OFFCURVE",
"579 617 OFFCURVE",
"513 617 CURVE SMOOTH",
"483 617 OFFCURVE",
"448 611 OFFCURVE",
"432 608 CURVE",
"432 211 LINE",
"607 211 LINE"
);
},
{
closed = 1;
nodes = (
"533 372 LINE",
"140 372 LINE",
"140 234 LINE",
"533 234 LINE"
);
}
);
width = 672;
}
);
unicode = 0048;
},
{
glyphname = I;
layers = (
{
layerId = UUID0;
paths = (
{
closed = 1;
nodes = (
"90 32 LINE SMOOTH",
"90 6 OFFCURVE",
"104 -5 OFFCURVE",
"134 -5 CURVE SMOOTH",
"150 -5 OFFCURVE",
"164 -1 OFFCURVE",
"171 2 CURVE",
"171 363 LINE",
"90 363 LINE"
);
},
{
closed = 1;
nodes = (
"171 576 LINE SMOOTH",
"171 602 OFFCURVE",
"157 613 OFFCURVE",
"128 613 CURVE SMOOTH",
"112 613 OFFCURVE",
"97 609 OFFCURVE",
"90 606 CURVE",
"90 296 LINE",
"171 296 LINE"
);
}
);
width = 262;
},
{
layerId = UUID1;
paths = (
{
closed = 1;
nodes = (
"65 75 LINE SMOOTH",
"65 13 OFFCURVE",
"89 -8 OFFCURVE",
"159 -8 CURVE SMOOTH",
"191 -8 OFFCURVE",
"225 -3 OFFCURVE",
"240 1 CURVE",
"240 442 LINE",
"65 442 LINE"
);
},
{
closed = 1;
nodes = (
"240 534 LINE SMOOTH",
"240 599 OFFCURVE",
"212 617 OFFCURVE",
"146 617 CURVE SMOOTH",
"116 617 OFFCURVE",
"81 611 OFFCURVE",
"65 608 CURVE",
"65 211 LINE",
"240 211 LINE"
);
}
);
width = 305;
}
);
unicode = 0049;
},
{
glyphname = J;
layers = (
{
layerId = UUID0;
paths = (
{
closed = 1;
nodes = (
"215 152 LINE SMOOTH",
"215 85 OFFCURVE",
"182 58 OFFCURVE",
"122 58 CURVE SMOOTH",
"92 58 OFFCURVE",
"62 68 OFFCURVE",
"42 77 CURVE",
"35 70 OFFCURVE",
"25 56 OFFCURVE",
"25 38 CURVE SMOOTH",
"25 9 OFFCURVE",
"59 -11 OFFCURVE",
"134 -11 CURVE SMOOTH",
"220 -11 OFFCURVE",
"296 27 OFFCURVE",
"296 148 CURVE SMOOTH",
"296 289 LINE",
"215 289 LINE"
);
},
{
closed = 1;
nodes = (
"296 576 LINE SMOOTH",
"296 602 OFFCURVE",
"281 613 OFFCURVE",
"252 613 CURVE SMOOTH",
"237 613 OFFCURVE",
"222 609 OFFCURVE",
"215 606 CURVE",
"215 265 LINE",
"296 265 LINE"
);
}
);
width = 385;
},
{
layerId = UUID1;
paths = (
{
closed = 1;
nodes = (
"175 203 LINE SMOOTH",
"175 152 OFFCURVE",
"154 126 OFFCURVE",
"102 126 CURVE SMOOTH",
"81 126 OFFCURVE",
"65 128 OFFCURVE",
"40 133 CURVE",
"30 121 OFFCURVE",
"21 100 OFFCURVE",
"21 74 CURVE SMOOTH",
"21 7 OFFCURVE",
"78 -15 OFFCURVE",
"149 -15 CURVE SMOOTH",
"280 -15 OFFCURVE",
"350 62 OFFCURVE",
"350 180 CURVE SMOOTH",
"350 290 LINE",
"175 290 LINE"
);
},
{
closed = 1;
nodes = (
"350 534 LINE SMOOTH",
"350 599 OFFCURVE",
"322 617 OFFCURVE",
"256 617 CURVE SMOOTH",
"226 617 OFFCURVE",
"191 611 OFFCURVE",
"175 608 CURVE",
"175 213 LINE",
"350 213 LINE"
);
}
);
width = 412;
}
);
leftKerningGroup = J;
unicode = 004A;
},
{
glyphname = K;
layers = (
{
layerId = UUID0;
paths = (
{
closed = 1;
nodes = (
"426 26 LINE SMOOTH",
"444 8 OFFCURVE",
"461 -7 OFFCURVE",
"484 -7 CURVE SMOOTH",
"508 -7 OFFCURVE",
"525 11 OFFCURVE",
"527 40 CURVE",
"456 104 OFFCURVE",
"356 214 OFFCURVE",
"215 350 CURVE",
"152 310 LINE"
);
},
{
closed = 1;
nodes = (
"471 523 LINE SMOOTH",
"489 539 OFFCURVE",
"498 554 OFFCURVE",
"498 571 CURVE SMOOTH",
"498 592 OFFCURVE",
"481 611 OFFCURVE",
"446 612 CURVE",
"145 300 LINE",
"226 282 LINE"
);
},
{
closed = 1;
nodes = (
"89 31 LINE SMOOTH",
"89 5 OFFCURVE",
"103 -6 OFFCURVE",
"133 -6 CURVE SMOOTH",
"149 -6 OFFCURVE",
"163 -2 OFFCURVE",
"171 1 CURVE",
"171 367 LINE",
"89 367 LINE"
);
},
{
closed = 1;
nodes = (
"171 576 LINE SMOOTH",
"171 602 OFFCURVE",
"156 613 OFFCURVE",
"127 613 CURVE SMOOTH",
"111 613 OFFCURVE",
"96 609 OFFCURVE",
"89 606 CURVE",
"89 300 LINE",
"171 300 LINE"
);
}
);
width = 566;
},
{
layerId = UUID1;
paths = (
{
closed = 1;
nodes = (
"385 58 LINE SMOOTH",
"417 21 OFFCURVE",
"447 -11 OFFCURVE",
"502 -11 CURVE SMOOTH",
"552 -11 OFFCURVE",
"598 23 OFFCURVE",
"598 81 CURVE",
"549 134 OFFCURVE",
"461 226 OFFCURVE",
"359 340 CURVE",
"155 326 LINE"
);
},
{
closed = 1;
nodes = (
"520 425 LINE SMOOTH",
"559 464 OFFCURVE",
"575 491 OFFCURVE",
"575 526 CURVE SMOOTH",
"575 573 OFFCURVE",
"539 612 OFFCURVE",
"448 612 CURVE",
"131 248 LINE",
"360 265 LINE"
);
},
{
closed = 1;
nodes = (
"65 75 LINE SMOOTH",
"65 13 OFFCURVE",
"89 -8 OFFCURVE",
"159 -8 CURVE SMOOTH",
"191 -8 OFFCURVE",
"225 -3 OFFCURVE",
"240 1 CURVE",
"240 442 LINE",
"65 442 LINE"
);
},
{
closed = 1;
nodes = (
"240 534 LINE SMOOTH",
"240 599 OFFCURVE",
"212 617 OFFCURVE",
"146 617 CURVE SMOOTH",
"116 617 OFFCURVE",
"81 611 OFFCURVE",
"65 608 CURVE",
"65 211 LINE",
"240 211 LINE"
);
}
);
width = 615;
}
);
rightKerningGroup = K;
unicode = 004B;
},
{
glyphname = L;
layers = (
{
layerId = UUID0;
paths = (
{
closed = 1;
nodes = (
"89 44 LINE SMOOTH",
"89 18 OFFCURVE",
"108 0 OFFCURVE",
"133 0 CURVE",
"171 8 LINE",
"171 355 LINE",
"89 355 LINE"
);
},
{
closed = 1;
nodes = (
"436 0 LINE SMOOTH",
"456 0 OFFCURVE",
"469 14 OFFCURVE",
"469 37 CURVE SMOOTH",
"469 51 OFFCURVE",
"464 64 OFFCURVE",
"458 70 CURVE",
"133 70 LINE",
"133 0 LINE"
);
},
{
closed = 1;
nodes = (
"171 576 LINE SMOOTH",
"171 602 OFFCURVE",
"156 613 OFFCURVE",
"127 613 CURVE SMOOTH",
"111 613 OFFCURVE",
"96 609 OFFCURVE",
"89 606 CURVE",
"89 295 LINE",
"171 295 LINE"
);
}
);
width = 501;
},
{
layerId = UUID1;
paths = (
{
closed = 1;
nodes = (
"65 90 LINE SMOOTH",
"65 33 OFFCURVE",
"101 -3 OFFCURVE",
"158 -3 CURVE",
"240 6 LINE",
"240 442 LINE",
"65 442 LINE"
);
},
{
closed = 1;
nodes = (
"428 -3 LINE SMOOTH",
"465 -3 OFFCURVE",
"488 21 OFFCURVE",
"488 70 CURVE SMOOTH",
"488 98 OFFCURVE",
"478 123 OFFCURVE",
"469 138 CURVE",
"158 138 LINE",
"158 -3 LINE"
);
},
{
closed = 1;
nodes = (
"240 534 LINE SMOOTH",
"240 599 OFFCURVE",
"212 617 OFFCURVE",
"146 617 CURVE SMOOTH",
"116 617 OFFCURVE",
"81 611 OFFCURVE",
"65 608 CURVE",
"65 211 LINE",
"240 211 LINE"
);
}
);
width = 513;
}
);
rightKerningGroup = L;
unicode = 004C;
},
{
glyphname = M;
layers = (
{
layerId = UUID0;
paths = (
{
closed = 1;
nodes = (
"514 340 OFFCURVE",
"563 449 OFFCURVE",
"592 523 CURVE",
"596 523 LINE",
"601 423 OFFCURVE",
"612 223 OFFCURVE",
"624 29 CURVE SMOOTH",
"626 2 OFFCURVE",
"644 -6 OFFCURVE",
"664 -6 CURVE SMOOTH",
"681 -6 OFFCURVE",
"694 -2 OFFCURVE",
"706 6 CURVE",
"700 117 OFFCURVE",
"674 509 OFFCURVE",
"657 579 CURVE SMOOTH",
"652 601 OFFCURVE",
"634 611 OFFCURVE",
"603 611 CURVE SMOOTH",
"587 611 OFFCURVE",
"566 607 OFFCURVE",
"554 601 CURVE",
"514 509 OFFCURVE",
"451 371 OFFCURVE",
"393 230 CURVE",
"389 230 LINE",
"343 336 OFFCURVE",
"289 471 OFFCURVE",
"238 574 CURVE SMOOTH",
"226 599 OFFCURVE",
"205 611 OFFCURVE",
"174 611 CURVE SMOOTH",
"149 611 OFFCURVE",
"128 601 OFFCURVE",
"117 592 CURVE",
"100 405 OFFCURVE",
"79 70 OFFCURVE",
"79 29 CURVE SMOOTH",
"79 7 OFFCURVE",
"90 -6 OFFCURVE",
"119 -6 CURVE SMOOTH",
"134 -6 OFFCURVE",
"147 -3 OFFCURVE",
"155 0 CURVE",
"167 193 OFFCURVE",
"176 324 OFFCURVE",
"185 525 CURVE",
"189 525 LINE",
"221 444 OFFCURVE",
"274 315 OFFCURVE",
"345 166 CURVE SMOOTH",
"352 151 OFFCURVE",
"370 145 OFFCURVE",
"391 145 CURVE SMOOTH",
"410 145 OFFCURVE",
"426 151 OFFCURVE",
"435 158 CURVE"
);
}
);
width = 780;
},
{
layerId = UUID1;
paths = (
{
closed = 1;
nodes = (
"520 272 OFFCURVE",
"546 346 OFFCURVE",
"559 398 CURVE",
"564 398 LINE",
"568 320 OFFCURVE",
"568 201 OFFCURVE",
"576 56 CURVE SMOOTH",
"579 5 OFFCURVE",
"618 -8 OFFCURVE",
"668 -8 CURVE SMOOTH",
"707 -8 OFFCURVE",
"728 -2 OFFCURVE",
"751 11 CURVE",
"746 109 OFFCURVE",
"717 473 OFFCURVE",
"702 554 CURVE SMOOTH",
"695 590 OFFCURVE",
"651 610 OFFCURVE",
"586 610 CURVE SMOOTH",
"548 610 OFFCURVE",
"515 601 OFFCURVE",
"495 591 CURVE",
"469 521 OFFCURVE",
"435 408 OFFCURVE",
"403 297 CURVE",
"398 297 LINE",
"376 367 OFFCURVE",
"343 476 OFFCURVE",
"319 540 CURVE SMOOTH",
"301 589 OFFCURVE",
"262 610 OFFCURVE",
"192 610 CURVE SMOOTH",
"127 610 OFFCURVE",
"92 584 OFFCURVE",
"81 567 CURVE",
"71 397 OFFCURVE",
"52 140 OFFCURVE",
"52 57 CURVE SMOOTH",
"52 8 OFFCURVE",
"87 -8 OFFCURVE",
"145 -8 CURVE SMOOTH",
"173 -8 OFFCURVE",
"204 -2 OFFCURVE",
"221 4 CURVE",
"229 155 OFFCURVE",
"226 246 OFFCURVE",
"234 403 CURVE",
"239 403 LINE",
"252 348 OFFCURVE",
"276 283 OFFCURVE",
"313 165 CURVE SMOOTH",
"322 136 OFFCURVE",
"355 125 OFFCURVE",
"403 125 CURVE SMOOTH",
"439 125 OFFCURVE",
"467 135 OFFCURVE",
"484 149 CURVE"
);
}
);
width = 797;
}
);
leftKerningGroup = M;
rightKerningGroup = M;
unicode = 004D;
},
{
glyphname = N;
layers = (
{
layerId = UUID0;
paths = (
{
closed = 1;
nodes = (
"89 31 LINE SMOOTH",
"89 6 OFFCURVE",
"103 -5 OFFCURVE",
"133 -5 CURVE SMOOTH",
"148 -5 OFFCURVE",
"163 -1 OFFCURVE",
"170 2 CURVE",
"170 301 LINE SMOOTH",
"170 381 OFFCURVE",
"165 482 OFFCURVE",
"157 545 CURVE",
"89 539 LINE"
);
},
{
closed = 1;
nodes = (
"571 577 LINE SMOOTH",
"571 602 OFFCURVE",
"556 613 OFFCURVE",
"527 613 CURVE SMOOTH",
"511 613 OFFCURVE",
"497 609 OFFCURVE",
"489 606 CURVE",
"489 404 LINE SMOOTH",
"489 295 OFFCURVE",
"489 175 OFFCURVE",
"502 63 CURVE",
"571 69 LINE"
);
},
{
closed = 1;
nodes = (
"496 80 LINE",
"478 118 OFFCURVE",
"438 195 OFFCURVE",
"406 250 CURVE SMOOTH",
"215 570 LINE SMOOTH",
"196 603 OFFCURVE",
"175 614 OFFCURVE",
"143 614 CURVE SMOOTH",
"120 614 OFFCURVE",
"100 607 OFFCURVE",
"89 596 CURVE",
"89 509 LINE",
"163 528 LINE",
"181 490 OFFCURVE",
"224 412 OFFCURVE",
"255 358 CURVE SMOOTH",
"445 38 LINE SMOOTH",
"464 5 OFFCURVE",
"485 -6 OFFCURVE",
"517 -6 CURVE SMOOTH",
"540 -6 OFFCURVE",
"559 1 OFFCURVE",
"571 11 CURVE",
"571 103 LINE",
"571 99 LINE"
);
}
);
width = 660;
},
{
layerId = UUID1;
paths = (
{
closed = 1;
nodes = (
"65 72 LINE SMOOTH",
"65 12 OFFCURVE",
"88 -8 OFFCURVE",
"155 -8 CURVE SMOOTH",
"186 -8 OFFCURVE",
"219 -3 OFFCURVE",
"233 0 CURVE",
"233 159 LINE SMOOTH",
"233 230 OFFCURVE",
"234 307 OFFCURVE",
"226 400 CURVE",
"65 400 LINE"
);
},
{
closed = 1;
nodes = (
"614 537 LINE SMOOTH",
"614 597 OFFCURVE",
"591 617 OFFCURVE",
"524 617 CURVE SMOOTH",
"493 617 OFFCURVE",
"460 612 OFFCURVE",
"446 609 CURVE",
"446 451 LINE SMOOTH",
"446 380 OFFCURVE",
"445 303 OFFCURVE",
"453 210 CURVE",
"614 210 LINE"
);
},
{
closed = 1;
nodes = (
"447 227 LINE",
"428 275 OFFCURVE",
"414 308 OFFCURVE",
"394 349 CURVE SMOOTH",
"294 551 LINE SMOOTH",
"267 606 OFFCURVE",
"219 615 OFFCURVE",
"170 615 CURVE SMOOTH",
"126 615 OFFCURVE",
"83 601 OFFCURVE",
"65 575 CURVE",
"65 343 LINE",
"234 380 LINE",
"253 332 OFFCURVE",
"267 299 OFFCURVE",
"287 258 CURVE SMOOTH",
"386 56 LINE SMOOTH",
"414 0 OFFCURVE",
"461 -8 OFFCURVE",
"510 -8 CURVE SMOOTH",
"559 -8 OFFCURVE",
"595 3 OFFCURVE",
"614 21 CURVE",
"614 390 LINE",
"614 264 LINE"
);
}
);
width = 679;
}
);
unicode = 004E;
},
{
glyphname = O;
layers = (
{
layerId = UUID0;
paths = (
{
closed = 1;
nodes = (
"634 511 OFFCURVE",
"507 621 OFFCURVE",
"344 621 CURVE SMOOTH",
"182 621 OFFCURVE",
"54 511 OFFCURVE",
"54 304 CURVE SMOOTH",
"54 96 OFFCURVE",
"179 -13 OFFCURVE",
"344 -13 CURVE SMOOTH",
"510 -13 OFFCURVE",
"634 96 OFFCURVE",
"634 304 CURVE"
);
},
{
closed = 1;
nodes = (
"551 145 OFFCURVE",
"470 56 OFFCURVE",
"344 56 CURVE SMOOTH",
"219 56 OFFCURVE",
"138 145 OFFCURVE",
"138 304 CURVE SMOOTH",
"138 463 OFFCURVE",
"220 552 OFFCURVE",
"344 552 CURVE SMOOTH",
"469 552 OFFCURVE",
"551 463 OFFCURVE",
"551 304 CURVE"
);
}
);
width = 689;
},
{
layerId = UUID1;
paths = (
{
closed = 1;
nodes = (
"668 512 OFFCURVE",
"529 625 OFFCURVE",
"351 625 CURVE SMOOTH",
"173 625 OFFCURVE",
"35 512 OFFCURVE",
"35 304 CURVE SMOOTH",
"35 96 OFFCURVE",
"169 -18 OFFCURVE",
"351 -18 CURVE SMOOTH",
"533 -18 OFFCURVE",
"668 95 OFFCURVE",
"668 304 CURVE"
);
},
{
closed = 1;
nodes = (
"488 183 OFFCURVE",
"434 123 OFFCURVE",
"352 123 CURVE SMOOTH",
"269 123 OFFCURVE",
"215 183 OFFCURVE",
"215 304 CURVE SMOOTH",
"215 424 OFFCURVE",
"270 484 OFFCURVE",
"351 484 CURVE SMOOTH",
"435 484 OFFCURVE",
"488 423 OFFCURVE",
"488 304 CURVE"
);
}
);
width = 703;
}
);
leftKerningGroup = O;
rightKerningGroup = O;
unicode = 004F;
},
{
glyphname = P;
layers = (
{
layerId = UUID0;
paths = (
{
closed = 1;
nodes = (
"272 217 LINE",
"439 217 OFFCURVE",
"517 297 OFFCURVE",
"517 421 CURVE SMOOTH",
"517 542 OFFCURVE",
"442 619 OFFCURVE",
"273 619 CURVE SMOOTH",
"221 619 OFFCURVE",
"161 614 OFFCURVE",
"122 602 CURVE SMOOTH",
"100 595 OFFCURVE",
"89 585 OFFCURVE",
"89 564 CURVE SMOOTH",
"89 217 LINE"
);
},
{
closed = 1;
nodes = (
"149 -5 OFFCURVE",
"163 -1 OFFCURVE",
"171 2 CURVE",
"171 256 LINE",
"89 256 LINE",
"89 32 LINE SMOOTH",
"89 6 OFFCURVE",
"103 -5 OFFCURVE",
"133 -5 CURVE SMOOTH"
);
},
{
closed = 1;
nodes = (
"170 542 LINE",
"198 547 OFFCURVE",
"235 551 OFFCURVE",
"271 551 CURVE SMOOTH",
"376 551 OFFCURVE",
"435 510 OFFCURVE",
"435 420 CURVE SMOOTH",
"435 329 OFFCURVE",
"373 285 OFFCURVE",
"267 285 CURVE SMOOTH",
"170 285 LINE"
);
}
);
width = 567;
},
{
layerId = UUID1;
paths = (
{
closed = 1;
nodes = (
"298 188 LINE",
"456 188 OFFCURVE",
"557 274 OFFCURVE",
"557 404 CURVE SMOOTH",
"557 538 OFFCURVE",
"456 623 OFFCURVE",
"273 623 CURVE SMOOTH",
"223 623 OFFCURVE",
"153 616 OFFCURVE",
"108 600 CURVE SMOOTH",
"82 591 OFFCURVE",
"65 577 OFFCURVE",
"65 549 CURVE SMOOTH",
"65 188 LINE"
);
},
{
closed = 1;
nodes = (
"191 -8 OFFCURVE",
"225 -3 OFFCURVE",
"240 1 CURVE",
"240 264 LINE",
"65 264 LINE",
"65 75 LINE SMOOTH",
"65 13 OFFCURVE",
"89 -8 OFFCURVE",
"159 -8 CURVE SMOOTH"
);
},
{
closed = 1;
nodes = (
"239 480 LINE",
"253 482 OFFCURVE",
"266 483 OFFCURVE",
"287 483 CURVE SMOOTH",
"347 483 OFFCURVE",
"379 454 OFFCURVE",
"379 404 CURVE SMOOTH",
"379 353 OFFCURVE",
"342 325 OFFCURVE",
"287 325 CURVE SMOOTH",
"239 325 LINE"
);
}
);
width = 581;
}
);
unicode = 0050;
},
{
glyphname = Q;
layers = (
{
layerId = UUID0;
paths = (
{
closed = 1;
nodes = (
"415 -58 LINE SMOOTH",
"502 -118 OFFCURVE",
"573 -158 OFFCURVE",
"616 -158 CURVE SMOOTH",
"644 -158 OFFCURVE",
"660 -141 OFFCURVE",
"660 -116 CURVE SMOOTH",
"660 -111 OFFCURVE",
"660 -105 OFFCURVE",
"658 -96 CURVE",
"583 -68 OFFCURVE",
"533 -48 OFFCURVE",
"407 24 CURVE",
"330 0 LINE"
);
},
{
closed = 1;
nodes = (
"634 511 OFFCURVE",
"507 621 OFFCURVE",
"344 621 CURVE SMOOTH",
"182 621 OFFCURVE",
"54 511 OFFCURVE",
"54 304 CURVE SMOOTH",
"54 96 OFFCURVE",
"179 -13 OFFCURVE",
"344 -13 CURVE SMOOTH",
"510 -13 OFFCURVE",
"634 96 OFFCURVE",
"634 304 CURVE"
);
},
{
closed = 1;
nodes = (
"551 145 OFFCURVE",
"470 56 OFFCURVE",
"344 56 CURVE SMOOTH",
"219 56 OFFCURVE",
"138 145 OFFCURVE",
"138 304 CURVE SMOOTH",
"138 463 OFFCURVE",
"220 552 OFFCURVE",
"344 552 CURVE SMOOTH",
"469 552 OFFCURVE",
"551 463 OFFCURVE",
"551 304 CURVE"
);
}
);
width = 690;
},
{
layerId = UUID1;
paths = (
{
closed = 1;
nodes = (
"403 -59 LINE SMOOTH",
"471 -123 OFFCURVE",
"537 -158 OFFCURVE",
"598 -158 CURVE SMOOTH",
"662 -158 OFFCURVE",
"705 -125 OFFCURVE",
"705 -49 CURVE SMOOTH",
"705 -44 OFFCURVE",
"705 -38 OFFCURVE",
"704 -30 CURVE",
"647 -13 OFFCURVE",
"574 10 OFFCURVE",
"516 38 CURVE",
"334 6 LINE"
);
},
{
closed = 1;
nodes = (
"668 513 OFFCURVE",
"529 625 OFFCURVE",
"351 625 CURVE SMOOTH",
"173 625 OFFCURVE",
"35 513 OFFCURVE",
"35 305 CURVE SMOOTH",
"35 97 OFFCURVE",
"169 -16 OFFCURVE",
"351 -16 CURVE SMOOTH",
"533 -16 OFFCURVE",
"668 96 OFFCURVE",
"668 305 CURVE"
);
},
{
closed = 1;
nodes = (
"488 184 OFFCURVE",
"434 125 OFFCURVE",
"352 125 CURVE SMOOTH",
"269 125 OFFCURVE",
"215 184 OFFCURVE",
"215 305 CURVE SMOOTH",
"215 425 OFFCURVE",
"270 484 OFFCURVE",
"351 484 CURVE SMOOTH",
"435 484 OFFCURVE",
"488 424 OFFCURVE",
"488 305 CURVE"
);
}
);
width = 705;
}
);
leftKerningGroup = O;
rightKerningGroup = O;
unicode = 0051;
},
{
glyphname = R;
layers = (
{
layerId = UUID0;
paths = (
{
closed = 1;
nodes = (
"170 542 LINE",
"198 547 OFFCURVE",
"237 551 OFFCURVE",
"273 551 CURVE SMOOTH",
"382 551 OFFCURVE",
"443 508 OFFCURVE",
"443 425 CURVE SMOOTH",
"443 341 OFFCURVE",
"383 298 OFFCURVE",
"285 298 CURVE SMOOTH",
"170 298 LINE"
);
},
{
closed = 1;
nodes = (
"444 230 OFFCURVE",
"525 307 OFFCURVE",
"525 425 CURVE SMOOTH",
"525 548 OFFCURVE",
"443 619 OFFCURVE",
"276 619 CURVE SMOOTH",
"223 619 OFFCURVE",
"161 614 OFFCURVE",
"122 602 CURVE SMOOTH",
"100 595 OFFCURVE",
"89 585 OFFCURVE",
"89 564 CURVE SMOOTH",
"89 230 LINE",
"285 230 LINE"
);
},
{
closed = 1;
nodes = (
"451 26 LINE SMOOTH",
"467 4 OFFCURVE",
"479 -7 OFFCURVE",
"502 -7 CURVE SMOOTH",
"521 -7 OFFCURVE",
"542 7 OFFCURVE",
"547 30 CURVE",
"515 73 OFFCURVE",
"422 192 OFFCURVE",
"347 286 CURVE",
"287 256 LINE"
);
},
{
closed = 1;
nodes = (
"89 32 LINE SMOOTH",
"89 6 OFFCURVE",
"103 -5 OFFCURVE",
"133 -5 CURVE SMOOTH",
"149 -5 OFFCURVE",
"163 -1 OFFCURVE",
"171 2 CURVE",
"171 252 LINE",
"89 252 LINE"
);
}
);
width = 589;
},
{
layerId = UUID1;
paths = (
{
closed = 1;
nodes = (
"238 479 LINE",
"252 481 OFFCURVE",
"264 483 OFFCURVE",
"282 483 CURVE SMOOTH",
"352 483 OFFCURVE",
"384 456 OFFCURVE",
"384 406 CURVE SMOOTH",
"384 355 OFFCURVE",
"344 329 OFFCURVE",
"288 329 CURVE SMOOTH",
"238 329 LINE"
);
},
{
closed = 1;
nodes = (
"447 196 OFFCURVE",
"561 286 OFFCURVE",
"561 408 CURVE SMOOTH",
"561 539 OFFCURVE",
"467 623 OFFCURVE",
"283 623 CURVE SMOOTH",
"215 623 OFFCURVE",
"153 616 OFFCURVE",
"108 600 CURVE SMOOTH",
"82 591 OFFCURVE",
"65 577 OFFCURVE",
"65 549 CURVE SMOOTH",
"65 196 LINE",
"306 196 LINE"
);
},
{
closed = 1;
nodes = (
"378 59 LINE SMOOTH",
"403 18 OFFCURVE",
"427 -10 OFFCURVE",
"485 -10 CURVE SMOOTH",
"529 -10 OFFCURVE",
"568 16 OFFCURVE",
"581 62 CURVE",
"554 108 OFFCURVE",
"487 187 OFFCURVE",
"428 267 CURVE",
"269 235 LINE"
);
},
{
closed = 1;
nodes = (
"65 75 LINE SMOOTH",
"65 13 OFFCURVE",
"89 -8 OFFCURVE",
"159 -8 CURVE SMOOTH",
"191 -8 OFFCURVE",
"225 -3 OFFCURVE",
"240 1 CURVE",
"240 264 LINE",
"65 264 LINE"
);
}
);
width = 609;
}
);
rightKerningGroup = R;
unicode = 0052;
},
{
glyphname = S;
layers = (
{
layerId = UUID0;
paths = (
{
closed = 1;
nodes = (
"175 55 OFFCURVE",
"119 91 OFFCURVE",
"89 120 CURVE",
"70 113 OFFCURVE",
"54 97 OFFCURVE",
"54 75 CURVE SMOOTH",
"54 35 OFFCURVE",
"135 -13 OFFCURVE",
"257 -13 CURVE SMOOTH",
"396 -13 OFFCURVE",
"476 59 OFFCURVE",
"476 164 CURVE SMOOTH",
"476 262 OFFCURVE",
"411 314 OFFCURVE",
"306 344 CURVE",
"245 362 LINE",
"171 383 OFFCURVE",
"141 410 OFFCURVE",
"141 457 CURVE SMOOTH",
"141 516 OFFCURVE",
"189 552 OFFCURVE",
"267 552 CURVE SMOOTH",
"334 552 OFFCURVE",
"393 529 OFFCURVE",
"427 502 CURVE",
"441 510 OFFCURVE",
"452 524 OFFCURVE",
"452 542 CURVE SMOOTH",
"452 582 OFFCURVE",
"372 621 OFFCURVE",
"264 621 CURVE SMOOTH",
"140 621 OFFCURVE",
"59 559 OFFCURVE",
"59 457 CURVE SMOOTH",
"59 374 OFFCURVE",
"111 326 OFFCURVE",
"196 301 CURVE",
"283 275 LINE SMOOTH",
"359 253 OFFCURVE",
"393 219 OFFCURVE",
"393 164 CURVE SMOOTH",
"393 100 OFFCURVE",
"346 55 OFFCURVE",
"257 55 CURVE"
);
}
);
width = 523;
},
{
layerId = UUID1;
paths = (
{
closed = 1;
nodes = (
"187 124 OFFCURVE",
"131 149 OFFCURVE",
"94 178 CURVE",
"67 163 OFFCURVE",
"40 136 OFFCURVE",
"40 97 CURVE SMOOTH",
"40 22 OFFCURVE",
"135 -18 OFFCURVE",
"257 -18 CURVE SMOOTH",
"429 -18 OFFCURVE",
"521 61 OFFCURVE",
"521 174 CURVE SMOOTH",
"521 281 OFFCURVE",
"452 339 OFFCURVE",
"326 379 CURVE",
"273 396 LINE",
"239 407 OFFCURVE",
"221 418 OFFCURVE",
"221 438 CURVE SMOOTH",
"221 463 OFFCURVE",
"248 482 OFFCURVE",
"308 482 CURVE SMOOTH",
"366 482 OFFCURVE",
"419 466 OFFCURVE",
"448 447 CURVE",
"470 464 OFFCURVE",
"489 489 OFFCURVE",
"489 523 CURVE SMOOTH",
"489 593 OFFCURVE",
"405 625 OFFCURVE",
"289 625 CURVE SMOOTH",
"132 625 OFFCURVE",
"40 551 OFFCURVE",
"40 438 CURVE SMOOTH",
"40 321 OFFCURVE",
"120 282 OFFCURVE",
"237 243 CURVE",
"279 229 LINE SMOOTH",
"318 216 OFFCURVE",
"340 203 OFFCURVE",
"340 176 CURVE SMOOTH",
"340 149 OFFCURVE",
"316 124 OFFCURVE",
"251 124 CURVE"
);
}
);
width = 551;
}
);
leftKerningGroup = S;
rightKerningGroup = S;
unicode = 0053;
},
{
glyphname = T;
layers = (
{
layerId = UUID0;
paths = (
{
closed = 1;
nodes = (
"467 539 LINE SMOOTH",
"487 539 OFFCURVE",
"498 554 OFFCURVE",
"498 576 CURVE SMOOTH",
"498 589 OFFCURVE",
"493 602 OFFCURVE",
"489 608 CURVE",
"256 608 LINE",
"261 539 LINE"
);
},
{
closed = 1;
nodes = (
"56 608 LINE SMOOTH",
"36 608 OFFCURVE",
"25 594 OFFCURVE",
"25 572 CURVE SMOOTH",
"25 558 OFFCURVE",
"30 546 OFFCURVE",
"34 539 CURVE",
"268 539 LINE",
"263 608 LINE"
);
},
{
closed = 1;
nodes = (
"221 32 LINE SMOOTH",
"221 6 OFFCURVE",
"235 -5 OFFCURVE",
"265 -5 CURVE SMOOTH",
"280 -5 OFFCURVE",
"295 -1 OFFCURVE",
"302 2 CURVE",
"302 566 LINE",
"221 566 LINE"
);
}
);
width = 523;
},
{
layerId = UUID1;
paths = (
{
closed = 1;
nodes = (
"475 466 LINE SMOOTH",
"512 466 OFFCURVE",
"536 488 OFFCURVE",
"536 538 CURVE SMOOTH",
"536 566 OFFCURVE",
"527 591 OFFCURVE",
"518 606 CURVE",
"185 606 LINE",
"185 466 LINE"
);
},
{
closed = 1;
nodes = (
"79 606 LINE SMOOTH",
"42 606 OFFCURVE",
"18 584 OFFCURVE",
"18 534 CURVE SMOOTH",
"18 506 OFFCURVE",
"27 481 OFFCURVE",
"36 466 CURVE",
"369 466 LINE",
"369 606 LINE"
);
},
{
closed = 1;
nodes = (
"187 75 LINE SMOOTH",
"187 13 OFFCURVE",
"211 -8 OFFCURVE",
"281 -8 CURVE SMOOTH",
"313 -8 OFFCURVE",
"347 -3 OFFCURVE",
"362 1 CURVE",
"362 493 LINE",
"187 493 LINE"
);
}
);
width = 556;
}
);
leftKerningGroup = T;
rightKerningGroup = T;
unicode = 0054;
},
{
glyphname = U;
layers = (
{
layerId = UUID0;
paths = (
{
closed = 1;
nodes = (
"476 -13 OFFCURVE",
"561 75 OFFCURVE",
"561 210 CURVE SMOOTH",
"561 292 LINE",
"479 292 LINE",
"479 217 LINE SMOOTH",
"479 110 OFFCURVE",
"412 56 OFFCURVE",
"324 56 CURVE SMOOTH",
"236 56 OFFCURVE",
"169 110 OFFCURVE",
"169 217 CURVE SMOOTH",
"169 292 LINE",
"88 292 LINE",
"88 210 LINE SMOOTH",
"88 75 OFFCURVE",
"173 -13 OFFCURVE",
"324 -13 CURVE"
);
},
{
closed = 1;
nodes = (
"169 576 LINE SMOOTH",
"169 602 OFFCURVE",
"155 613 OFFCURVE",
"126 613 CURVE SMOOTH",
"110 613 OFFCURVE",
"95 609 OFFCURVE",
"88 606 CURVE",
"88 251 LINE",
"169 251 LINE"
);
},
{
closed = 1;
nodes = (
"561 576 LINE SMOOTH",
"561 602 OFFCURVE",
"546 613 OFFCURVE",
"517 613 CURVE SMOOTH",
"501 613 OFFCURVE",
"486 609 OFFCURVE",
"479 606 CURVE",
"479 251 LINE",
"561 251 LINE"
);
}
);
width = 649;
},
{
layerId = UUID1;
paths = (
{
closed = 1;
nodes = (
"500 -18 OFFCURVE",
"602 77 OFFCURVE",
"602 222 CURVE SMOOTH",
"602 283 LINE",
"427 283 LINE",
"427 225 LINE SMOOTH",
"427 162 OFFCURVE",
"388 123 OFFCURVE",
"332 123 CURVE SMOOTH",
"276 123 OFFCURVE",
"237 162 OFFCURVE",
"237 225 CURVE SMOOTH",
"237 283 LINE",
"62 283 LINE",
"62 222 LINE SMOOTH",
"62 77 OFFCURVE",
"164 -18 OFFCURVE",
"332 -18 CURVE"
);
},
{
closed = 1;
nodes = (
"237 534 LINE SMOOTH",
"237 599 OFFCURVE",
"209 617 OFFCURVE",
"143 617 CURVE SMOOTH",
"113 617 OFFCURVE",
"78 611 OFFCURVE",
"62 608 CURVE",
"62 256 LINE",
"237 256 LINE"
);
},
{
closed = 1;
nodes = (
"602 534 LINE SMOOTH",
"602 599 OFFCURVE",
"574 617 OFFCURVE",
"508 617 CURVE SMOOTH",
"478 617 OFFCURVE",
"443 611 OFFCURVE",
"427 608 CURVE",
"427 254 LINE",
"602 254 LINE"
);
}
);
width = 664;
}
);
leftKerningGroup = U;
rightKerningGroup = U;
unicode = 0055;
},
{
glyphname = V;
layers = (
{
layerId = UUID0;
paths = (
{
closed = 1;
nodes = (
"397 106 OFFCURVE",
"547 517 OFFCURVE",
"547 578 CURVE SMOOTH",
"547 602 OFFCURVE",
"531 614 OFFCURVE",
"507 614 CURVE SMOOTH",
"494 614 OFFCURVE",
"482 612 OFFCURVE",
"473 607 CURVE",
"427 428 OFFCURVE",
"357 228 OFFCURVE",
"299 77 CURVE",
"295 77 LINE",
"230 244 OFFCURVE",
"178 404 OFFCURVE",
"119 578 CURVE SMOOTH",
"111 602 OFFCURVE",
"101 614 OFFCURVE",
"76 614 CURVE SMOOTH",
"56 614 OFFCURVE",
"39 603 OFFCURVE",
"31 592 CURVE",
"80 428 OFFCURVE",
"190 120 OFFCURVE",
"243 17 CURVE SMOOTH",
"250 2 OFFCURVE",
"272 -5 OFFCURVE",
"297 -5 CURVE SMOOTH",
"319 -5 OFFCURVE",
"340 2 OFFCURVE",
"347 8 CURVE"
);
}
);
width = 583;
},
{
layerId = UUID1;
paths = (
{
closed = 1;
nodes = (
"473 81 OFFCURVE",
"611 452 OFFCURVE",
"611 538 CURVE SMOOTH",
"611 589 OFFCURVE",
"571 609 OFFCURVE",
"522 609 CURVE SMOOTH",
"488 609 OFFCURVE",
"461 600 OFFCURVE",
"437 588 CURVE",
"402 442 OFFCURVE",
"363 286 OFFCURVE",
"327 162 CURVE",
"321 162 LINE",
"281 291 OFFCURVE",
"245 405 OFFCURVE",
"209 536 CURVE SMOOTH",
"194 591 OFFCURVE",
"163 609 OFFCURVE",
"114 609 CURVE SMOOTH",
"74 609 OFFCURVE",
"36 590 OFFCURVE",
"17 572 CURVE",
"60 397 OFFCURVE",
"161 130 OFFCURVE",
"207 37 CURVE SMOOTH",
"221 8 OFFCURVE",
"265 -10 OFFCURVE",
"320 -10 CURVE SMOOTH",
"366 -10 OFFCURVE",
"409 4 OFFCURVE",
"428 20 CURVE"
);
}
);
width = 634;
}
);
unicode = 0056;
},
{
glyphname = W;
layers = (
{
layerId = UUID0;
paths = (
{
closed = 1;
nodes = (
"302 274 OFFCURVE",
"275 191 OFFCURVE",
"237 70 CURVE",
"233 70 LINE",
"188 271 OFFCURVE",
"160 410 OFFCURVE",
"126 577 CURVE SMOOTH",
"121 603 OFFCURVE",
"108 614 OFFCURVE",
"84 614 CURVE SMOOTH",
"65 614 OFFCURVE",
"48 604 OFFCURVE",
"39 595 CURVE",
"67 429 OFFCURVE",
"142 107 OFFCURVE",
"176 23 CURVE SMOOTH",
"182 8 OFFCURVE",
"202 -3 OFFCURVE",
"232 -3 CURVE SMOOTH",
"256 -3 OFFCURVE",
"276 4 OFFCURVE",
"286 10 CURVE",
"318 84 OFFCURVE",
"367 245 OFFCURVE",
"406 377 CURVE",
"445 242 OFFCURVE",
"494 93 OFFCURVE",
"523 23 CURVE SMOOTH",
"529 7 OFFCURVE",
"551 -3 OFFCURVE",
"580 -3 CURVE SMOOTH",
"604 -3 OFFCURVE",
"623 4 OFFCURVE",
"635 11 CURVE",
"687 161 OFFCURVE",
"759 505 OFFCURVE",
"759 580 CURVE SMOOTH",
"759 602 OFFCURVE",
"743 614 OFFCURVE",
"718 614 CURVE SMOOTH",
"705 614 OFFCURVE",
"694 612 OFFCURVE",
"684 607 CURVE",
"655 408 OFFCURVE",
"619 250 OFFCURVE",
"581 70 CURVE",
"577 70 LINE",
"539 192 OFFCURVE",
"504 296 OFFCURVE",
"455 441 CURVE SMOOTH",
"449 458 OFFCURVE",
"431 467 OFFCURVE",
"404 467 CURVE SMOOTH",
"386 467 OFFCURVE",
"370 462 OFFCURVE",
"359 457 CURVE"
);
}
);
width = 803;
},
{
layerId = UUID1;
paths = (
{
closed = 1;
nodes = (
"318 321 OFFCURVE",
"298 258 OFFCURVE",
"275 151 CURVE",
"270 151 LINE",
"263 188 OFFCURVE",
"255 267 OFFCURVE",
"211 538 CURVE SMOOTH",
"203 590 OFFCURVE",
"168 610 OFFCURVE",
"118 610 CURVE SMOOTH",
"79 610 OFFCURVE",
"44 592 OFFCURVE",
"25 575 CURVE",
"42 409 OFFCURVE",
"105 114 OFFCURVE",
"139 40 CURVE SMOOTH",
"153 10 OFFCURVE",
"209 -8 OFFCURVE",
"268 -8 CURVE SMOOTH",
"316 -8 OFFCURVE",
"359 6 OFFCURVE",
"379 24 CURVE",
"395 81 OFFCURVE",
"417 170 OFFCURVE",
"435 256 CURVE",
"457 168 OFFCURVE",
"478 93 OFFCURVE",
"495 40 CURVE SMOOTH",
"504 10 OFFCURVE",
"552 -8 OFFCURVE",
"614 -8 CURVE SMOOTH",
"662 -8 OFFCURVE",
"713 6 OFFCURVE",
"733 24 CURVE",
"774 112 OFFCURVE",
"832 452 OFFCURVE",
"832 540 CURVE SMOOTH",
"832 591 OFFCURVE",
"790 610 OFFCURVE",
"741 610 CURVE SMOOTH",
"713 610 OFFCURVE",
"687 603 OFFCURVE",
"662 589 CURVE",
"645 444 OFFCURVE",
"632 314 OFFCURVE",
"609 151 CURVE",
"604 151 LINE",
"582 244 OFFCURVE",
"560 317 OFFCURVE",
"531 427 CURVE SMOOTH",
"523 459 OFFCURVE",
"483 476 OFFCURVE",
"427 476 CURVE SMOOTH",
"395 476 OFFCURVE",
"360 465 OFFCURVE",
"345 458 CURVE"
);
}
);
width = 863;
}
);
leftKerningGroup = W;
rightKerningGroup = W;
unicode = 0057;
},
{
glyphname = X;
layers = (
{
layerId = UUID0;
paths = (
{
closed = 1;
nodes = (
"449 27 LINE SMOOTH",
"465 3 OFFCURVE",
"477 -7 OFFCURVE",
"498 -7 CURVE SMOOTH",
"523 -7 OFFCURVE",
"538 9 OFFCURVE",
"544 32 CURVE",
"334 323 LINE",
"311 343 LINE",
"147 578 LINE SMOOTH",
"131 601 OFFCURVE",
"118 614 OFFCURVE",
"97 614 CURVE SMOOTH",
"71 614 OFFCURVE",
"55 596 OFFCURVE",
"49 574 CURVE",
"254 295 LINE",
"268 289 LINE"
);
},
{
closed = 1;
nodes = (
"398 380 OFFCURVE",
"459 458 OFFCURVE",
"516 535 CURVE SMOOTH",
"527 550 OFFCURVE",
"535 564 OFFCURVE",
"535 578 CURVE SMOOTH",
"535 598 OFFCURVE",
"521 613 OFFCURVE",
"493 613 CURVE SMOOTH",
"485 613 OFFCURVE",
"478 612 OFFCURVE",
"472 611 CURVE",
"282 348 LINE",
"255 323 LINE",
"68 78 LINE SMOOTH",
"55 60 OFFCURVE",
"45 46 OFFCURVE",
"45 29 CURVE SMOOTH",
"45 7 OFFCURVE",
"62 -7 OFFCURVE",
"89 -7 CURVE SMOOTH",
"96 -7 OFFCURVE",
"104 -6 OFFCURVE",
"109 -5 CURVE",
"314 281 LINE",
"336 301 LINE"
);
}
);
width = 591;
},
{
layerId = UUID1;
paths = (
{
closed = 1;
nodes = (
"381 56 LINE SMOOTH",
"411 9 OFFCURVE",
"436 -8 OFFCURVE",
"474 -8 CURVE SMOOTH",
"533 -8 OFFCURVE",
"570 23 OFFCURVE",
"580 72 CURVE",
"389 341 LINE",
"344 368 LINE",
"227 548 LINE SMOOTH",
"197 594 OFFCURVE",
"169 612 OFFCURVE",
"131 612 CURVE SMOOTH",
"72 612 OFFCURVE",
"36 569 OFFCURVE",
"23 532 CURVE",
"208 270 LINE",
"246 263 LINE"
);
},
{
closed = 1;
nodes = (
"424 317 OFFCURVE",
"468 374 OFFCURVE",
"514 431 CURVE SMOOTH",
"547 472 OFFCURVE",
"568 497 OFFCURVE",
"568 534 CURVE SMOOTH",
"568 577 OFFCURVE",
"531 610 OFFCURVE",
"472 610 CURVE SMOOTH",
"452 610 OFFCURVE",
"432 606 OFFCURVE",
"421 602 CURVE",
"287 401 LINE",
"208 340 LINE",
"77 173 LINE SMOOTH",
"47 134 OFFCURVE",
"29 110 OFFCURVE",
"29 72 CURVE SMOOTH",
"29 27 OFFCURVE",
"65 -8 OFFCURVE",
"140 -8 CURVE SMOOTH",
"149 -8 OFFCURVE",
"159 -7 OFFCURVE",
"169 -6 CURVE",
"325 230 LINE",
"376 260 LINE"
);
}
);
width = 601;
}
);
unicode = 0058;
},
{
glyphname = Y;
layers = (
{
layerId = UUID0;
paths = (
{
closed = 1;
nodes = (
"436 400 OFFCURVE",
"523 552 OFFCURVE",
"523 580 CURVE SMOOTH",
"523 601 OFFCURVE",
"510 614 OFFCURVE",
"485 614 CURVE SMOOTH",
"475 614 OFFCURVE",
"462 612 OFFCURVE",
"454 607 CURVE",
"401 507 OFFCURVE",
"350 410 OFFCURVE",
"281 295 CURVE",
"277 295 LINE",
"238 360 OFFCURVE",
"159 499 OFFCURVE",
"116 574 CURVE",
"101 601 OFFCURVE",
"90 614 OFFCURVE",
"65 614 CURVE SMOOTH",
"41 614 OFFCURVE",
"26 597 OFFCURVE",
"21 582 CURVE",
"76 474 OFFCURVE",
"168 329 OFFCURVE",
"243 218 CURVE",
"314 218 LINE"
);
},
{
closed = 1;
nodes = (
"238 32 LINE SMOOTH",
"238 6 OFFCURVE",
"252 -5 OFFCURVE",
"282 -5 CURVE SMOOTH",
"297 -5 OFFCURVE",
"312 -1 OFFCURVE",
"319 2 CURVE",
"319 257 LINE",
"238 257 LINE"
);
}
);
width = 550;
},
{
layerId = UUID1;
paths = (
{
closed = 1;
nodes = (
"534 442 OFFCURVE",
"562 503 OFFCURVE",
"562 535 CURVE SMOOTH",
"562 584 OFFCURVE",
"524 609 OFFCURVE",
"478 609 CURVE SMOOTH",
"451 609 OFFCURVE",
"420 602 OFFCURVE",
"396 590 CURVE",
"358 495 OFFCURVE",
"337 439 OFFCURVE",
"300 356 CURVE",
"294 356 LINE",
"294 356 OFFCURVE",
"206 533 OFFCURVE",
"206 533 CURVE",
"177 592 OFFCURVE",
"148 609 OFFCURVE",
"96 609 CURVE SMOOTH",
"52 609 OFFCURVE",
"22 585 OFFCURVE",
"5 561 CURVE",
"45 460 OFFCURVE",
"153 287 OFFCURVE",
"220 188 CURVE",
"377 188 LINE"
);
},
{
closed = 1;
nodes = (
"212 73 LINE SMOOTH",
"212 13 OFFCURVE",
"235 -8 OFFCURVE",
"304 -8 CURVE SMOOTH",
"335 -8 OFFCURVE",
"368 -3 OFFCURVE",
"383 1 CURVE",
"383 248 LINE",
"212 248 LINE"
);
}
);
width = 574;
}
);
leftKerningGroup = Y;
rightKerningGroup = Y;
unicode = 0059;
},
{
glyphname = Z;
layers = (
{
layerId = UUID0;
paths = (
{
closed = 1;
nodes = (
"58 70 OFFCURVE",
"50 57 OFFCURVE",
"50 38 CURVE SMOOTH",
"50 23 OFFCURVE",
"58 9 OFFCURVE",
"69 0 CURVE",
"102 0 LINE",
"481 520 LINE SMOOTH",
"494 539 OFFCURVE",
"502 551 OFFCURVE",
"502 570 CURVE SMOOTH",
"502 585 OFFCURVE",
"494 599 OFFCURVE",
"483 608 CURVE",
"451 608 LINE",
"71 88 LINE"
);
},
{
closed = 1;
nodes = (
"478 0 LINE SMOOTH",
"497 0 OFFCURVE",
"509 14 OFFCURVE",
"509 36 CURVE SMOOTH",
"509 50 OFFCURVE",
"504 62 OFFCURVE",
"499 69 CURVE",
"93 69 LINE",
"90 0 LINE"
);
},
{
closed = 1;
nodes = (
"89 608 LINE SMOOTH",
"69 608 OFFCURVE",
"57 594 OFFCURVE",
"57 572 CURVE SMOOTH",
"57 558 OFFCURVE",
"63 546 OFFCURVE",
"67 539 CURVE",
"462 539 LINE",
"464 608 LINE"
);
}
);
width = 557;
},
{
layerId = UUID1;
paths = (
{
closed = 1;
nodes = (
"54 163 OFFCURVE",
"34 126 OFFCURVE",
"34 93 CURVE SMOOTH",
"34 52 OFFCURVE",
"50 19 OFFCURVE",
"73 0 CURVE",
"134 0 LINE",
"482 417 LINE SMOOTH",
"506 446 OFFCURVE",
"523 480 OFFCURVE",
"523 513 CURVE SMOOTH",
"523 554 OFFCURVE",
"508 585 OFFCURVE",
"479 609 CURVE",
"429 609 LINE",
"78 192 LINE"
);
},
{
closed = 1;
nodes = (
"468 0 LINE SMOOTH",
"506 0 OFFCURVE",
"530 22 OFFCURVE",
"530 73 CURVE SMOOTH",
"530 102 OFFCURVE",
"520 127 OFFCURVE",
"511 143 CURVE",
"185 143 LINE",
"93 0 LINE"
);
},
{
closed = 1;
nodes = (
"106 609 LINE SMOOTH",
"67 609 OFFCURVE",
"43 586 OFFCURVE",
"43 535 CURVE SMOOTH",
"43 506 OFFCURVE",
"52 482 OFFCURVE",
"62 466 CURVE",
"374 466 LINE",
"447 609 LINE"
);
}
);
width = 560;
}
);
leftKerningGroup = Z;
rightKerningGroup = Z;
unicode = 005A;
},
{
glyphname = bracketleft;
layers = (
{
layerId = UUID0;
paths = (
{
closed = 1;
nodes = (
"142 -60 LINE",
"142 597 LINE",
"69 597 LINE",
"69 -60 LINE"
);
},
{
closed = 1;
nodes = (
"69 -69 LINE SMOOTH",
"69 -94 OFFCURVE",
"83 -110 OFFCURVE",
"110 -110 CURVE SMOOTH",
"224 -110 LINE SMOOTH",
"246 -110 OFFCURVE",
"258 -98 OFFCURVE",
"258 -77 CURVE SMOOTH",
"258 -64 OFFCURVE",
"255 -55 OFFCURVE",
"252 -46 CURVE",
"69 -46 LINE"
);
},
{
closed = 1;
nodes = (
"83 651 OFFCURVE",
"69 636 OFFCURVE",
"69 611 CURVE SMOOTH",
"69 588 LINE",
"224 588 LINE SMOOTH",
"246 588 OFFCURVE",
"258 599 OFFCURVE",
"258 621 CURVE SMOOTH",
"258 634 OFFCURVE",
"255 643 OFFCURVE",
"252 651 CURVE",
"110 651 LINE"
);
}
);
width = 268;
},
{
layerId = UUID1;
paths = (
{
closed = 1;
nodes = (
"204 -34 LINE",
"204 553 LINE",
"46 553 LINE",
"46 -34 LINE"
);
},
{
closed = 1;
nodes = (
"46 -55 LINE SMOOTH",
"46 -95 OFFCURVE",
"69 -131 OFFCURVE",
"122 -131 CURVE SMOOTH",
"242 -131 LINE SMOOTH",
"275 -131 OFFCURVE",
"298 -112 OFFCURVE",
"298 -66 CURVE SMOOTH",
"298 -42 OFFCURVE",
"290 -18 OFFCURVE",
"281 -5 CURVE",
"46 -5 LINE"
);
},
{
closed = 1;
nodes = (
"69 658 OFFCURVE",
"46 622 OFFCURVE",
"46 582 CURVE SMOOTH",
"46 532 LINE",
"242 532 LINE SMOOTH",
"275 532 OFFCURVE",
"298 551 OFFCURVE",
"298 597 CURVE SMOOTH",
"298 621 OFFCURVE",
"290 645 OFFCURVE",
"281 658 CURVE",
"122 658 LINE"
);
}
);
width = 303;
}
);
rightKerningGroup = parenleft;
unicode = 005B;
},
{
glyphname = backslash;
layers = (
{
layerId = UUID0;
paths = (
{
closed = 1;
nodes = (
"105 658 OFFCURVE",
"92 665 OFFCURVE",
"75 665 CURVE SMOOTH",
"60 665 OFFCURVE",
"43 658 OFFCURVE",
"33 647 CURVE",
"223 -38 LINE SMOOTH",
"228 -57 OFFCURVE",
"240 -64 OFFCURVE",
"258 -64 CURVE SMOOTH",
"272 -64 OFFCURVE",
"290 -55 OFFCURVE",
"300 -46 CURVE",
"110 639 LINE"
);
}
);
width = 341;
},
{
layerId = UUID1;
paths = (
{
closed = 1;
nodes = (
"161 657 OFFCURVE",
"133 670 OFFCURVE",
"97 670 CURVE SMOOTH",
"66 670 OFFCURVE",
"29 653 OFFCURVE",
"10 633 CURVE",
"184 -3 LINE SMOOTH",
"195 -44 OFFCURVE",
"223 -57 OFFCURVE",
"259 -57 CURVE SMOOTH",
"289 -57 OFFCURVE",
"327 -40 OFFCURVE",
"346 -20 CURVE",
"172 616 LINE"
);
}
);
width = 360;
}
);
unicode = 005C;
},
{
glyphname = bracketright;
layers = (
{
layerId = UUID0;
paths = (
{
closed = 1;
nodes = (
"126 602 LINE",
"126 -56 LINE",
"199 -56 LINE",
"199 602 LINE"
);
},
{
closed = 1;
nodes = (
"199 611 LINE SMOOTH",
"199 636 OFFCURVE",
"185 651 OFFCURVE",
"158 651 CURVE SMOOTH",
"45 651 LINE SMOOTH",
"22 651 OFFCURVE",
"10 640 OFFCURVE",
"10 618 CURVE SMOOTH",
"10 606 OFFCURVE",
"13 596 OFFCURVE",
"16 588 CURVE",
"199 588 LINE"
);
},
{
closed = 1;
nodes = (
"185 -110 OFFCURVE",
"199 -94 OFFCURVE",
"199 -69 CURVE SMOOTH",
"199 -46 LINE",
"45 -46 LINE SMOOTH",
"22 -46 OFFCURVE",
"10 -58 OFFCURVE",
"10 -80 CURVE SMOOTH",
"10 -92 OFFCURVE",
"13 -102 OFFCURVE",
"16 -110 CURVE",
"158 -110 LINE"
);
}
);
width = 269;
},
{
layerId = UUID1;
paths = (
{
closed = 1;
nodes = (
"99 566 LINE",
"99 -26 LINE",
"257 -26 LINE",
"257 566 LINE"
);
},
{
closed = 1;
nodes = (
"257 582 LINE SMOOTH",
"257 622 OFFCURVE",
"234 658 OFFCURVE",
"181 658 CURVE SMOOTH",
"61 658 LINE SMOOTH",
"28 658 OFFCURVE",
"5 639 OFFCURVE",
"5 593 CURVE SMOOTH",
"5 569 OFFCURVE",
"13 545 OFFCURVE",
"22 532 CURVE",
"257 532 LINE"
);
},
{
closed = 1;
nodes = (
"234 -131 OFFCURVE",
"257 -95 OFFCURVE",
"257 -55 CURVE SMOOTH",
"257 -5 LINE",
"61 -5 LINE SMOOTH",
"28 -5 OFFCURVE",
"5 -24 OFFCURVE",
"5 -70 CURVE SMOOTH",
"5 -94 OFFCURVE",
"13 -118 OFFCURVE",
"22 -131 CURVE",
"181 -131 LINE"
);
}
);
width = 317;
}
);
leftKerningGroup = parenright;
unicode = 005D;
},
{
glyphname = asciicircum;
layers = (
{
layerId = UUID0;
paths = (
{
closed = 1;
nodes = (
"176 618 OFFCURVE",
"54 382 OFFCURVE",
"54 353 CURVE SMOOTH",
"54 331 OFFCURVE",
"70 323 OFFCURVE",
"88 323 CURVE SMOOTH",
"102 323 OFFCURVE",
"114 327 OFFCURVE",
"123 332 CURVE",
"151 416 OFFCURVE",
"215 549 OFFCURVE",
"225 573 CURVE",
"232 573 LINE",
"329 357 LINE SMOOTH",
"339 331 OFFCURVE",
"351 324 OFFCURVE",
"372 324 CURVE SMOOTH",
"388 324 OFFCURVE",
"402 333 OFFCURVE",
"409 343 CURVE",
"379 424 OFFCURVE",
"304 574 OFFCURVE",
"267 641 CURVE SMOOTH",
"262 651 OFFCURVE",
"248 655 OFFCURVE",
"230 655 CURVE SMOOTH",
"215 655 OFFCURVE",
"201 651 OFFCURVE",
"194 646 CURVE"
);
}
);
width = 463;
},
{
layerId = UUID1;
paths = (
{
closed = 1;
nodes = (
"108 574 OFFCURVE",
"35 418 OFFCURVE",
"35 369 CURVE SMOOTH",
"35 326 OFFCURVE",
"66 310 OFFCURVE",
"106 310 CURVE SMOOTH",
"129 310 OFFCURVE",
"157 315 OFFCURVE",
"177 327 CURVE",
"191 392 OFFCURVE",
"213 467 OFFCURVE",
"236 528 CURVE",
"240 528 LINE",
"296 371 LINE SMOOTH",
"313 324 OFFCURVE",
"334 310 OFFCURVE",
"375 310 CURVE SMOOTH",
"407 310 OFFCURVE",
"437 327 OFFCURVE",
"453 343 CURVE",
"432 428 OFFCURVE",
"367 585 OFFCURVE",
"336 628 CURVE SMOOTH",
"322 652 OFFCURVE",
"288 666 OFFCURVE",
"243 666 CURVE SMOOTH",
"203 666 OFFCURVE",
"169 655 OFFCURVE",
"153 642 CURVE"
);
}
);
width = 488;
}
);
unicode = 005E;
},
{
glyphname = underscore;
layers = (
{
layerId = UUID0;
paths = (
{
closed = 1;
nodes = (
"452 -123 OFFCURVE",
"465 -111 OFFCURVE",
"465 -89 CURVE SMOOTH",
"465 -77 OFFCURVE",
"461 -66 OFFCURVE",
"458 -58 CURVE",
"35 -58 LINE SMOOTH",
"12 -58 OFFCURVE",
"0 -70 OFFCURVE",
"0 -92 CURVE SMOOTH",
"0 -105 OFFCURVE",
"3 -115 OFFCURVE",
"6 -123 CURVE",
"430 -123 LINE"
);
}
);
width = 465;
},
{
layerId = UUID1;
paths = (
{
closed = 1;
nodes = (
"484 -188 OFFCURVE",
"509 -170 OFFCURVE",
"509 -121 CURVE SMOOTH",
"509 -94 OFFCURVE",
"500 -68 OFFCURVE",
"492 -54 CURVE",
"61 -54 LINE SMOOTH",
"25 -54 OFFCURVE",
"0 -75 OFFCURVE",
"0 -124 CURVE SMOOTH",
"0 -151 OFFCURVE",
"8 -174 OFFCURVE",
"17 -188 CURVE",
"448 -188 LINE"
);
}
);
width = 509;
}
);
unicode = 005F;
},
{
glyphname = grave;
layers = (
{
layerId = UUID0;
paths = (
{
closed = 1;
nodes = (
"163 524 OFFCURVE",
"172 518 OFFCURVE",
"187 518 CURVE SMOOTH",
"205 518 OFFCURVE",
"219 532 OFFCURVE",
"220 553 CURVE",
"130 666 LINE SMOOTH",
"121 677 OFFCURVE",
"110 683 OFFCURVE",
"95 683 CURVE SMOOTH",
"73 683 OFFCURVE",
"57 668 OFFCURVE",
"57 647 CURVE SMOOTH",
"57 644 OFFCURVE",
"58 639 OFFCURVE",
"59 634 CURVE",
"153 534 LINE"
);
}
);
width = 302;
},
{
layerId = UUID1;
paths = (
{
closed = 1;
nodes = (
"136 538 OFFCURVE",
"153 530 OFFCURVE",
"181 530 CURVE SMOOTH",
"213 530 OFFCURVE",
"246 552 OFFCURVE",
"252 599 CURVE",
"163 710 LINE SMOOTH",
"140 738 OFFCURVE",
"115 747 OFFCURVE",
"89 747 CURVE SMOOTH",
"48 747 OFFCURVE",
"16 718 OFFCURVE",
"16 669 CURVE SMOOTH",
"16 664 OFFCURVE",
"17 651 OFFCURVE",
"18 646 CURVE",
"116 556 LINE"
);
}
);
width = 302;
}
);
unicode = 0060;
},
{
glyphname = a;
layers = (
{
layerId = UUID0;
paths = (
{
closed = 1;
nodes = (
"307 -14 OFFCURVE",
"362 3 OFFCURVE",
"394 21 CURVE SMOOTH",
"416 34 OFFCURVE",
"428 47 OFFCURVE",
"428 76 CURVE SMOOTH",
"428 313 LINE SMOOTH",
"428 425 OFFCURVE",
"355 475 OFFCURVE",
"239 475 CURVE SMOOTH",
"185 475 OFFCURVE",
"137 464 OFFCURVE",
"101 446 CURVE SMOOTH",
"81 436 OFFCURVE",
"72 425 OFFCURVE",
"72 406 CURVE SMOOTH",
"72 392 OFFCURVE",
"82 379 OFFCURVE",
"93 370 CURVE",
"131 390 OFFCURVE",
"183 409 OFFCURVE",
"238 409 CURVE SMOOTH",
"306 409 OFFCURVE",
"349 379 OFFCURVE",
"349 313 CURVE SMOOTH",
"349 285 LINE",
"207 271 LINE SMOOTH",
"104 261 OFFCURVE",
"43 217 OFFCURVE",
"43 130 CURVE SMOOTH",
"43 37 OFFCURVE",
"115 -14 OFFCURVE",
"240 -14 CURVE SMOOTH"
);
},
{
closed = 1;
nodes = (
"162 52 OFFCURVE",
"123 81 OFFCURVE",
"123 131 CURVE SMOOTH",
"123 179 OFFCURVE",
"156 203 OFFCURVE",
"225 209 CURVE SMOOTH",
"349 222 LINE",
"349 77 LINE",
"333 66 OFFCURVE",
"296 52 OFFCURVE",
"240 52 CURVE SMOOTH"
);
}
);
width = 499;
},
{
layerId = UUID1;
paths = (
{
closed = 1;
nodes = (
"338 -16 OFFCURVE",
"400 -3 OFFCURVE",
"443 23 CURVE SMOOTH",
"469 39 OFFCURVE",
"492 59 OFFCURVE",
"492 94 CURVE SMOOTH",
"492 318 LINE SMOOTH",
"492 443 OFFCURVE",
"397 501 OFFCURVE",
"252 501 CURVE SMOOTH",
"205 501 OFFCURVE",
"148 495 OFFCURVE",
"109 480 CURVE SMOOTH",
"74 466 OFFCURVE",
"58 446 OFFCURVE",
"58 412 CURVE SMOOTH",
"58 385 OFFCURVE",
"72 358 OFFCURVE",
"89 346 CURVE",
"127 362 OFFCURVE",
"179 374 OFFCURVE",
"228 374 CURVE SMOOTH",
"292 374 OFFCURVE",
"327 358 OFFCURVE",
"327 320 CURVE SMOOTH",
"327 313 LINE",
"196 299 LINE SMOOTH",
"82 287 OFFCURVE",
"28 239 OFFCURVE",
"28 147 CURVE SMOOTH",
"28 37 OFFCURVE",
"120 -16 OFFCURVE",
"260 -16 CURVE SMOOTH"
);
},
{
closed = 1;
nodes = (
"211 108 OFFCURVE",
"192 126 OFFCURVE",
"192 153 CURVE SMOOTH",
"192 180 OFFCURVE",
"219 192 OFFCURVE",
"256 195 CURVE SMOOTH",
"328 201 LINE",
"328 121 LINE",
"315 113 OFFCURVE",
"283 108 OFFCURVE",
"260 108 CURVE SMOOTH"
);
}
);
width = 544;
}
);
leftKerningGroup = a;
rightKerningGroup = a;
unicode = 0061;
},
{
glyphname = b;
layers = (
{
layerId = UUID0;
paths = (
{
closed = 1;
nodes = (
"210 475 OFFCURVE",
"161 445 OFFCURVE",
"132 423 CURVE",
"147 358 LINE",
"173 384 OFFCURVE",
"216 409 OFFCURVE",
"269 409 CURVE SMOOTH",
"355 409 OFFCURVE",
"418 355 OFFCURVE",
"418 231 CURVE SMOOTH",
"418 108 OFFCURVE",
"357 53 OFFCURVE",
"267 53 CURVE SMOOTH",
"217 53 OFFCURVE",
"177 69 OFFCURVE",
"157 84 CURVE",
"157 417 LINE",
"77 417 LINE",
"77 84 LINE SMOOTH",
"77 56 OFFCURVE",
"86 43 OFFCURVE",
"114 25 CURVE SMOOTH",
"147 6 OFFCURVE",
"202 -13 OFFCURVE",
"267 -13 CURVE SMOOTH",
"404 -13 OFFCURVE",
"499 63 OFFCURVE",
"499 231 CURVE SMOOTH",
"499 397 OFFCURVE",
"405 475 OFFCURVE",
"281 475 CURVE"
);
},
{
closed = 1;
nodes = (
"157 619 LINE SMOOTH",
"157 644 OFFCURVE",
"143 655 OFFCURVE",
"115 655 CURVE SMOOTH",
"99 655 OFFCURVE",
"84 651 OFFCURVE",
"77 648 CURVE",
"77 401 LINE",
"157 401 LINE"
);
}
);
width = 549;
},
{
layerId = UUID1;
paths = (
{
closed = 1;
nodes = (
"271 501 OFFCURVE",
"227 486 OFFCURVE",
"197 470 CURVE",
"197 333 LINE",
"220 350 OFFCURVE",
"250 368 OFFCURVE",
"290 368 CURVE SMOOTH",
"348 368 OFFCURVE",
"385 330 OFFCURVE",
"385 245 CURVE SMOOTH",
"385 162 OFFCURVE",
"346 118 OFFCURVE",
"286 118 CURVE SMOOTH",
"258 118 OFFCURVE",
"238 125 OFFCURVE",
"223 133 CURVE",
"223 430 LINE",
"54 430 LINE",
"54 118 LINE SMOOTH",
"54 85 OFFCURVE",
"70 58 OFFCURVE",
"98 38 CURVE SMOOTH",
"140 8 OFFCURVE",
"200 -16 OFFCURVE",
"288 -16 CURVE SMOOTH",
"452 -16 OFFCURVE",
"559 78 OFFCURVE",
"559 245 CURVE SMOOTH",
"559 413 OFFCURVE",
"454 501 OFFCURVE",
"322 501 CURVE"
);
},
{
closed = 1;
nodes = (
"224 581 LINE SMOOTH",
"224 643 OFFCURVE",
"196 661 OFFCURVE",
"130 661 CURVE SMOOTH",
"98 661 OFFCURVE",
"69 656 OFFCURVE",
"54 652 CURVE",
"54 389 LINE",
"224 389 LINE"
);
}
);
width = 590;
}
);
rightKerningGroup = o;
unicode = 0062;
},
{
glyphname = c;
layers = (
{
layerId = UUID0;
paths = (
{
closed = 1;
nodes = (
"344 408 OFFCURVE",
"376 391 OFFCURVE",
"405 371 CURVE",
"419 377 OFFCURVE",
"430 390 OFFCURVE",
"430 406 CURVE SMOOTH",
"430 442 OFFCURVE",
"370 475 OFFCURVE",
"287 475 CURVE SMOOTH",
"156 475 OFFCURVE",
"49 392 OFFCURVE",
"49 230 CURVE SMOOTH",
"49 65 OFFCURVE",
"151 -13 OFFCURVE",
"289 -13 CURVE SMOOTH",
"372 -13 OFFCURVE",
"434 17 OFFCURVE",
"434 54 CURVE SMOOTH",
"434 71 OFFCURVE",
"423 83 OFFCURVE",
"409 91 CURVE",
"380 71 OFFCURVE",
"345 53 OFFCURVE",
"289 53 CURVE SMOOTH",
"194 53 OFFCURVE",
"131 116 OFFCURVE",
"131 230 CURVE SMOOTH",
"131 345 OFFCURVE",
"198 408 OFFCURVE",
"289 408 CURVE"
);
}
);
width = 478;
},
{
layerId = UUID1;
paths = (
{
closed = 1;
nodes = (
"363 367 OFFCURVE",
"396 355 OFFCURVE",
"419 344 CURVE",
"435 360 OFFCURVE",
"449 383 OFFCURVE",
"449 408 CURVE SMOOTH",
"449 462 OFFCURVE",
"394 501 OFFCURVE",
"299 501 CURVE SMOOTH",
"155 501 OFFCURVE",
"31 417 OFFCURVE",
"31 241 CURVE SMOOTH",
"31 74 OFFCURVE",
"137 -15 OFFCURVE",
"304 -15 CURVE SMOOTH",
"401 -15 OFFCURVE",
"456 20 OFFCURVE",
"456 73 CURVE SMOOTH",
"456 103 OFFCURVE",
"443 123 OFFCURVE",
"418 142 CURVE",
"396 131 OFFCURVE",
"365 119 OFFCURVE",
"325 119 CURVE SMOOTH",
"256 119 OFFCURVE",
"203 158 OFFCURVE",
"203 241 CURVE SMOOTH",
"203 324 OFFCURVE",
"259 367 OFFCURVE",
"326 367 CURVE"
);
}
);
width = 489;
}
);
leftKerningGroup = o;
rightKerningGroup = c;
unicode = 0063;
},
{
glyphname = d;
layers = (
{
layerId = UUID0;
paths = (
{
closed = 1;
nodes = (
"366 64 OFFCURVE",
"338 53 OFFCURVE",
"292 53 CURVE SMOOTH",
"195 53 OFFCURVE",
"131 105 OFFCURVE",
"131 227 CURVE SMOOTH",
"131 361 OFFCURVE",
"202 409 OFFCURVE",
"284 409 CURVE SMOOTH",
"339 409 OFFCURVE",
"379 388 OFFCURVE",
"405 363 CURVE",
"405 437 LINE",
"378 458 OFFCURVE",
"328 475 OFFCURVE",
"276 475 CURVE SMOOTH",
"151 475 OFFCURVE",
"49 402 OFFCURVE",
"49 229 CURVE SMOOTH",
"49 59 OFFCURVE",
"148 -13 OFFCURVE",
"293 -13 CURVE SMOOTH",
"357 -13 OFFCURVE",
"408 6 OFFCURVE",
"435 23 CURVE SMOOTH",
"459 38 OFFCURVE",
"470 50 OFFCURVE",
"470 76 CURVE SMOOTH",
"470 416 LINE",
"390 415 LINE",
"390 79 LINE"
);
},
{
closed = 1;
nodes = (
"470 619 LINE SMOOTH",
"470 644 OFFCURVE",
"456 655 OFFCURVE",
"427 655 CURVE SMOOTH",
"412 655 OFFCURVE",
"397 651 OFFCURVE",
"390 648 CURVE",
"390 395 LINE",
"470 396 LINE"
);
}
);
width = 547;
},
{
layerId = UUID1;
paths = (
{
closed = 1;
nodes = (
"352 125 OFFCURVE",
"331 118 OFFCURVE",
"307 118 CURVE SMOOTH",
"241 118 OFFCURVE",
"203 157 OFFCURVE",
"203 241 CURVE SMOOTH",
"203 326 OFFCURVE",
"243 368 OFFCURVE",
"312 368 CURVE SMOOTH",
"347 368 OFFCURVE",
"375 353 OFFCURVE",
"392 340 CURVE",
"392 478 LINE",
"369 490 OFFCURVE",
"334 501 OFFCURVE",
"288 501 CURVE SMOOTH",
"144 501 OFFCURVE",
"31 417 OFFCURVE",
"31 241 CURVE SMOOTH",
"31 72 OFFCURVE",
"134 -16 OFFCURVE",
"308 -16 CURVE SMOOTH",
"387 -16 OFFCURVE",
"449 7 OFFCURVE",
"488 32 CURVE SMOOTH",
"518 51 OFFCURVE",
"532 74 OFFCURVE",
"532 107 CURVE SMOOTH",
"532 421 LINE",
"363 421 LINE",
"363 131 LINE"
);
},
{
closed = 1;
nodes = (
"532 581 LINE SMOOTH",
"532 643 OFFCURVE",
"504 661 OFFCURVE",
"438 661 CURVE SMOOTH",
"406 661 OFFCURVE",
"377 656 OFFCURVE",
"362 652 CURVE",
"362 389 LINE",
"532 389 LINE"
);
}
);
width = 586;
}
);
leftKerningGroup = o;
rightKerningGroup = d;
unicode = 0064;
},
{
glyphname = e;
layers = (
{
layerId = UUID0;
paths = (
{
closed = 1;
nodes = (
"440 227 LINE SMOOTH",
"464 230 OFFCURVE",
"478 241 OFFCURVE",
"478 270 CURVE SMOOTH",
"478 390 OFFCURVE",
"392 475 OFFCURVE",
"271 475 CURVE SMOOTH",
"142 475 OFFCURVE",
"49 385 OFFCURVE",
"49 234 CURVE SMOOTH",
"49 73 OFFCURVE",
"146 -13 OFFCURVE",
"300 -13 CURVE SMOOTH",
"387 -13 OFFCURVE",
"458 21 OFFCURVE",
"458 59 CURVE SMOOTH",
"458 75 OFFCURVE",
"449 88 OFFCURVE",
"434 97 CURVE",
"407 76 OFFCURVE",
"360 53 OFFCURVE",
"304 53 CURVE SMOOTH",
"198 53 OFFCURVE",
"136 109 OFFCURVE",
"127 216 CURVE",
"127 238 LINE",
"127 348 OFFCURVE",
"187 410 OFFCURVE",
"270 410 CURVE SMOOTH",
"350 410 OFFCURVE",
"396 357 OFFCURVE",
"402 284 CURVE",
"100 243 LINE",
"104 180 LINE"
);
}
);
width = 519;
},
{
layerId = UUID1;
paths = (
{
closed = 1;
nodes = (
"447 214 LINE SMOOTH",
"492 221 OFFCURVE",
"519 244 OFFCURVE",
"519 289 CURVE SMOOTH",
"519 412 OFFCURVE",
"423 501 OFFCURVE",
"282 501 CURVE SMOOTH",
"157 501 OFFCURVE",
"31 427 OFFCURVE",
"31 250 CURVE SMOOTH",
"31 72 OFFCURVE",
"150 -16 OFFCURVE",
"307 -16 CURVE SMOOTH",
"418 -16 OFFCURVE",
"498 14 OFFCURVE",
"498 80 CURVE SMOOTH",
"498 107 OFFCURVE",
"481 133 OFFCURVE",
"460 146 CURVE",
"429 128 OFFCURVE",
"375 111 OFFCURVE",
"319 111 CURVE SMOOTH",
"260 111 OFFCURVE",
"207 132 OFFCURVE",
"194 193 CURVE",
"188 277 LINE",
"190 341 OFFCURVE",
"229 377 OFFCURVE",
"283 377 CURVE SMOOTH",
"334 377 OFFCURVE",
"356 344 OFFCURVE",
"359 317 CURVE",
"128 279 LINE",
"134 167 LINE"
);
}
);
width = 549;
}
);
leftKerningGroup = o;
rightKerningGroup = e;
unicode = 0065;
},
{
glyphname = f;
layers = (
{
layerId = UUID0;
paths = (
{
closed = 1;
nodes = (
"332 371 LINE SMOOTH",
"352 371 OFFCURVE",
"363 382 OFFCURVE",
"363 404 CURVE SMOOTH",
"363 418 OFFCURVE",
"358 430 OFFCURVE",
"354 436 CURVE",
"142 436 LINE",
"142 371 LINE"
);
},
{
closed = 1;
nodes = (
"156 572 OFFCURVE",
"184 604 OFFCURVE",
"265 604 CURVE SMOOTH",
"298 604 OFFCURVE",
"338 594 OFFCURVE",
"362 581 CURVE",
"373 591 OFFCURVE",
"379 603 OFFCURVE",
"379 618 CURVE SMOOTH",
"379 647 OFFCURVE",
"333 670 OFFCURVE",
"257 670 CURVE SMOOTH",
"145 670 OFFCURVE",
"77 620 OFFCURVE",
"77 503 CURVE SMOOTH",
"77 382 LINE",
"156 382 LINE",
"156 499 LINE"
);
},
{
closed = 1;
nodes = (
"77 31 LINE SMOOTH",
"77 6 OFFCURVE",
"92 -5 OFFCURVE",
"120 -5 CURVE SMOOTH",
"136 -5 OFFCURVE",
"150 -1 OFFCURVE",
"157 2 CURVE",
"157 426 LINE",
"77 426 LINE"
);
}
);
width = 399;
},
{
layerId = UUID1;
paths = (
{
closed = 1;
nodes = (
"339 318 LINE SMOOTH",
"373 318 OFFCURVE",
"396 337 OFFCURVE",
"396 384 CURVE SMOOTH",
"396 410 OFFCURVE",
"387 434 OFFCURVE",
"379 448 CURVE",
"190 448 LINE",
"190 318 LINE"
);
},
{
closed = 1;
nodes = (
"215 528 OFFCURVE",
"249 545 OFFCURVE",
"306 545 CURVE SMOOTH",
"342 545 OFFCURVE",
"368 540 OFFCURVE",
"393 533 CURVE",
"406 544 OFFCURVE",
"420 566 OFFCURVE",
"420 593 CURVE SMOOTH",
"420 655 OFFCURVE",
"374 679 OFFCURVE",
"276 679 CURVE SMOOTH",
"154 679 OFFCURVE",
"54 621 OFFCURVE",
"54 486 CURVE SMOOTH",
"54 338 LINE",
"215 338 LINE",
"215 480 LINE"
);
},
{
closed = 1;
nodes = (
"54 72 LINE SMOOTH",
"54 10 OFFCURVE",
"82 -8 OFFCURVE",
"148 -8 CURVE SMOOTH",
"180 -8 OFFCURVE",
"209 -3 OFFCURVE",
"224 1 CURVE",
"224 363 LINE",
"54 363 LINE"
);
}
);
width = 430;
}
);
leftKerningGroup = f;
unicode = 0066;
},
{
glyphname = g;
layers = (
{
layerId = UUID0;
paths = (
{
closed = 1;
nodes = (
"330 14 OFFCURVE",
"374 36 OFFCURVE",
"394 57 CURVE",
"390 128 LINE",
"369 104 OFFCURVE",
"334 80 OFFCURVE",
"276 80 CURVE SMOOTH",
"195 80 OFFCURVE",
"132 126 OFFCURVE",
"132 246 CURVE SMOOTH",
"132 354 OFFCURVE",
"191 409 OFFCURVE",
"281 409 CURVE SMOOTH",
"327 409 OFFCURVE",
"361 395 OFFCURVE",
"384 381 CURVE",
"384 73 LINE",
"464 73 LINE",
"464 382 LINE SMOOTH",
"464 406 OFFCURVE",
"450 422 OFFCURVE",
"430 435 CURVE SMOOTH",
"395 457 OFFCURVE",
"342 475 OFFCURVE",
"281 475 CURVE SMOOTH",
"146 475 OFFCURVE",
"51 396 OFFCURVE",
"51 245 CURVE SMOOTH",
"51 76 OFFCURVE",
"151 14 OFFCURVE",
"267 14 CURVE"
);
},
{
closed = 1;
nodes = (
"384 -98 OFFCURVE",
"335 -135 OFFCURVE",
"246 -135 CURVE SMOOTH",
"187 -135 OFFCURVE",
"132 -113 OFFCURVE",
"104 -92 CURVE",
"91 -99 OFFCURVE",
"81 -112 OFFCURVE",
"81 -130 CURVE SMOOTH",
"81 -149 OFFCURVE",
"90 -161 OFFCURVE",
"111 -173 CURVE SMOOTH",
"128 -183 OFFCURVE",
"179 -202 OFFCURVE",
"246 -202 CURVE SMOOTH",
"370 -202 OFFCURVE",
"464 -152 OFFCURVE",
"464 -20 CURVE SMOOTH",
"464 90 LINE",
"384 90 LINE",
"384 -15 LINE"
);
}
);
width = 537;
},
{
layerId = UUID1;
paths = (
{
closed = 1;
nodes = (
"307 20 OFFCURVE",
"345 32 OFFCURVE",
"376 48 CURVE",
"371 181 LINE",
"349 163 OFFCURVE",
"325 147 OFFCURVE",
"285 147 CURVE SMOOTH",
"236 147 OFFCURVE",
"199 172 OFFCURVE",
"199 256 CURVE SMOOTH",
"199 334 OFFCURVE",
"239 368 OFFCURVE",
"296 368 CURVE SMOOTH",
"321 368 OFFCURVE",
"335 362 OFFCURVE",
"349 356 CURVE",
"349 63 LINE",
"512 63 LINE",
"512 378 LINE SMOOTH",
"512 414 OFFCURVE",
"496 436 OFFCURVE",
"469 454 CURVE SMOOTH",
"434 477 OFFCURVE",
"365 501 OFFCURVE",
"289 501 CURVE SMOOTH",
"132 501 OFFCURVE",
"30 417 OFFCURVE",
"30 257 CURVE SMOOTH",
"30 84 OFFCURVE",
"132 20 OFFCURVE",
"253 20 CURVE"
);
},
{
closed = 1;
nodes = (
"352 -42 OFFCURVE",
"305 -65 OFFCURVE",
"235 -65 CURVE SMOOTH",
"182 -65 OFFCURVE",
"132 -48 OFFCURVE",
"93 -27 CURVE",
"77 -39 OFFCURVE",
"62 -66 OFFCURVE",
"62 -97 CURVE SMOOTH",
"62 -127 OFFCURVE",
"74 -149 OFFCURVE",
"98 -165 CURVE SMOOTH",
"130 -186 OFFCURVE",
"187 -198 OFFCURVE",
"258 -198 CURVE SMOOTH",
"400 -198 OFFCURVE",
"512 -134 OFFCURVE",
"512 7 CURVE SMOOTH",
"512 101 LINE",
"352 101 LINE",
"352 11 LINE"
);
}
);
width = 565;
}
);
leftKerningGroup = g;
rightKerningGroup = g;
unicode = 0067;
},
{
glyphname = h;
layers = (
{
layerId = UUID0;
paths = (
{
closed = 1;
nodes = (
"476 293 LINE SMOOTH",
"476 416 OFFCURVE",
"398 475 OFFCURVE",
"287 475 CURVE SMOOTH",
"217 475 OFFCURVE",
"164 446 OFFCURVE",
"132 423 CURVE",
"147 358 LINE",
"177 386 OFFCURVE",
"224 409 OFFCURVE",
"276 409 CURVE SMOOTH",
"347 409 OFFCURVE",
"396 371 OFFCURVE",
"396 291 CURVE SMOOTH",
"396 199 LINE",
"476 199 LINE"
);
},
{
closed = 1;
nodes = (
"77 31 LINE SMOOTH",
"77 6 OFFCURVE",
"92 -5 OFFCURVE",
"120 -5 CURVE SMOOTH",
"136 -5 OFFCURVE",
"150 -1 OFFCURVE",
"157 2 CURVE",
"157 264 LINE",
"77 264 LINE"
);
},
{
closed = 1;
nodes = (
"396 31 LINE SMOOTH",
"396 6 OFFCURVE",
"410 -5 OFFCURVE",
"439 -5 CURVE SMOOTH",
"454 -5 OFFCURVE",
"469 -1 OFFCURVE",
"476 2 CURVE",
"476 262 LINE",
"396 263 LINE"
);
},
{
closed = 1;
nodes = (
"157 619 LINE SMOOTH",
"157 644 OFFCURVE",
"143 655 OFFCURVE",
"115 655 CURVE SMOOTH",
"99 655 OFFCURVE",
"84 651 OFFCURVE",
"77 648 CURVE",
"77 225 LINE",
"157 225 LINE"
);
}
);
width = 551;
},
{
layerId = UUID1;
paths = (
{
closed = 1;
nodes = (
"532 304 LINE SMOOTH",
"532 434 OFFCURVE",
"454 501 OFFCURVE",
"323 501 CURVE SMOOTH",
"272 501 OFFCURVE",
"228 486 OFFCURVE",
"198 470 CURVE",
"198 333 LINE",
"221 350 OFFCURVE",
"251 368 OFFCURVE",
"291 368 CURVE SMOOTH",
"331 368 OFFCURVE",
"362 348 OFFCURVE",
"362 294 CURVE SMOOTH",
"362 205 LINE",
"532 205 LINE"
);
},
{
closed = 1;
nodes = (
"54 72 LINE SMOOTH",
"54 10 OFFCURVE",
"82 -8 OFFCURVE",
"148 -8 CURVE SMOOTH",
"180 -8 OFFCURVE",
"209 -3 OFFCURVE",
"224 1 CURVE",
"224 264 LINE",
"54 264 LINE"
);
},
{
closed = 1;
nodes = (
"362 72 LINE SMOOTH",
"362 10 OFFCURVE",
"390 -8 OFFCURVE",
"456 -8 CURVE SMOOTH",
"488 -8 OFFCURVE",
"517 -3 OFFCURVE",
"532 1 CURVE",
"532 264 LINE",
"362 264 LINE"
);
},
{
closed = 1;
nodes = (
"224 581 LINE SMOOTH",
"224 643 OFFCURVE",
"196 661 OFFCURVE",
"130 661 CURVE SMOOTH",
"98 661 OFFCURVE",
"69 656 OFFCURVE",
"54 652 CURVE",
"54 175 LINE",
"224 175 LINE"
);
}
);
width = 585;
}
);
rightKerningGroup = h;
unicode = 0068;
},
{
glyphname = i;
layers = (
{
layerId = UUID0;
paths = (
{
closed = 1;
nodes = (
"68 580 OFFCURVE",
"90 558 OFFCURVE",
"120 558 CURVE SMOOTH",
"150 558 OFFCURVE",
"171 580 OFFCURVE",
"171 608 CURVE SMOOTH",
"171 636 OFFCURVE",
"150 658 OFFCURVE",
"120 658 CURVE SMOOTH",
"90 658 OFFCURVE",
"68 636 OFFCURVE",
"68 608 CURVE"
);
},
{
closed = 1;
nodes = (
"80 31 LINE SMOOTH",
"80 6 OFFCURVE",
"95 -5 OFFCURVE",
"123 -5 CURVE SMOOTH",
"139 -5 OFFCURVE",
"153 -1 OFFCURVE",
"160 2 CURVE",
"160 264 LINE",
"80 264 LINE"
);
},
{
closed = 1;
nodes = (
"160 430 LINE SMOOTH",
"160 456 OFFCURVE",
"146 467 OFFCURVE",
"118 467 CURVE SMOOTH",
"102 467 OFFCURVE",
"87 463 OFFCURVE",
"80 460 CURVE",
"80 225 LINE",
"160 225 LINE"
);
}
);
width = 241;
},
{
layerId = UUID1;
paths = (
{
closed = 1;
nodes = (
"48 571 OFFCURVE",
"86 531 OFFCURVE",
"141 531 CURVE SMOOTH",
"196 531 OFFCURVE",
"234 571 OFFCURVE",
"234 621 CURVE SMOOTH",
"234 671 OFFCURVE",
"196 711 OFFCURVE",
"141 711 CURVE SMOOTH",
"86 711 OFFCURVE",
"48 671 OFFCURVE",
"48 621 CURVE"
);
},
{
closed = 1;
nodes = (
"56 72 LINE SMOOTH",
"56 10 OFFCURVE",
"84 -8 OFFCURVE",
"150 -8 CURVE SMOOTH",
"182 -8 OFFCURVE",
"211 -3 OFFCURVE",
"226 1 CURVE",
"226 264 LINE",
"56 264 LINE"
);
},
{
closed = 1;
nodes = (
"226 408 LINE SMOOTH",
"226 470 OFFCURVE",
"198 488 OFFCURVE",
"132 488 CURVE SMOOTH",
"100 488 OFFCURVE",
"71 483 OFFCURVE",
"56 479 CURVE",
"56 175 LINE",
"226 175 LINE"
);
}
);
width = 282;
}
);
leftKerningGroup = i;
rightKerningGroup = i;
unicode = 0069;
},
{
glyphname = j;
layers = (
{
layerId = UUID0;
paths = (
{
closed = 1;
nodes = (
"8 -173 OFFCURVE",
"19 -195 OFFCURVE",
"52 -195 CURVE SMOOTH",
"90 -195 OFFCURVE",
"163 -161 OFFCURVE",
"163 -45 CURVE SMOOTH",
"163 303 LINE",
"83 303 LINE",
"83 -30 LINE SMOOTH",
"83 -106 OFFCURVE",
"54 -125 OFFCURVE",
"6 -146 CURVE"
);
},
{
closed = 1;
nodes = (
"71 580 OFFCURVE",
"93 558 OFFCURVE",
"123 558 CURVE SMOOTH",
"153 558 OFFCURVE",
"174 580 OFFCURVE",
"174 608 CURVE SMOOTH",
"174 636 OFFCURVE",
"153 658 OFFCURVE",
"123 658 CURVE SMOOTH",
"93 658 OFFCURVE",
"71 636 OFFCURVE",
"71 608 CURVE"
);
},
{
closed = 1;
nodes = (
"163 430 LINE SMOOTH",
"163 456 OFFCURVE",
"149 467 OFFCURVE",
"121 467 CURVE SMOOTH",
"105 467 OFFCURVE",
"90 463 OFFCURVE",
"83 460 CURVE",
"83 225 LINE",
"163 214 LINE"
);
}
);
width = 243;
},
{
layerId = UUID1;
paths = (
{
closed = 1;
nodes = (
"-6 -155 OFFCURVE",
"30 -195 OFFCURVE",
"88 -195 CURVE SMOOTH",
"166 -195 OFFCURVE",
"231 -139 OFFCURVE",
"231 -9 CURVE SMOOTH",
"231 232 LINE",
"61 232 LINE",
"61 7 LINE SMOOTH",
"61 -48 OFFCURVE",
"41 -78 OFFCURVE",
"-7 -102 CURVE"
);
},
{
closed = 1;
nodes = (
"48 571 OFFCURVE",
"86 531 OFFCURVE",
"141 531 CURVE SMOOTH",
"196 531 OFFCURVE",
"234 571 OFFCURVE",
"234 621 CURVE SMOOTH",
"234 671 OFFCURVE",
"196 711 OFFCURVE",
"141 711 CURVE SMOOTH",
"86 711 OFFCURVE",
"48 671 OFFCURVE",
"48 621 CURVE"
);
},
{
closed = 1;
nodes = (
"231 408 LINE SMOOTH",
"231 470 OFFCURVE",
"203 488 OFFCURVE",
"137 488 CURVE SMOOTH",
"105 488 OFFCURVE",
"76 483 OFFCURVE",
"61 479 CURVE",
"61 175 LINE",
"231 175 LINE"
);
}
);
width = 287;
}
);
leftKerningGroup = j;
rightKerningGroup = j;
unicode = 006A;
},
{
glyphname = k;
layers = (
{
layerId = UUID0;
paths = (
{
closed = 1;
nodes = (
"394 383 LINE SMOOTH",
"415 400 OFFCURVE",
"427 413 OFFCURVE",
"427 432 CURVE SMOOTH",
"427 454 OFFCURVE",
"408 470 OFFCURVE",
"376 471 CURVE",
"148 250 LINE",
"198 211 LINE"
);
},
{
closed = 1;
nodes = (
"359 23 LINE SMOOTH",
"376 5 OFFCURVE",
"392 -6 OFFCURVE",
"412 -6 CURVE SMOOTH",
"437 -6 OFFCURVE",
"453 13 OFFCURVE",
"456 42 CURVE",
"202 270 LINE",
"146 237 LINE"
);
},
{
closed = 1;
nodes = (
"77 31 LINE SMOOTH",
"77 6 OFFCURVE",
"92 -5 OFFCURVE",
"120 -5 CURVE SMOOTH",
"136 -5 OFFCURVE",
"150 -1 OFFCURVE",
"157 2 CURVE",
"157 256 LINE",
"77 268 LINE"
);
},
{
closed = 1;
nodes = (
"157 619 LINE SMOOTH",
"157 644 OFFCURVE",
"143 655 OFFCURVE",
"115 655 CURVE SMOOTH",
"99 655 OFFCURVE",
"84 651 OFFCURVE",
"77 648 CURVE",
"77 229 LINE",
"157 217 LINE"
);
}
);
width = 487;
},
{
layerId = UUID1;
paths = (
{
closed = 1;
nodes = (
"425 298 LINE SMOOTH",
"484 349 OFFCURVE",
"511 372 OFFCURVE",
"511 412 CURVE SMOOTH",
"511 458 OFFCURVE",
"465 493 OFFCURVE",
"396 493 CURVE",
"171 263 LINE",
"295 186 LINE"
);
},
{
closed = 1;
nodes = (
"323 59 LINE SMOOTH",
"362 10 OFFCURVE",
"392 -9 OFFCURVE",
"434 -9 CURVE SMOOTH",
"491 -9 OFFCURVE",
"521 26 OFFCURVE",
"527 88 CURVE",
"316 298 LINE",
"179 239 LINE"
);
},
{
closed = 1;
nodes = (
"54 72 LINE SMOOTH",
"54 10 OFFCURVE",
"82 -8 OFFCURVE",
"148 -8 CURVE SMOOTH",
"180 -8 OFFCURVE",
"209 -3 OFFCURVE",
"224 1 CURVE",
"224 264 LINE",
"54 264 LINE"
);
},
{
closed = 1;
nodes = (
"224 581 LINE SMOOTH",
"224 643 OFFCURVE",
"196 661 OFFCURVE",
"130 661 CURVE SMOOTH",
"98 661 OFFCURVE",
"69 656 OFFCURVE",
"54 652 CURVE",
"54 175 LINE",
"224 175 LINE"
);
}
);
width = 555;
}
);
rightKerningGroup = k;
unicode = 006B;
},
{
glyphname = l;
layers = (
{
layerId = UUID0;
paths = (
{
closed = 1;
nodes = (
"83 31 LINE SMOOTH",
"83 6 OFFCURVE",
"98 -5 OFFCURVE",
"126 -5 CURVE SMOOTH",
"142 -5 OFFCURVE",
"156 -1 OFFCURVE",
"163 2 CURVE",
"163 252 LINE",
"83 264 LINE"
);
},
{
closed = 1;
nodes = (
"163 619 LINE SMOOTH",
"163 644 OFFCURVE",
"149 655 OFFCURVE",
"120 655 CURVE SMOOTH",
"105 655 OFFCURVE",
"90 651 OFFCURVE",
"83 648 CURVE",
"83 225 LINE",
"163 214 LINE"
);
}
);
width = 246;
},
{
layerId = UUID1;
paths = (
{
closed = 1;
nodes = (
"57 72 LINE SMOOTH",
"57 10 OFFCURVE",
"85 -8 OFFCURVE",
"151 -8 CURVE SMOOTH",
"183 -8 OFFCURVE",
"212 -3 OFFCURVE",
"227 1 CURVE",
"227 264 LINE",
"57 264 LINE"
);
},
{
closed = 1;
nodes = (
"227 581 LINE SMOOTH",
"227 643 OFFCURVE",
"199 661 OFFCURVE",
"133 661 CURVE SMOOTH",
"101 661 OFFCURVE",
"72 656 OFFCURVE",
"57 652 CURVE",
"57 175 LINE",
"227 175 LINE"
);
}
);
width = 284;
}
);
leftKerningGroup = l;
rightKerningGroup = l;
unicode = 006C;
},
{
glyphname = m;
layers = (
{
layerId = UUID0;
paths = (
{
closed = 1;
nodes = (
"448 350 OFFCURVE",
"440 377 OFFCURVE",
"431 393 CURVE SMOOTH",
"425 403 OFFCURVE",
"421 409 OFFCURVE",
"413 417 CURVE",
"387 453 OFFCURVE",
"333 475 OFFCURVE",
"265 475 CURVE SMOOTH",
"209 475 OFFCURVE",
"149 455 OFFCURVE",
"113 433 CURVE SMOOTH",
"85 415 OFFCURVE",
"75 399 OFFCURVE",
"75 372 CURVE SMOOTH",
"75 205 LINE",
"155 205 LINE",
"155 376 LINE",
"181 393 OFFCURVE",
"222 409 OFFCURVE",
"264 409 CURVE SMOOTH",
"327 409 OFFCURVE",
"368 379 OFFCURVE",
"368 314 CURVE SMOOTH",
"368 205 LINE",
"448 205 LINE",
"448 320 LINE"
);
},
{
closed = 1;
nodes = (
"741 424 OFFCURVE",
"671 475 OFFCURVE",
"564 475 CURVE SMOOTH",
"492 475 OFFCURVE",
"435 446 OFFCURVE",
"400 411 CURVE",
"432 353 LINE",
"466 389 OFFCURVE",
"511 409 OFFCURVE",
"558 409 CURVE SMOOTH",
"620 409 OFFCURVE",
"661 379 OFFCURVE",
"661 314 CURVE SMOOTH",
"661 205 LINE",
"741 205 LINE",
"741 318 LINE"
);
},
{
closed = 1;
nodes = (
"75 31 LINE SMOOTH",
"75 6 OFFCURVE",
"90 -5 OFFCURVE",
"118 -5 CURVE SMOOTH",
"134 -5 OFFCURVE",
"148 -1 OFFCURVE",
"155 2 CURVE",
"155 258 LINE",
"75 258 LINE"
);
},
{
closed = 1;
nodes = (
"368 31 LINE SMOOTH",
"368 6 OFFCURVE",
"382 -5 OFFCURVE",
"411 -5 CURVE SMOOTH",
"426 -5 OFFCURVE",
"441 -1 OFFCURVE",
"448 2 CURVE",
"448 258 LINE",
"368 258 LINE"
);
},
{
closed = 1;
nodes = (
"661 31 LINE SMOOTH",
"661 6 OFFCURVE",
"675 -5 OFFCURVE",
"704 -5 CURVE SMOOTH",
"719 -5 OFFCURVE",
"734 -1 OFFCURVE",
"741 2 CURVE",
"741 258 LINE",
"661 258 LINE"
);
}
);
width = 816;
},
{
layerId = UUID1;
paths = (
{
closed = 1;
nodes = (
"508 361 OFFCURVE",
"496 388 OFFCURVE",
"482 411 CURVE SMOOTH",
"476 421 OFFCURVE",
"463 431 OFFCURVE",
"453 440 CURVE",
"406 483 OFFCURVE",
"347 501 OFFCURVE",
"285 501 CURVE SMOOTH",
"211 501 OFFCURVE",
"140 480 OFFCURVE",
"95 448 CURVE SMOOTH",
"68 429 OFFCURVE",
"52 409 OFFCURVE",
"52 373 CURVE SMOOTH",
"52 221 LINE",
"222 221 LINE",
"222 352 LINE",
"234 359 OFFCURVE",
"253 368 OFFCURVE",
"278 368 CURVE SMOOTH",
"311 368 OFFCURVE",
"338 351 OFFCURVE",
"338 311 CURVE SMOOTH",
"338 221 LINE",
"508 221 LINE",
"508 334 LINE"
);
},
{
closed = 1;
nodes = (
"794 452 OFFCURVE",
"694 501 OFFCURVE",
"592 501 CURVE SMOOTH",
"508 501 OFFCURVE",
"455 472 OFFCURVE",
"409 439 CURVE",
"502 344 LINE",
"517 356 OFFCURVE",
"541 368 OFFCURVE",
"566 368 CURVE SMOOTH",
"601 368 OFFCURVE",
"624 351 OFFCURVE",
"624 311 CURVE SMOOTH",
"624 221 LINE",
"794 221 LINE",
"794 316 LINE"
);
},
{
closed = 1;
nodes = (
"52 72 LINE SMOOTH",
"52 10 OFFCURVE",
"80 -8 OFFCURVE",
"146 -8 CURVE SMOOTH",
"178 -8 OFFCURVE",
"207 -3 OFFCURVE",
"222 1 CURVE",
"222 264 LINE",
"52 264 LINE"
);
},
{
closed = 1;
nodes = (
"338 72 LINE SMOOTH",
"338 10 OFFCURVE",
"366 -8 OFFCURVE",
"432 -8 CURVE SMOOTH",
"464 -8 OFFCURVE",
"493 -3 OFFCURVE",
"508 1 CURVE",
"508 264 LINE",
"338 264 LINE"
);
},
{
closed = 1;
nodes = (
"624 72 LINE SMOOTH",
"624 10 OFFCURVE",
"652 -8 OFFCURVE",
"718 -8 CURVE SMOOTH",
"750 -8 OFFCURVE",
"779 -3 OFFCURVE",
"794 1 CURVE",
"794 264 LINE",
"624 264 LINE"
);
}
);
width = 847;
}
);
leftKerningGroup = m;
rightKerningGroup = m;
unicode = 006D;
},
{
glyphname = n;
layers = (
{
layerId = UUID0;
paths = (
{
closed = 1;
nodes = (
"475 421 OFFCURVE",
"400 475 OFFCURVE",
"279 475 CURVE SMOOTH",
"207 475 OFFCURVE",
"147 453 OFFCURVE",
"113 433 CURVE SMOOTH",
"85 415 OFFCURVE",
"75 400 OFFCURVE",
"75 372 CURVE SMOOTH",
"75 203 LINE",
"155 203 LINE",
"155 376 LINE",
"184 393 OFFCURVE",
"226 409 OFFCURVE",
"279 409 CURVE SMOOTH",
"349 409 OFFCURVE",
"395 375 OFFCURVE",
"395 301 CURVE SMOOTH",
"395 203 LINE",
"475 203 LINE",
"475 305 LINE"
);
},
{
closed = 1;
nodes = (
"75 31 LINE SMOOTH",
"75 6 OFFCURVE",
"90 -5 OFFCURVE",
"118 -5 CURVE SMOOTH",
"134 -5 OFFCURVE",
"148 -1 OFFCURVE",
"155 2 CURVE",
"155 258 LINE",
"75 258 LINE"
);
},
{
closed = 1;
nodes = (
"395 31 LINE SMOOTH",
"395 6 OFFCURVE",
"409 -5 OFFCURVE",
"438 -5 CURVE SMOOTH",
"453 -5 OFFCURVE",
"468 -1 OFFCURVE",
"475 2 CURVE",
"475 258 LINE",
"395 258 LINE"
);
}
);
width = 550;
},
{
layerId = UUID1;
paths = (
{
closed = 1;
nodes = (
"530 431 OFFCURVE",
"445 501 OFFCURVE",
"295 501 CURVE SMOOTH",
"212 501 OFFCURVE",
"140 480 OFFCURVE",
"95 448 CURVE SMOOTH",
"68 429 OFFCURVE",
"52 409 OFFCURVE",
"52 373 CURVE SMOOTH",
"52 221 LINE",
"222 221 LINE",
"222 350 LINE",
"243 361 OFFCURVE",
"266 368 OFFCURVE",
"293 368 CURVE SMOOTH",
"333 368 OFFCURVE",
"360 349 OFFCURVE",
"360 308 CURVE SMOOTH",
"360 221 LINE",
"530 221 LINE",
"530 313 LINE"
);
},
{
closed = 1;
nodes = (
"52 72 LINE SMOOTH",
"52 10 OFFCURVE",
"80 -8 OFFCURVE",
"146 -8 CURVE SMOOTH",
"178 -8 OFFCURVE",
"207 -3 OFFCURVE",
"222 1 CURVE",
"222 264 LINE",
"52 264 LINE"
);
},
{
closed = 1;
nodes = (
"360 72 LINE SMOOTH",
"360 10 OFFCURVE",
"388 -8 OFFCURVE",
"454 -8 CURVE SMOOTH",
"486 -8 OFFCURVE",
"515 -3 OFFCURVE",
"530 1 CURVE",
"530 264 LINE",
"360 264 LINE"
);
}
);
width = 583;
}
);
leftKerningGroup = m;
rightKerningGroup = h;
unicode = 006E;
},
{
glyphname = o;
layers = (
{
layerId = UUID0;
paths = (
{
closed = 1;
nodes = (
"504 380 OFFCURVE",
"413 475 OFFCURVE",
"277 475 CURVE SMOOTH",
"140 475 OFFCURVE",
"49 380 OFFCURVE",
"49 231 CURVE SMOOTH",
"49 82 OFFCURVE",
"138 -13 OFFCURVE",
"277 -13 CURVE SMOOTH",
"415 -13 OFFCURVE",
"504 82 OFFCURVE",
"504 231 CURVE"
);
},
{
closed = 1;
nodes = (
"367 409 OFFCURVE",
"422 342 OFFCURVE",
"422 231 CURVE SMOOTH",
"422 120 OFFCURVE",
"368 53 OFFCURVE",
"277 53 CURVE SMOOTH",
"185 53 OFFCURVE",
"131 119 OFFCURVE",
"131 231 CURVE SMOOTH",
"131 342 OFFCURVE",
"187 409 OFFCURVE",
"277 409 CURVE"
);
}
);
width = 553;
},
{
layerId = UUID1;
paths = (
{
closed = 1;
nodes = (
"555 399 OFFCURVE",
"450 501 OFFCURVE",
"293 501 CURVE SMOOTH",
"136 501 OFFCURVE",
"31 401 OFFCURVE",
"31 243 CURVE SMOOTH",
"31 81 OFFCURVE",
"134 -16 OFFCURVE",
"293 -16 CURVE SMOOTH",
"452 -16 OFFCURVE",
"555 83 OFFCURVE",
"555 243 CURVE"
);
},
{
closed = 1;
nodes = (
"348 368 OFFCURVE",
"381 322 OFFCURVE",
"381 243 CURVE SMOOTH",
"381 161 OFFCURVE",
"349 117 OFFCURVE",
"293 117 CURVE SMOOTH",
"237 117 OFFCURVE",
"205 160 OFFCURVE",
"205 243 CURVE SMOOTH",
"205 323 OFFCURVE",
"238 368 OFFCURVE",
"293 368 CURVE"
);
}
);
width = 586;
}
);
leftKerningGroup = o;
rightKerningGroup = o;
unicode = 006F;
},
{
glyphname = p;
layers = (
{
layerId = UUID0;
paths = (
{
closed = 1;
nodes = (
"404 -13 OFFCURVE",
"497 67 OFFCURVE",
"497 232 CURVE SMOOTH",
"497 402 OFFCURVE",
"393 475 OFFCURVE",
"261 475 CURVE SMOOTH",
"197 475 OFFCURVE",
"147 455 OFFCURVE",
"111 435 CURVE SMOOTH",
"82 418 OFFCURVE",
"75 405 OFFCURVE",
"75 378 CURVE SMOOTH",
"75 48 LINE",
"155 48 LINE",
"155 380 LINE",
"181 395 OFFCURVE",
"213 409 OFFCURVE",
"261 409 CURVE SMOOTH",
"343 409 OFFCURVE",
"416 363 OFFCURVE",
"416 232 CURVE SMOOTH",
"416 107 OFFCURVE",
"354 53 OFFCURVE",
"261 53 CURVE SMOOTH",
"203 53 OFFCURVE",
"164 75 OFFCURVE",
"137 101 CURVE",
"137 27 LINE",
"160 7 OFFCURVE",
"214 -13 OFFCURVE",
"272 -13 CURVE"
);
},
{
closed = 1;
nodes = (
"134 -187 OFFCURVE",
"148 -183 OFFCURVE",
"155 -180 CURVE",
"155 75 LINE",
"75 77 LINE",
"75 -150 LINE SMOOTH",
"75 -176 OFFCURVE",
"90 -187 OFFCURVE",
"118 -187 CURVE SMOOTH"
);
}
);
width = 546;
},
{
layerId = UUID1;
paths = (
{
closed = 1;
nodes = (
"446 -15 OFFCURVE",
"554 76 OFFCURVE",
"554 246 CURVE SMOOTH",
"554 424 OFFCURVE",
"444 501 OFFCURVE",
"283 501 CURVE SMOOTH",
"204 501 OFFCURVE",
"136 482 OFFCURVE",
"95 456 CURVE SMOOTH",
"68 439 OFFCURVE",
"52 416 OFFCURVE",
"52 380 CURVE SMOOTH",
"52 55 LINE",
"221 55 LINE",
"221 353 LINE",
"236 361 OFFCURVE",
"258 368 OFFCURVE",
"283 368 CURVE SMOOTH",
"347 368 OFFCURVE",
"380 331 OFFCURVE",
"380 246 CURVE SMOOTH",
"380 163 OFFCURVE",
"343 119 OFFCURVE",
"277 119 CURVE SMOOTH",
"240 119 OFFCURVE",
"211 137 OFFCURVE",
"188 154 CURVE",
"188 12 LINE",
"220 -3 OFFCURVE",
"255 -15 OFFCURVE",
"303 -15 CURVE"
);
},
{
closed = 1;
nodes = (
"178 -187 OFFCURVE",
"207 -182 OFFCURVE",
"222 -178 CURVE",
"222 96 LINE",
"52 96 LINE",
"52 -107 LINE SMOOTH",
"52 -169 OFFCURVE",
"80 -187 OFFCURVE",
"146 -187 CURVE SMOOTH"
);
}
);
width = 585;
}
);
leftKerningGroup = m;
rightKerningGroup = o;
unicode = 0070;
},
{
glyphname = q;
layers = (
{
layerId = UUID0;
paths = (
{
closed = 1;
nodes = (
"471 382 LINE SMOOTH",
"471 406 OFFCURVE",
"458 423 OFFCURVE",
"438 435 CURVE SMOOTH",
"403 456 OFFCURVE",
"350 475 OFFCURVE",
"286 475 CURVE SMOOTH",
"152 475 OFFCURVE",
"49 396 OFFCURVE",
"49 228 CURVE SMOOTH",
"49 59 OFFCURVE",
"144 -13 OFFCURVE",
"275 -13 CURVE SMOOTH",
"334 -13 OFFCURVE",
"373 3 OFFCURVE",
"400 22 CURVE",
"400 95 LINE",
"377 72 OFFCURVE",
"335 53 OFFCURVE",
"287 53 CURVE SMOOTH",
"193 53 OFFCURVE",
"131 105 OFFCURVE",
"131 228 CURVE SMOOTH",
"131 358 OFFCURVE",
"202 409 OFFCURVE",
"288 409 CURVE SMOOTH",
"334 409 OFFCURVE",
"368 395 OFFCURVE",
"391 381 CURVE",
"391 64 LINE",
"471 63 LINE"
);
},
{
closed = 1;
nodes = (
"391 -153 LINE SMOOTH",
"391 -179 OFFCURVE",
"405 -190 OFFCURVE",
"434 -190 CURVE SMOOTH",
"449 -190 OFFCURVE",
"464 -186 OFFCURVE",
"471 -183 CURVE",
"471 80 LINE",
"391 78 LINE"
);
}
);
width = 546;
},
{
layerId = UUID1;
paths = (
{
closed = 1;
nodes = (
"533 380 LINE SMOOTH",
"533 416 OFFCURVE",
"517 438 OFFCURVE",
"490 456 CURVE SMOOTH",
"455 479 OFFCURVE",
"383 501 OFFCURVE",
"308 501 CURVE SMOOTH",
"140 501 OFFCURVE",
"31 412 OFFCURVE",
"31 241 CURVE SMOOTH",
"31 72 OFFCURVE",
"136 -16 OFFCURVE",
"282 -16 CURVE SMOOTH",
"321 -16 OFFCURVE",
"358 -8 OFFCURVE",
"381 4 CURVE",
"381 143 LINE",
"363 129 OFFCURVE",
"340 118 OFFCURVE",
"307 118 CURVE SMOOTH",
"241 118 OFFCURVE",
"203 157 OFFCURVE",
"203 241 CURVE SMOOTH",
"203 326 OFFCURVE",
"243 368 OFFCURVE",
"312 368 CURVE SMOOTH",
"334 368 OFFCURVE",
"353 362 OFFCURVE",
"364 356 CURVE",
"364 76 LINE",
"533 76 LINE"
);
},
{
closed = 1;
nodes = (
"363 -110 LINE SMOOTH",
"363 -172 OFFCURVE",
"391 -190 OFFCURVE",
"457 -190 CURVE SMOOTH",
"489 -190 OFFCURVE",
"518 -185 OFFCURVE",
"533 -181 CURVE",
"533 96 LINE",
"363 96 LINE"
);
}
);
width = 587;
}
);
leftKerningGroup = o;
rightKerningGroup = g;
unicode = 0071;
},
{
glyphname = r;
layers = (
{
layerId = UUID0;
paths = (
{
closed = 1;
nodes = (
"186 393 OFFCURVE",
"233 408 OFFCURVE",
"294 408 CURVE SMOOTH",
"315 408 OFFCURVE",
"339 405 OFFCURVE",
"352 402 CURVE",
"358 410 OFFCURVE",
"363 422 OFFCURVE",
"363 435 CURVE SMOOTH",
"363 462 OFFCURVE",
"336 475 OFFCURVE",
"283 475 CURVE SMOOTH",
"209 475 OFFCURVE",
"147 455 OFFCURVE",
"112 433 CURVE SMOOTH",
"85 416 OFFCURVE",
"75 401 OFFCURVE",
"75 370 CURVE SMOOTH",
"75 218 LINE",
"155 218 LINE",
"155 376 LINE"
);
},
{
closed = 1;
nodes = (
"75 31 LINE SMOOTH",
"75 6 OFFCURVE",
"90 -5 OFFCURVE",
"118 -5 CURVE SMOOTH",
"134 -5 OFFCURVE",
"148 -1 OFFCURVE",
"155 2 CURVE",
"155 252 LINE",
"75 264 LINE"
);
}
);
width = 382;
},
{
layerId = UUID1;
paths = (
{
closed = 1;
nodes = (
"250 359 OFFCURVE",
"290 367 OFFCURVE",
"324 367 CURVE SMOOTH",
"347 367 OFFCURVE",
"365 366 OFFCURVE",
"379 363 CURVE",
"388 377 OFFCURVE",
"396 399 OFFCURVE",
"396 423 CURVE SMOOTH",
"396 476 OFFCURVE",
"360 500 OFFCURVE",
"287 500 CURVE SMOOTH",
"220 500 OFFCURVE",
"154 485 OFFCURVE",
"108 457 CURVE SMOOTH",
"74 436 OFFCURVE",
"52 407 OFFCURVE",
"52 369 CURVE SMOOTH",
"52 229 LINE",
"222 229 LINE",
"222 343 LINE"
);
},
{
closed = 1;
nodes = (
"52 72 LINE SMOOTH",
"52 10 OFFCURVE",
"80 -8 OFFCURVE",
"146 -8 CURVE SMOOTH",
"178 -8 OFFCURVE",
"207 -3 OFFCURVE",
"222 1 CURVE",
"222 264 LINE",
"52 264 LINE"
);
}
);
width = 411;
}
);
leftKerningGroup = m;
rightKerningGroup = r;
unicode = 0072;
},
{
glyphname = s;
layers = (
{
layerId = UUID0;
paths = (
{
closed = 1;
nodes = (
"401 198 OFFCURVE",
"355 242 OFFCURVE",
"265 264 CURVE SMOOTH",
"196 281 LINE",
"150 292 OFFCURVE",
"131 314 OFFCURVE",
"131 344 CURVE SMOOTH",
"131 385 OFFCURVE",
"170 409 OFFCURVE",
"229 409 CURVE SMOOTH",
"289 409 OFFCURVE",
"334 385 OFFCURVE",
"358 369 CURVE",
"372 376 OFFCURVE",
"382 390 OFFCURVE",
"382 407 CURVE SMOOTH",
"382 443 OFFCURVE",
"319 475 OFFCURVE",
"226 475 CURVE SMOOTH",
"109 475 OFFCURVE",
"52 414 OFFCURVE",
"52 344 CURVE SMOOTH",
"52 281 OFFCURVE",
"88 239 OFFCURVE",
"169 219 CURVE SMOOTH",
"252 197 LINE SMOOTH",
"297 186 OFFCURVE",
"321 162 OFFCURVE",
"321 123 CURVE SMOOTH",
"321 78 OFFCURVE",
"285 53 OFFCURVE",
"217 53 CURVE SMOOTH",
"156 53 OFFCURVE",
"108 78 OFFCURVE",
"72 104 CURVE",
"55 94 OFFCURVE",
"46 78 OFFCURVE",
"46 62 CURVE SMOOTH",
"46 24 OFFCURVE",
"116 -13 OFFCURVE",
"218 -13 CURVE SMOOTH",
"336 -13 OFFCURVE",
"401 38 OFFCURVE",
"401 123 CURVE"
);
}
);
width = 447;
},
{
layerId = UUID1;
paths = (
{
closed = 1;
nodes = (
"462 226 OFFCURVE",
"413 276 OFFCURVE",
"285 305 CURVE SMOOTH",
"254 312 LINE",
"217 320 OFFCURVE",
"206 328 OFFCURVE",
"206 343 CURVE SMOOTH",
"206 364 OFFCURVE",
"231 374 OFFCURVE",
"275 374 CURVE SMOOTH",
"317 374 OFFCURVE",
"386 357 OFFCURVE",
"408 343 CURVE",
"425 358 OFFCURVE",
"438 380 OFFCURVE",
"438 410 CURVE SMOOTH",
"438 474 OFFCURVE",
"358 502 OFFCURVE",
"260 502 CURVE SMOOTH",
"129 502 OFFCURVE",
"40 443 OFFCURVE",
"40 343 CURVE SMOOTH",
"40 253 OFFCURVE",
"97 208 OFFCURVE",
"212 185 CURVE SMOOTH",
"242 179 LINE SMOOTH",
"279 172 OFFCURVE",
"294 162 OFFCURVE",
"294 144 CURVE SMOOTH",
"294 124 OFFCURVE",
"271 111 OFFCURVE",
"230 111 CURVE SMOOTH",
"165 111 OFFCURVE",
"115 131 OFFCURVE",
"77 152 CURVE",
"58 138 OFFCURVE",
"43 116 OFFCURVE",
"43 84 CURVE SMOOTH",
"43 14 OFFCURVE",
"124 -17 OFFCURVE",
"237 -17 CURVE SMOOTH",
"384 -17 OFFCURVE",
"462 44 OFFCURVE",
"462 145 CURVE"
);
}
);
width = 492;
}
);
leftKerningGroup = s;
rightKerningGroup = s;
unicode = 0073;
},
{
glyphname = t;
layers = (
{
layerId = UUID0;
paths = (
{
closed = 1;
nodes = (
"76 121 LINE SMOOTH",
"76 25 OFFCURVE",
"140 -13 OFFCURVE",
"233 -13 CURVE SMOOTH",
"294 -13 OFFCURVE",
"331 8 OFFCURVE",
"331 37 CURVE SMOOTH",
"331 53 OFFCURVE",
"323 65 OFFCURVE",
"315 73 CURVE",
"296 62 OFFCURVE",
"265 53 OFFCURVE",
"242 53 CURVE SMOOTH",
"188 53 OFFCURVE",
"156 73 OFFCURVE",
"156 126 CURVE SMOOTH",
"156 264 LINE",
"76 264 LINE"
);
},
{
closed = 1;
nodes = (
"299 386 LINE SMOOTH",
"318 386 OFFCURVE",
"329 398 OFFCURVE",
"329 420 CURVE SMOOTH",
"329 433 OFFCURVE",
"324 446 OFFCURVE",
"320 452 CURVE",
"117 452 LINE",
"117 386 LINE"
);
},
{
closed = 1;
nodes = (
"156 567 LINE SMOOTH",
"156 592 OFFCURVE",
"142 603 OFFCURVE",
"114 603 CURVE SMOOTH",
"98 603 OFFCURVE",
"83 599 OFFCURVE",
"76 596 CURVE",
"76 234 LINE",
"156 234 LINE"
);
}
);
width = 372;
},
{
layerId = UUID1;
paths = (
{
closed = 1;
nodes = (
"54 155 LINE SMOOTH",
"54 35 OFFCURVE",
"120 -15 OFFCURVE",
"237 -15 CURVE SMOOTH",
"333 -15 OFFCURVE",
"366 21 OFFCURVE",
"366 71 CURVE SMOOTH",
"366 96 OFFCURVE",
"356 114 OFFCURVE",
"344 128 CURVE",
"328 123 OFFCURVE",
"305 119 OFFCURVE",
"285 119 CURVE SMOOTH",
"245 119 OFFCURVE",
"222 133 OFFCURVE",
"222 167 CURVE SMOOTH",
"222 264 LINE",
"54 264 LINE"
);
},
{
closed = 1;
nodes = (
"313 345 LINE SMOOTH",
"347 345 OFFCURVE",
"370 364 OFFCURVE",
"370 411 CURVE SMOOTH",
"370 437 OFFCURVE",
"361 461 OFFCURVE",
"353 475 CURVE",
"164 475 LINE",
"164 345 LINE"
);
},
{
closed = 1;
nodes = (
"222 529 LINE SMOOTH",
"222 590 OFFCURVE",
"194 609 OFFCURVE",
"129 609 CURVE SMOOTH",
"98 609 OFFCURVE",
"69 603 OFFCURVE",
"54 599 CURVE",
"54 240 LINE",
"222 240 LINE"
);
}
);
width = 397;
}
);
leftKerningGroup = t;
rightKerningGroup = t;
unicode = 0074;
},
{
glyphname = u;
layers = (
{
layerId = UUID0;
paths = (
{
closed = 1;
nodes = (
"75 45 OFFCURVE",
"149 -13 OFFCURVE",
"282 -13 CURVE SMOOTH",
"358 -13 OFFCURVE",
"413 7 OFFCURVE",
"443 24 CURVE SMOOTH",
"471 40 OFFCURVE",
"475 54 OFFCURVE",
"475 82 CURVE SMOOTH",
"475 260 LINE",
"395 260 LINE",
"395 79 LINE",
"374 67 OFFCURVE",
"336 53 OFFCURVE",
"283 53 CURVE SMOOTH",
"203 53 OFFCURVE",
"155 87 OFFCURVE",
"155 173 CURVE SMOOTH",
"155 260 LINE",
"75 260 LINE",
"75 169 LINE"
);
},
{
closed = 1;
nodes = (
"475 430 LINE SMOOTH",
"475 456 OFFCURVE",
"461 467 OFFCURVE",
"432 467 CURVE SMOOTH",
"417 467 OFFCURVE",
"402 463 OFFCURVE",
"395 460 CURVE",
"395 208 LINE",
"475 208 LINE"
);
},
{
closed = 1;
nodes = (
"155 430 LINE SMOOTH",
"155 456 OFFCURVE",
"141 467 OFFCURVE",
"113 467 CURVE SMOOTH",
"97 467 OFFCURVE",
"82 463 OFFCURVE",
"75 460 CURVE",
"75 208 LINE",
"155 208 LINE"
);
}
);
width = 550;
},
{
layerId = UUID1;
paths = (
{
closed = 1;
nodes = (
"52 45 OFFCURVE",
"154 -16 OFFCURVE",
"299 -16 CURVE SMOOTH",
"375 -16 OFFCURVE",
"441 0 OFFCURVE",
"488 29 CURVE SMOOTH",
"516 46 OFFCURVE",
"530 71 OFFCURVE",
"530 104 CURVE SMOOTH",
"530 259 LINE",
"360 259 LINE",
"360 129 LINE",
"350 124 OFFCURVE",
"330 117 OFFCURVE",
"300 117 CURVE SMOOTH",
"250 117 OFFCURVE",
"222 139 OFFCURVE",
"222 193 CURVE SMOOTH",
"222 259 LINE",
"52 259 LINE",
"52 193 LINE"
);
},
{
closed = 1;
nodes = (
"530 413 LINE SMOOTH",
"530 475 OFFCURVE",
"502 493 OFFCURVE",
"436 493 CURVE SMOOTH",
"404 493 OFFCURVE",
"375 488 OFFCURVE",
"360 484 CURVE",
"360 216 LINE",
"530 216 LINE"
);
},
{
closed = 1;
nodes = (
"222 413 LINE SMOOTH",
"222 475 OFFCURVE",
"194 493 OFFCURVE",
"128 493 CURVE SMOOTH",
"96 493 OFFCURVE",
"67 488 OFFCURVE",
"52 484 CURVE",
"52 216 LINE",
"222 216 LINE"
);
}
);
width = 582;
}
);
leftKerningGroup = u;
rightKerningGroup = u;
unicode = 0075;
},
{
glyphname = v;
layers = (
{
layerId = UUID0;
paths = (
{
closed = 1;
nodes = (
"408 471 OFFCURVE",
"395 468 OFFCURVE",
"387 463 CURVE",
"353 337 OFFCURVE",
"305 205 OFFCURVE",
"252 71 CURVE",
"248 71 LINE",
"231 116 OFFCURVE",
"196 207 OFFCURVE",
"180 253 CURVE SMOOTH",
"118 432 LINE SMOOTH",
"108 460 OFFCURVE",
"97 471 OFFCURVE",
"73 471 CURVE SMOOTH",
"57 471 OFFCURVE",
"39 462 OFFCURVE",
"30 449 CURVE",
"67 326 OFFCURVE",
"164 82 OFFCURVE",
"202 15 CURVE SMOOTH",
"209 1 OFFCURVE",
"227 -6 OFFCURVE",
"250 -6 CURVE SMOOTH",
"269 -6 OFFCURVE",
"287 -1 OFFCURVE",
"294 4 CURVE",
"358 126 OFFCURVE",
"459 394 OFFCURVE",
"459 436 CURVE SMOOTH",
"459 459 OFFCURVE",
"444 471 OFFCURVE",
"421 471 CURVE"
);
}
);
width = 495;
},
{
layerId = UUID1;
paths = (
{
closed = 1;
nodes = (
"411 496 OFFCURVE",
"381 489 OFFCURVE",
"358 477 CURVE",
"335 362 OFFCURVE",
"305 234 OFFCURVE",
"280 136 CURVE",
"275 136 LINE",
"269 163 OFFCURVE",
"254 215 OFFCURVE",
"239 274 CURVE SMOOTH",
"200 427 LINE SMOOTH",
"186 480 OFFCURVE",
"156 496 OFFCURVE",
"109 496 CURVE SMOOTH",
"72 496 OFFCURVE",
"38 479 OFFCURVE",
"20 461 CURVE",
"48 340 OFFCURVE",
"132 101 OFFCURVE",
"168 32 CURVE SMOOTH",
"183 3 OFFCURVE",
"223 -10 OFFCURVE",
"275 -10 CURVE SMOOTH",
"320 -10 OFFCURVE",
"359 1 OFFCURVE",
"377 15 CURVE",
"427 105 OFFCURVE",
"521 366 OFFCURVE",
"521 429 CURVE SMOOTH",
"521 478 OFFCURVE",
"484 496 OFFCURVE",
"438 496 CURVE"
);
}
);
width = 545;
}
);
leftKerningGroup = v;
rightKerningGroup = v;
unicode = 0076;
},
{
glyphname = w;
layers = (
{
layerId = UUID0;
paths = (
{
closed = 1;
nodes = (
"403 218 OFFCURVE",
"445 84 OFFCURVE",
"473 13 CURVE SMOOTH",
"478 0 OFFCURVE",
"496 -6 OFFCURVE",
"521 -6 CURVE SMOOTH",
"541 -6 OFFCURVE",
"557 0 OFFCURVE",
"564 5 CURVE",
"600 83 OFFCURVE",
"688 392 OFFCURVE",
"688 438 CURVE SMOOTH",
"688 460 OFFCURVE",
"673 471 OFFCURVE",
"651 471 CURVE SMOOTH",
"638 471 OFFCURVE",
"625 467 OFFCURVE",
"617 462 CURVE",
"594 331 OFFCURVE",
"554 190 OFFCURVE",
"523 71 CURVE",
"518 71 LINE",
"503 121 OFFCURVE",
"461 262 OFFCURVE",
"413 401 CURVE SMOOTH",
"407 418 OFFCURVE",
"391 427 OFFCURVE",
"367 427 CURVE SMOOTH",
"350 427 OFFCURVE",
"335 423 OFFCURVE",
"324 417 CURVE",
"275 273 OFFCURVE",
"226 120 OFFCURVE",
"211 72 CURVE",
"207 72 LINE",
"193 126 OFFCURVE",
"147 314 OFFCURVE",
"124 427 CURVE SMOOTH",
"118 457 OFFCURVE",
"107 471 OFFCURVE",
"82 471 CURVE SMOOTH",
"62 471 OFFCURVE",
"48 461 OFFCURVE",
"39 452 CURVE",
"66 325 OFFCURVE",
"128 83 OFFCURVE",
"160 17 CURVE SMOOTH",
"167 1 OFFCURVE",
"187 -6 OFFCURVE",
"208 -6 CURVE SMOOTH",
"230 -6 OFFCURVE",
"242 -2 OFFCURVE",
"253 5 CURVE",
"284 84 OFFCURVE",
"330 218 OFFCURVE",
"366 344 CURVE"
);
}
);
width = 729;
},
{
layerId = UUID1;
paths = (
{
closed = 1;
nodes = (
"417 184 OFFCURVE",
"451 80 OFFCURVE",
"468 32 CURVE SMOOTH",
"478 4 OFFCURVE",
"510 -10 OFFCURVE",
"567 -10 CURVE SMOOTH",
"611 -10 OFFCURVE",
"654 1 OFFCURVE",
"672 17 CURVE",
"700 89 OFFCURVE",
"766 365 OFFCURVE",
"766 429 CURVE SMOOTH",
"766 478 OFFCURVE",
"731 496 OFFCURVE",
"685 496 CURVE SMOOTH",
"659 496 OFFCURVE",
"631 489 OFFCURVE",
"607 475 CURVE",
"595 361 OFFCURVE",
"581 248 OFFCURVE",
"566 146 CURVE",
"561 146 LINE",
"552 188 OFFCURVE",
"524 298 OFFCURVE",
"492 415 CURVE SMOOTH",
"483 445 OFFCURVE",
"447 460 OFFCURVE",
"400 460 CURVE SMOOTH",
"362 460 OFFCURVE",
"338 451 OFFCURVE",
"312 437 CURVE",
"283 316 OFFCURVE",
"250 189 OFFCURVE",
"241 146 CURVE",
"237 146 LINE",
"232 173 OFFCURVE",
"224 224 OFFCURVE",
"197 427 CURVE SMOOTH",
"190 477 OFFCURVE",
"159 496 OFFCURVE",
"112 496 CURVE SMOOTH",
"75 496 OFFCURVE",
"41 479 OFFCURVE",
"23 461 CURVE",
"43 331 OFFCURVE",
"93 99 OFFCURVE",
"123 34 CURVE SMOOTH",
"136 6 OFFCURVE",
"180 -10 OFFCURVE",
"234 -10 CURVE SMOOTH",
"278 -10 OFFCURVE",
"311 1 OFFCURVE",
"329 17 CURVE",
"342 65 OFFCURVE",
"381 181 OFFCURVE",
"400 273 CURVE"
);
}
);
width = 791;
}
);
leftKerningGroup = w;
rightKerningGroup = w;
unicode = 0077;
},
{
glyphname = x;
layers = (
{
layerId = UUID0;
paths = (
{
closed = 1;
nodes = (
"164 197 OFFCURVE",
"109 136 OFFCURVE",
"61 72 CURVE SMOOTH",
"44 50 OFFCURVE",
"41 41 OFFCURVE",
"41 30 CURVE SMOOTH",
"41 10 OFFCURVE",
"56 -5 OFFCURVE",
"87 -5 CURVE SMOOTH",
"90 -5 OFFCURVE",
"99 -5 OFFCURVE",
"101 -5 CURVE",
"149 62 OFFCURVE",
"202 134 OFFCURVE",
"252 199 CURVE",
"278 221 LINE",
"323 276 OFFCURVE",
"372 334 OFFCURVE",
"417 390 CURVE SMOOTH",
"430 407 OFFCURVE",
"436 419 OFFCURVE",
"436 434 CURVE SMOOTH",
"436 455 OFFCURVE",
"419 469 OFFCURVE",
"391 469 CURVE SMOOTH",
"387 469 OFFCURVE",
"385 469 OFFCURVE",
"380 468 CURVE",
"329 395 OFFCURVE",
"284 338 OFFCURVE",
"229 268 CURVE",
"214 261 LINE"
);
},
{
closed = 1;
nodes = (
"215 318 OFFCURVE",
"171 385 OFFCURVE",
"131 438 CURVE SMOOTH",
"117 456 OFFCURVE",
"106 469 OFFCURVE",
"84 469 CURVE SMOOTH",
"62 469 OFFCURVE",
"47 453 OFFCURVE",
"42 427 CURVE",
"95 359 OFFCURVE",
"143 298 OFFCURVE",
"202 227 CURVE",
"225 206 LINE",
"265 151 OFFCURVE",
"312 85 OFFCURVE",
"352 29 CURVE SMOOTH",
"371 5 OFFCURVE",
"382 -6 OFFCURVE",
"404 -6 CURVE SMOOTH",
"428 -6 OFFCURVE",
"443 10 OFFCURVE",
"446 35 CURVE",
"391 105 OFFCURVE",
"336 175 OFFCURVE",
"281 247 CURVE",
"263 259 LINE"
);
}
);
width = 482;
},
{
layerId = UUID1;
paths = (
{
closed = 1;
nodes = (
"167 259 OFFCURVE",
"123 208 OFFCURVE",
"79 157 CURVE SMOOTH",
"42 114 OFFCURVE",
"28 96 OFFCURVE",
"28 64 CURVE SMOOTH",
"28 23 OFFCURVE",
"65 -9 OFFCURVE",
"132 -9 CURVE SMOOTH",
"137 -9 OFFCURVE",
"147 -8 OFFCURVE",
"153 -8 CURVE",
"198 57 OFFCURVE",
"243 121 OFFCURVE",
"288 186 CURVE",
"338 207 LINE",
"371 244 OFFCURVE",
"405 281 OFFCURVE",
"438 318 CURVE SMOOTH",
"482 367 OFFCURVE",
"496 386 OFFCURVE",
"496 421 CURVE SMOOTH",
"496 463 OFFCURVE",
"456 493 OFFCURVE",
"394 493 CURVE SMOOTH",
"389 493 OFFCURVE",
"383 493 OFFCURVE",
"377 492 CURVE",
"332 431 OFFCURVE",
"287 372 OFFCURVE",
"242 311 CURVE",
"211 310 LINE"
);
},
{
closed = 1;
nodes = (
"275 341 OFFCURVE",
"241 386 OFFCURVE",
"206 432 CURVE SMOOTH",
"177 471 OFFCURVE",
"159 493 OFFCURVE",
"115 493 CURVE SMOOTH",
"69 493 OFFCURVE",
"35 458 OFFCURVE",
"25 407 CURVE",
"80 343 OFFCURVE",
"134 278 OFFCURVE",
"189 214 CURVE",
"214 198 LINE",
"246 153 OFFCURVE",
"277 107 OFFCURVE",
"309 62 CURVE SMOOTH",
"337 22 OFFCURVE",
"363 -10 OFFCURVE",
"413 -11 CURVE SMOOTH",
"459 -11 OFFCURVE",
"496 20 OFFCURVE",
"503 71 CURVE",
"452 139 OFFCURVE",
"400 207 OFFCURVE",
"349 275 CURVE",
"310 295 LINE"
);
}
);
width = 523;
}
);
unicode = 0078;
},
{
glyphname = y;
layers = (
{
layerId = UUID0;
paths = (
{
closed = 1;
nodes = (
"193 57 OFFCURVE",
"210 44 OFFCURVE",
"233 38 CURVE",
"201 -29 OFFCURVE",
"132 -112 OFFCURVE",
"89 -150 CURVE",
"93 -171 OFFCURVE",
"109 -190 OFFCURVE",
"140 -190 CURVE SMOOTH",
"182 -190 OFFCURVE",
"232 -127 OFFCURVE",
"294 -14 CURVE SMOOTH",
"374 130 OFFCURVE",
"455 383 OFFCURVE",
"455 437 CURVE SMOOTH",
"455 459 OFFCURVE",
"439 471 OFFCURVE",
"416 471 CURVE SMOOTH",
"402 471 OFFCURVE",
"391 467 OFFCURVE",
"382 463 CURVE",
"353 339 OFFCURVE",
"301 176 OFFCURVE",
"259 93 CURVE",
"255 93 LINE",
"201 212 OFFCURVE",
"159 320 OFFCURVE",
"119 432 CURVE SMOOTH",
"109 460 OFFCURVE",
"96 471 OFFCURVE",
"73 471 CURVE SMOOTH",
"56 471 OFFCURVE",
"39 462 OFFCURVE",
"30 449 CURVE",
"75 308 OFFCURVE",
"135 167 OFFCURVE",
"169 103 CURVE"
);
}
);
width = 489;
},
{
layerId = UUID1;
paths = (
{
closed = 1;
nodes = (
"158 56 OFFCURVE",
"184 38 OFFCURVE",
"207 31 CURVE",
"175 -16 OFFCURVE",
"129 -63 OFFCURVE",
"87 -99 CURVE",
"94 -152 OFFCURVE",
"133 -189 OFFCURVE",
"186 -189 CURVE SMOOTH",
"251 -189 OFFCURVE",
"312 -128 OFFCURVE",
"387 2 CURVE SMOOTH",
"454 117 OFFCURVE",
"527 322 OFFCURVE",
"527 429 CURVE SMOOTH",
"527 478 OFFCURVE",
"486 496 OFFCURVE",
"440 496 CURVE SMOOTH",
"413 496 OFFCURVE",
"390 489 OFFCURVE",
"367 477 CURVE",
"349 369 OFFCURVE",
"315 244 OFFCURVE",
"284 152 CURVE",
"280 152 LINE",
"254 242 OFFCURVE",
"227 334 OFFCURVE",
"201 427 CURVE SMOOTH",
"186 480 OFFCURVE",
"156 496 OFFCURVE",
"109 496 CURVE SMOOTH",
"72 496 OFFCURVE",
"38 479 OFFCURVE",
"20 461 CURVE",
"63 283 OFFCURVE",
"98 192 OFFCURVE",
"128 124 CURVE"
);
}
);
width = 551;
}
);
leftKerningGroup = v;
rightKerningGroup = v;
unicode = 0079;
},
{
glyphname = z;
layers = (
{
layerId = UUID0;
paths = (
{
closed = 1;
nodes = (
"399 384 LINE SMOOTH",
"411 398 OFFCURVE",
"418 411 OFFCURVE",
"418 426 CURVE SMOOTH",
"418 441 OFFCURVE",
"412 453 OFFCURVE",
"401 462 CURVE",
"370 462 LINE",
"63 78 LINE SMOOTH",
"53 65 OFFCURVE",
"45 51 OFFCURVE",
"45 35 CURVE SMOOTH",
"45 21 OFFCURVE",
"51 8 OFFCURVE",
"61 0 CURVE",
"93 0 LINE"
);
},
{
closed = 1;
nodes = (
"81 462 LINE SMOOTH",
"62 462 OFFCURVE",
"51 451 OFFCURVE",
"51 429 CURVE SMOOTH",
"51 415 OFFCURVE",
"56 403 OFFCURVE",
"60 396 CURVE",
"390 396 LINE",
"390 462 LINE"
);
},
{
closed = 1;
nodes = (
"394 0 LINE SMOOTH",
"414 0 OFFCURVE",
"425 11 OFFCURVE",
"425 33 CURVE SMOOTH",
"425 47 OFFCURVE",
"420 59 OFFCURVE",
"416 65 CURVE",
"67 65 LINE",
"67 0 LINE"
);
}
);
width = 469;
},
{
layerId = UUID1;
paths = (
{
closed = 1;
nodes = (
"412 333 LINE SMOOTH",
"431 356 OFFCURVE",
"445 382 OFFCURVE",
"445 409 CURVE SMOOTH",
"445 441 OFFCURVE",
"431 466 OFFCURVE",
"410 485 CURVE",
"351 485 LINE",
"67 152 LINE SMOOTH",
"48 129 OFFCURVE",
"34 103 OFFCURVE",
"34 76 CURVE SMOOTH",
"34 44 OFFCURVE",
"48 19 OFFCURVE",
"69 0 CURVE",
"136 0 LINE"
);
},
{
closed = 1;
nodes = (
"95 485 LINE SMOOTH",
"61 485 OFFCURVE",
"38 466 OFFCURVE",
"38 419 CURVE SMOOTH",
"38 393 OFFCURVE",
"47 368 OFFCURVE",
"55 354 CURVE",
"374 354 LINE",
"374 485 LINE"
);
},
{
closed = 1;
nodes = (
"400 0 LINE SMOOTH",
"434 0 OFFCURVE",
"457 19 OFFCURVE",
"457 66 CURVE SMOOTH",
"457 92 OFFCURVE",
"448 117 OFFCURVE",
"440 131 CURVE",
"121 131 LINE",
"121 0 LINE"
);
}
);
width = 481;
}
);
leftKerningGroup = z;
rightKerningGroup = z;
unicode = 007A;
},
{
glyphname = braceleft;
layers = (
{
layerId = UUID0;
paths = (
{
closed = 1;
nodes = (
"166 297 OFFCURVE",
"192 343 OFFCURVE",
"192 414 CURVE SMOOTH",
"192 536 LINE SMOOTH",
"192 584 OFFCURVE",
"209 601 OFFCURVE",
"248 601 CURVE",
"250 609 OFFCURVE",
"251 616 OFFCURVE",
"251 624 CURVE SMOOTH",
"251 644 OFFCURVE",
"239 656 OFFCURVE",
"215 656 CURVE SMOOTH",
"159 656 OFFCURVE",
"120 617 OFFCURVE",
"120 537 CURVE SMOOTH",
"120 421 LINE SMOOTH",
"120 351 OFFCURVE",
"95 314 OFFCURVE",
"44 306 CURVE",
"40 298 OFFCURVE",
"37 284 OFFCURVE",
"37 275 CURVE SMOOTH",
"37 266 OFFCURVE",
"39 251 OFFCURVE",
"44 244 CURVE",
"95 236 OFFCURVE",
"120 198 OFFCURVE",
"120 128 CURVE SMOOTH",
"120 5 LINE SMOOTH",
"120 -75 OFFCURVE",
"159 -115 OFFCURVE",
"215 -115 CURVE SMOOTH",
"239 -115 OFFCURVE",
"251 -102 OFFCURVE",
"251 -83 CURVE SMOOTH",
"251 -75 OFFCURVE",
"250 -68 OFFCURVE",
"248 -60 CURVE",
"209 -59 OFFCURVE",
"192 -42 OFFCURVE",
"192 5 CURVE SMOOTH",
"192 136 LINE SMOOTH",
"192 206 OFFCURVE",
"166 252 OFFCURVE",
"122 275 CURVE"
);
}
);
width = 281;
},
{
layerId = UUID1;
paths = (
{
closed = 1;
nodes = (
"235 283 OFFCURVE",
"253 320 OFFCURVE",
"253 376 CURVE SMOOTH",
"253 484 LINE SMOOTH",
"253 529 OFFCURVE",
"279 545 OFFCURVE",
"308 553 CURVE",
"310 563 OFFCURVE",
"310 572 OFFCURVE",
"310 580 CURVE SMOOTH",
"310 642 OFFCURVE",
"279 664 OFFCURVE",
"226 664 CURVE SMOOTH",
"153 664 OFFCURVE",
"96 617 OFFCURVE",
"96 523 CURVE SMOOTH",
"96 422 LINE SMOOTH",
"96 364 OFFCURVE",
"76 335 OFFCURVE",
"31 323 CURVE",
"27 307 OFFCURVE",
"24 287 OFFCURVE",
"24 266 CURVE SMOOTH",
"24 245 OFFCURVE",
"27 225 OFFCURVE",
"31 209 CURVE",
"76 197 OFFCURVE",
"96 168 OFFCURVE",
"96 110 CURVE SMOOTH",
"96 6 LINE SMOOTH",
"96 -88 OFFCURVE",
"150 -135 OFFCURVE",
"223 -135 CURVE SMOOTH",
"275 -135 OFFCURVE",
"310 -111 OFFCURVE",
"310 -51 CURVE SMOOTH",
"310 -43 OFFCURVE",
"310 -34 OFFCURVE",
"308 -24 CURVE",
"279 -16 OFFCURVE",
"253 0 OFFCURVE",
"253 45 CURVE SMOOTH",
"253 156 LINE SMOOTH",
"253 212 OFFCURVE",
"235 249 OFFCURVE",
"199 266 CURVE"
);
}
);
width = 337;
}
);
rightKerningGroup = parenleft;
unicode = 007B;
},
{
glyphname = bar;
layers = (
{
layerId = UUID0;
paths = (
{
closed = 1;
nodes = (
"162 670 OFFCURVE",
"150 681 OFFCURVE",
"124 681 CURVE SMOOTH",
"109 681 OFFCURVE",
"99 678 OFFCURVE",
"89 674 CURVE",
"89 -147 LINE SMOOTH",
"89 -176 OFFCURVE",
"101 -187 OFFCURVE",
"127 -187 CURVE SMOOTH",
"142 -187 OFFCURVE",
"152 -184 OFFCURVE",
"162 -180 CURVE",
"162 641 LINE"
);
}
);
width = 251;
},
{
layerId = UUID1;
paths = (
{
closed = 1;
nodes = (
"216 671 OFFCURVE",
"185 683 OFFCURVE",
"132 683 CURVE SMOOTH",
"107 683 OFFCURVE",
"78 679 OFFCURVE",
"65 676 CURVE",
"65 -106 LINE SMOOTH",
"65 -165 OFFCURVE",
"96 -176 OFFCURVE",
"149 -176 CURVE SMOOTH",
"174 -176 OFFCURVE",
"203 -172 OFFCURVE",
"216 -169 CURVE",
"216 612 LINE"
);
}
);
width = 281;
}
);
leftKerningGroup = bar;
rightKerningGroup = bar;
unicode = 007C;
},
{
glyphname = asciitilde;
layers = (
{
layerId = UUID0;
paths = (
{
closed = 1;
nodes = (
"259 282 OFFCURVE",
"201 323 OFFCURVE",
"119 323 CURVE SMOOTH",
"64 323 OFFCURVE",
"25 295 OFFCURVE",
"25 253 CURVE SMOOTH",
"25 226 OFFCURVE",
"48 209 OFFCURVE",
"78 209 CURVE",
"88 230 OFFCURVE",
"100 254 OFFCURVE",
"136 254 CURVE SMOOTH",
"189 254 OFFCURVE",
"248 213 OFFCURVE",
"329 213 CURVE SMOOTH",
"385 213 OFFCURVE",
"423 241 OFFCURVE",
"423 283 CURVE SMOOTH",
"423 310 OFFCURVE",
"399 327 OFFCURVE",
"370 327 CURVE",
"359 306 OFFCURVE",
"348 282 OFFCURVE",
"312 282 CURVE"
);
}
);
width = 448;
},
{
layerId = UUID1;
paths = (
{
closed = 1;
nodes = (
"264 313 OFFCURVE",
"206 347 OFFCURVE",
"138 347 CURVE SMOOTH",
"83 347 OFFCURVE",
"18 316 OFFCURVE",
"18 245 CURVE SMOOTH",
"18 189 OFFCURVE",
"65 151 OFFCURVE",
"119 151 CURVE",
"129 166 OFFCURVE",
"146 191 OFFCURVE",
"179 191 CURVE SMOOTH",
"244 191 OFFCURVE",
"303 158 OFFCURVE",
"366 158 CURVE SMOOTH",
"431 158 OFFCURVE",
"487 190 OFFCURVE",
"487 260 CURVE SMOOTH",
"487 316 OFFCURVE",
"440 354 OFFCURVE",
"385 354 CURVE",
"373 334 OFFCURVE",
"357 313 OFFCURVE",
"325 313 CURVE"
);
}
);
width = 503;
}
);
unicode = 007E;
},
{
glyphname = cent;
layers = (
{
layerId = UUID0;
paths = (
{
closed = 1;
nodes = (
"233 -80 LINE SMOOTH",
"233 -101 OFFCURVE",
"248 -113 OFFCURVE",
"274 -113 CURVE SMOOTH",
"287 -113 OFFCURVE",
"300 -110 OFFCURVE",
"306 -108 CURVE",
"306 28 LINE",
"233 28 LINE"
);
},
{
closed = 1;
nodes = (
"306 543 LINE SMOOTH",
"306 564 OFFCURVE",
"292 576 OFFCURVE",
"266 576 CURVE SMOOTH",
"252 576 OFFCURVE",
"239 573 OFFCURVE",
"233 571 CURVE",
"233 422 LINE",
"306 422 LINE"
);
},
{
closed = 1;
nodes = (
"344 408 OFFCURVE",
"376 391 OFFCURVE",
"404 371 CURVE",
"419 377 OFFCURVE",
"430 390 OFFCURVE",
"430 406 CURVE SMOOTH",
"430 442 OFFCURVE",
"370 475 OFFCURVE",
"287 475 CURVE SMOOTH",
"156 475 OFFCURVE",
"49 392 OFFCURVE",
"49 230 CURVE SMOOTH",
"49 65 OFFCURVE",
"150 -13 OFFCURVE",
"288 -13 CURVE SMOOTH",
"372 -13 OFFCURVE",
"434 17 OFFCURVE",
"434 54 CURVE SMOOTH",
"434 71 OFFCURVE",
"423 83 OFFCURVE",
"409 91 CURVE",
"380 71 OFFCURVE",
"345 53 OFFCURVE",
"289 53 CURVE SMOOTH",
"194 53 OFFCURVE",
"131 116 OFFCURVE",
"131 230 CURVE SMOOTH",
"131 345 OFFCURVE",
"198 408 OFFCURVE",
"289 408 CURVE"
);
}
);
width = 476;
},
{
layerId = UUID1;
paths = (
{
closed = 1;
nodes = (
"186 -23 LINE SMOOTH",
"186 -78 OFFCURVE",
"211 -94 OFFCURVE",
"269 -94 CURVE SMOOTH",
"297 -94 OFFCURVE",
"323 -90 OFFCURVE",
"336 -86 CURVE",
"336 69 LINE",
"186 69 LINE"
);
},
{
closed = 1;
nodes = (
"336 511 LINE SMOOTH",
"336 566 OFFCURVE",
"311 582 OFFCURVE",
"253 582 CURVE SMOOTH",
"225 582 OFFCURVE",
"199 578 OFFCURVE",
"186 574 CURVE",
"186 396 LINE",
"336 396 LINE"
);
},
{
closed = 1;
nodes = (
"361 367 OFFCURVE",
"394 355 OFFCURVE",
"417 344 CURVE",
"433 360 OFFCURVE",
"447 383 OFFCURVE",
"447 408 CURVE SMOOTH",
"447 462 OFFCURVE",
"392 501 OFFCURVE",
"297 501 CURVE SMOOTH",
"153 501 OFFCURVE",
"29 417 OFFCURVE",
"29 241 CURVE SMOOTH",
"29 74 OFFCURVE",
"135 -15 OFFCURVE",
"302 -15 CURVE SMOOTH",
"399 -15 OFFCURVE",
"454 20 OFFCURVE",
"454 73 CURVE SMOOTH",
"454 103 OFFCURVE",
"441 123 OFFCURVE",
"416 142 CURVE",
"394 131 OFFCURVE",
"363 119 OFFCURVE",
"323 119 CURVE SMOOTH",
"254 119 OFFCURVE",
"201 158 OFFCURVE",
"201 241 CURVE SMOOTH",
"201 324 OFFCURVE",
"257 367 OFFCURVE",
"324 367 CURVE"
);
}
);
width = 492;
}
);
unicode = 00A2;
},
{
glyphname = sterling;
layers = (
{
layerId = UUID0;
paths = (
{
closed = 1;
nodes = (
"401 263 OFFCURVE",
"413 272 OFFCURVE",
"413 296 CURVE SMOOTH",
"413 309 OFFCURVE",
"409 319 OFFCURVE",
"405 328 CURVE",
"65 328 LINE",
"62 319 OFFCURVE",
"57 309 OFFCURVE",
"57 296 CURVE SMOOTH",
"57 272 OFFCURVE",
"70 263 OFFCURVE",
"85 263 CURVE SMOOTH",
"384 263 LINE"
);
},
{
closed = 1;
nodes = (
"145 126 OFFCURVE",
"115 90 OFFCURVE",
"55 60 CURVE",
"54 54 OFFCURVE",
"54 51 OFFCURVE",
"54 45 CURVE SMOOTH",
"54 16 OFFCURVE",
"75 0 OFFCURVE",
"100 0 CURVE SMOOTH",
"440 0 LINE SMOOTH",
"457 0 OFFCURVE",
"469 12 OFFCURVE",
"469 33 CURVE SMOOTH",
"469 47 OFFCURVE",
"466 57 OFFCURVE",
"461 66 CURVE",
"168 66 LINE",
"204 98 OFFCURVE",
"223 146 OFFCURVE",
"223 217 CURVE SMOOTH",
"223 258 OFFCURVE",
"210 354 OFFCURVE",
"210 407 CURVE SMOOTH",
"210 505 OFFCURVE",
"251 553 OFFCURVE",
"337 553 CURVE SMOOTH",
"379 553 OFFCURVE",
"407 542 OFFCURVE",
"436 522 CURVE",
"452 531 OFFCURVE",
"459 549 OFFCURVE",
"459 560 CURVE SMOOTH",
"459 587 OFFCURVE",
"418 621 OFFCURVE",
"332 621 CURVE SMOOTH",
"221 621 OFFCURVE",
"130 561 OFFCURVE",
"130 418 CURVE SMOOTH",
"130 363 OFFCURVE",
"145 264 OFFCURVE",
"145 219 CURVE"
);
}
);
width = 504;
},
{
layerId = UUID1;
paths = (
{
closed = 1;
nodes = (
"395 240 OFFCURVE",
"418 258 OFFCURVE",
"418 308 CURVE SMOOTH",
"418 333 OFFCURVE",
"408 357 OFFCURVE",
"401 371 CURVE",
"55 371 LINE",
"48 357 OFFCURVE",
"38 333 OFFCURVE",
"38 308 CURVE SMOOTH",
"38 258 OFFCURVE",
"61 240 OFFCURVE",
"95 240 CURVE SMOOTH",
"361 240 LINE"
);
},
{
closed = 1;
nodes = (
"116 153 OFFCURVE",
"89 118 OFFCURVE",
"36 94 CURVE",
"35 88 OFFCURVE",
"35 85 OFFCURVE",
"35 79 CURVE SMOOTH",
"35 29 OFFCURVE",
"65 0 OFFCURVE",
"100 0 CURVE SMOOTH",
"431 0 LINE SMOOTH",
"466 0 OFFCURVE",
"489 19 OFFCURVE",
"489 67 CURVE SMOOTH",
"489 93 OFFCURVE",
"480 118 OFFCURVE",
"472 132 CURVE",
"251 132 LINE",
"271 159 OFFCURVE",
"281 192 OFFCURVE",
"281 227 CURVE SMOOTH",
"281 268 OFFCURVE",
"268 355 OFFCURVE",
"268 405 CURVE SMOOTH",
"268 466 OFFCURVE",
"303 489 OFFCURVE",
"360 489 CURVE SMOOTH",
"396 489 OFFCURVE",
"419 481 OFFCURVE",
"442 469 CURVE",
"457 479 OFFCURVE",
"471 508 OFFCURVE",
"471 534 CURVE SMOOTH",
"471 594 OFFCURVE",
"422 625 OFFCURVE",
"332 625 CURVE SMOOTH",
"206 625 OFFCURVE",
"101 560 OFFCURVE",
"101 411 CURVE SMOOTH",
"101 359 OFFCURVE",
"116 275 OFFCURVE",
"116 229 CURVE"
);
}
);
width = 504;
}
);
unicode = 00A3;
},
{
glyphname = currency;
layers = (
{
layerId = UUID0;
paths = (
{
closed = 1;
nodes = (
"363 115 OFFCURVE",
"447 179 OFFCURVE",
"447 298 CURVE",
"447 416 OFFCURVE",
"363 480 OFFCURVE",
"262 480 CURVE",
"160 480 OFFCURVE",
"77 416 OFFCURVE",
"77 298 CURVE",
"77 178 OFFCURVE",
"160 115 OFFCURVE",
"262 115 CURVE SMOOTH"
);
},
{
closed = 1;
nodes = (
"202 168 LINE",
"150 219 LINE",
"97 155 LINE SMOOTH",
"83 139 OFFCURVE",
"73 123 OFFCURVE",
"73 107 CURVE SMOOTH",
"73 83 OFFCURVE",
"95 69 OFFCURVE",
"121 64 CURVE"
);
},
{
closed = 1;
nodes = (
"436 72 OFFCURVE",
"454 84 OFFCURVE",
"465 109 CURVE",
"380 210 LINE",
"320 171 LINE",
"373 107 LINE SMOOTH",
"386 90 OFFCURVE",
"402 72 OFFCURVE",
"418 72 CURVE SMOOTH"
);
},
{
closed = 1;
nodes = (
"195 178 OFFCURVE",
"150 221 OFFCURVE",
"150 298 CURVE",
"150 374 OFFCURVE",
"195 418 OFFCURVE",
"262 418 CURVE",
"328 418 OFFCURVE",
"373 374 OFFCURVE",
"373 298 CURVE",
"373 221 OFFCURVE",
"328 178 OFFCURVE",
"262 178 CURVE SMOOTH"
);
},
{
closed = 1;
nodes = (
"206 420 LINE",
"152 485 LINE SMOOTH",
"139 501 OFFCURVE",
"124 519 OFFCURVE",
"107 519 CURVE SMOOTH",
"89 519 OFFCURVE",
"71 507 OFFCURVE",
"60 483 CURVE",
"145 382 LINE"
);
},
{
closed = 1;
nodes = (
"430 436 LINE SMOOTH",
"444 453 OFFCURVE",
"454 468 OFFCURVE",
"454 485 CURVE SMOOTH",
"454 509 OFFCURVE",
"432 522 OFFCURVE",
"407 527 CURVE",
"326 423 LINE",
"378 372 LINE"
);
}
);
width = 525;
},
{
layerId = UUID1;
paths = (
{
closed = 1;
nodes = (
"397 89 OFFCURVE",
"493 161 OFFCURVE",
"493 291 CURVE",
"493 421 OFFCURVE",
"397 493 OFFCURVE",
"278 493 CURVE",
"161 493 OFFCURVE",
"65 421 OFFCURVE",
"65 291 CURVE",
"65 161 OFFCURVE",
"161 89 OFFCURVE",
"280 89 CURVE SMOOTH"
);
},
{
closed = 1;
nodes = (
"220 151 LINE",
"143 220 LINE",
"99 161 LINE SMOOTH",
"81 138 OFFCURVE",
"69 118 OFFCURVE",
"69 99 CURVE SMOOTH",
"69 69 OFFCURVE",
"102 52 OFFCURVE",
"139 45 CURVE"
);
},
{
closed = 1;
nodes = (
"468 49 OFFCURVE",
"491 65 OFFCURVE",
"506 99 CURVE",
"421 202 LINE",
"338 150 LINE",
"382 94 LINE SMOOTH",
"400 72 OFFCURVE",
"419 49 OFFCURVE",
"443 49 CURVE SMOOTH"
);
},
{
closed = 1;
nodes = (
"236 200 OFFCURVE",
"206 232 OFFCURVE",
"206 291 CURVE",
"206 350 OFFCURVE",
"236 382 OFFCURVE",
"279 382 CURVE",
"322 382 OFFCURVE",
"352 350 OFFCURVE",
"352 291 CURVE",
"352 232 OFFCURVE",
"322 200 OFFCURVE",
"279 200 CURVE SMOOTH"
);
},
{
closed = 1;
nodes = (
"223 427 LINE",
"179 483 LINE SMOOTH",
"161 505 OFFCURVE",
"142 528 OFFCURVE",
"118 528 CURVE SMOOTH",
"93 528 OFFCURVE",
"70 512 OFFCURVE",
"55 478 CURVE",
"140 375 LINE"
);
},
{
closed = 1;
nodes = (
"464 416 LINE SMOOTH",
"482 439 OFFCURVE",
"494 459 OFFCURVE",
"494 478 CURVE SMOOTH",
"494 508 OFFCURVE",
"461 525 OFFCURVE",
"424 532 CURVE",
"343 426 LINE",
"420 357 LINE"
);
}
);
width = 565;
}
);
unicode = 00A4;
},
{
glyphname = yen;
layers = (
{
layerId = UUID0;
paths = (
{
closed = 1;
nodes = (
"419 432 OFFCURVE",
"501 563 OFFCURVE",
"501 586 CURVE SMOOTH",
"501 603 OFFCURVE",
"490 618 OFFCURVE",
"466 618 CURVE SMOOTH",
"452 618 OFFCURVE",
"444 616 OFFCURVE",
"432 610 CURVE",
"372 504 OFFCURVE",
"341 445 OFFCURVE",
"278 345 CURVE",
"273 345 LINE",
"130 578 LINE SMOOTH",
"115 606 OFFCURVE",
"104 618 OFFCURVE",
"81 618 CURVE SMOOTH",
"61 618 OFFCURVE",
"46 604 OFFCURVE",
"37 592 CURVE",
"74 522 OFFCURVE",
"142 415 OFFCURVE",
"205 323 CURVE",
"345 319 LINE"
);
},
{
closed = 1;
nodes = (
"234 31 LINE SMOOTH",
"234 7 OFFCURVE",
"250 -5 OFFCURVE",
"279 -5 CURVE SMOOTH",
"294 -5 OFFCURVE",
"309 -1 OFFCURVE",
"316 1 CURVE",
"316 193 LINE",
"234 193 LINE"
);
},
{
closed = 1;
nodes = (
"472 280 LINE SMOOTH",
"486 280 OFFCURVE",
"497 291 OFFCURVE",
"497 310 CURVE SMOOTH",
"497 322 OFFCURVE",
"493 332 OFFCURVE",
"489 342 CURVE",
"264 342 LINE",
"244 280 LINE"
);
},
{
closed = 1;
nodes = (
"74 342 LINE SMOOTH",
"61 342 OFFCURVE",
"49 334 OFFCURVE",
"49 312 CURVE SMOOTH",
"49 299 OFFCURVE",
"53 287 OFFCURVE",
"59 280 CURVE",
"307 280 LINE",
"291 342 LINE"
);
},
{
closed = 1;
nodes = (
"484 148 OFFCURVE",
"495 159 OFFCURVE",
"495 178 CURVE SMOOTH",
"495 189 OFFCURVE",
"491 203 OFFCURVE",
"487 210 CURVE",
"73 210 LINE SMOOTH",
"61 210 OFFCURVE",
"49 204 OFFCURVE",
"49 180 CURVE SMOOTH",
"49 167 OFFCURVE",
"53 155 OFFCURVE",
"59 148 CURVE",
"471 148 LINE"
);
}
);
width = 546;
},
{
layerId = UUID1;
paths = (
{
closed = 1;
nodes = (
"542 468 OFFCURVE",
"559 510 OFFCURVE",
"559 538 CURVE SMOOTH",
"559 584 OFFCURVE",
"524 609 OFFCURVE",
"479 609 CURVE SMOOTH",
"454 609 OFFCURVE",
"422 602 OFFCURVE",
"399 591 CURVE",
"362 500 OFFCURVE",
"349 457 OFFCURVE",
"312 376 CURVE",
"306 376 LINE",
"227 536 LINE SMOOTH",
"199 593 OFFCURVE",
"171 609 OFFCURVE",
"120 609 CURVE SMOOTH",
"78 609 OFFCURVE",
"50 586 OFFCURVE",
"33 562 CURVE",
"65 482 OFFCURVE",
"136 361 OFFCURVE",
"197 267 CURVE",
"431 285 LINE"
);
},
{
closed = 1;
nodes = (
"219 73 LINE SMOOTH",
"219 13 OFFCURVE",
"242 -8 OFFCURVE",
"311 -8 CURVE SMOOTH",
"342 -8 OFFCURVE",
"375 -3 OFFCURVE",
"390 1 CURVE",
"390 172 LINE",
"219 172 LINE"
);
},
{
closed = 1;
nodes = (
"504 254 LINE SMOOTH",
"531 254 OFFCURVE",
"551 269 OFFCURVE",
"551 307 CURVE SMOOTH",
"551 328 OFFCURVE",
"543 346 OFFCURVE",
"537 359 CURVE",
"291 359 LINE",
"274 254 LINE"
);
},
{
closed = 1;
nodes = (
"106 359 LINE SMOOTH",
"79 359 OFFCURVE",
"60 344 OFFCURVE",
"60 305 CURVE SMOOTH",
"60 285 OFFCURVE",
"67 265 OFFCURVE",
"74 254 CURVE",
"343 254 LINE",
"330 359 LINE"
);
},
{
closed = 1;
nodes = (
"531 102 OFFCURVE",
"551 117 OFFCURVE",
"551 155 CURVE SMOOTH",
"551 176 OFFCURVE",
"543 194 OFFCURVE",
"537 207 CURVE",
"106 207 LINE SMOOTH",
"79 207 OFFCURVE",
"60 192 OFFCURVE",
"60 153 CURVE SMOOTH",
"60 133 OFFCURVE",
"67 113 OFFCURVE",
"74 102 CURVE",
"504 102 LINE"
);
}
);
width = 597;
}
);
unicode = 00A5;
},
{
glyphname = brokenbar;
layers = (
{
layerId = UUID0;
paths = (
{
closed = 1;
nodes = (
"162 671 OFFCURVE",
"150 682 OFFCURVE",
"124 682 CURVE SMOOTH",
"109 682 OFFCURVE",
"99 679 OFFCURVE",
"89 675 CURVE",
"89 343 LINE SMOOTH",
"89 314 OFFCURVE",
"101 303 OFFCURVE",
"127 303 CURVE SMOOTH",
"142 303 OFFCURVE",
"152 306 OFFCURVE",
"162 310 CURVE",
"162 642 LINE"
);
},
{
closed = 1;
nodes = (
"162 181 OFFCURVE",
"150 192 OFFCURVE",
"124 192 CURVE SMOOTH",
"109 192 OFFCURVE",
"99 189 OFFCURVE",
"89 185 CURVE",
"89 -147 LINE SMOOTH",
"89 -176 OFFCURVE",
"101 -187 OFFCURVE",
"127 -187 CURVE SMOOTH",
"142 -187 OFFCURVE",
"152 -184 OFFCURVE",
"162 -180 CURVE",
"162 152 LINE"
);
}
);
width = 293;
},
{
layerId = UUID1;
paths = (
{
closed = 1;
nodes = (
"216 671 OFFCURVE",
"185 683 OFFCURVE",
"132 683 CURVE SMOOTH",
"107 683 OFFCURVE",
"78 679 OFFCURVE",
"65 676 CURVE",
"65 376 LINE SMOOTH",
"65 317 OFFCURVE",
"96 306 OFFCURVE",
"149 306 CURVE SMOOTH",
"174 306 OFFCURVE",
"203 310 OFFCURVE",
"216 313 CURVE",
"216 612 LINE"
);
},
{
closed = 1;
nodes = (
"216 189 OFFCURVE",
"185 201 OFFCURVE",
"132 201 CURVE SMOOTH",
"107 201 OFFCURVE",
"78 197 OFFCURVE",
"65 194 CURVE",
"65 -106 LINE SMOOTH",
"65 -165 OFFCURVE",
"96 -176 OFFCURVE",
"149 -176 CURVE SMOOTH",
"174 -176 OFFCURVE",
"203 -172 OFFCURVE",
"216 -169 CURVE",
"216 130 LINE"
);
}
);
width = 293;
}
);
unicode = 00A6;
},
{
glyphname = section;
layers = (
{
layerId = UUID0;
paths = (
{
closed = 1;
nodes = (
"444 162 OFFCURVE",
"390 194 OFFCURVE",
"307 212 CURVE SMOOTH",
"215 232 LINE SMOOTH",
"170 241 OFFCURVE",
"141 262 OFFCURVE",
"141 300 CURVE SMOOTH",
"141 344 OFFCURVE",
"172 371 OFFCURVE",
"212 386 CURVE",
"154 416 LINE",
"106 398 OFFCURVE",
"63 360 OFFCURVE",
"63 298 CURVE SMOOTH",
"63 219 OFFCURVE",
"119 184 OFFCURVE",
"191 169 CURVE SMOOTH",
"282 149 LINE SMOOTH",
"340 136 OFFCURVE",
"365 121 OFFCURVE",
"365 85 CURVE SMOOTH",
"365 42 OFFCURVE",
"322 20 OFFCURVE",
"248 20 CURVE SMOOTH",
"182 20 OFFCURVE",
"130 43 OFFCURVE",
"85 71 CURVE",
"70 61 OFFCURVE",
"60 48 OFFCURVE",
"60 30 CURVE SMOOTH",
"60 -9 OFFCURVE",
"140 -45 OFFCURVE",
"248 -45 CURVE SMOOTH",
"376 -45 OFFCURVE",
"444 3 OFFCURVE",
"444 85 CURVE"
);
},
{
closed = 1;
nodes = (
"444 363 OFFCURVE",
"388 394 OFFCURVE",
"306 415 CURVE SMOOTH",
"216 433 LINE SMOOTH",
"172 442 OFFCURVE",
"146 457 OFFCURVE",
"146 494 CURVE SMOOTH",
"146 535 OFFCURVE",
"184 556 OFFCURVE",
"247 556 CURVE SMOOTH",
"307 556 OFFCURVE",
"357 536 OFFCURVE",
"393 518 CURVE",
"404 525 OFFCURVE",
"414 538 OFFCURVE",
"414 555 CURVE SMOOTH",
"414 592 OFFCURVE",
"342 621 OFFCURVE",
"245 621 CURVE SMOOTH",
"133 621 OFFCURVE",
"67 575 OFFCURVE",
"67 494 CURVE SMOOTH",
"67 414 OFFCURVE",
"122 385 OFFCURVE",
"191 370 CURVE SMOOTH",
"281 352 LINE SMOOTH",
"339 338 OFFCURVE",
"365 321 OFFCURVE",
"365 282 CURVE SMOOTH",
"365 237 OFFCURVE",
"335 210 OFFCURVE",
"292 195 CURVE",
"343 157 LINE",
"391 174 OFFCURVE",
"444 215 OFFCURVE",
"444 283 CURVE"
);
}
);
width = 504;
},
{
layerId = UUID1;
paths = (
{
closed = 1;
nodes = (
"496 171 OFFCURVE",
"443 210 OFFCURVE",
"335 232 CURVE SMOOTH",
"255 248 LINE SMOOTH",
"219 255 OFFCURVE",
"208 274 OFFCURVE",
"208 289 CURVE SMOOTH",
"208 306 OFFCURVE",
"216 327 OFFCURVE",
"236 334 CURVE",
"264 421 LINE",
"133 421 OFFCURVE",
"50 377 OFFCURVE",
"50 284 CURVE SMOOTH",
"50 199 OFFCURVE",
"101 151 OFFCURVE",
"217 133 CURVE SMOOTH",
"276 124 LINE SMOOTH",
"314 118 OFFCURVE",
"328 111 OFFCURVE",
"328 93 CURVE SMOOTH",
"328 73 OFFCURVE",
"307 60 OFFCURVE",
"244 60 CURVE SMOOTH",
"176 60 OFFCURVE",
"125 80 OFFCURVE",
"87 101 CURVE",
"68 87 OFFCURVE",
"53 65 OFFCURVE",
"53 33 CURVE SMOOTH",
"53 -37 OFFCURVE",
"136 -68 OFFCURVE",
"251 -68 CURVE SMOOTH",
"412 -68 OFFCURVE",
"496 -7 OFFCURVE",
"496 90 CURVE"
);
},
{
closed = 1;
nodes = (
"496 359 OFFCURVE",
"440 415 OFFCURVE",
"320 432 CURVE SMOOTH",
"264 440 LINE SMOOTH",
"232 445 OFFCURVE",
"219 451 OFFCURVE",
"219 466 CURVE SMOOTH",
"219 487 OFFCURVE",
"245 497 OFFCURVE",
"288 497 CURVE SMOOTH",
"335 497 OFFCURVE",
"409 480 OFFCURVE",
"431 466 CURVE",
"448 481 OFFCURVE",
"461 503 OFFCURVE",
"461 533 CURVE SMOOTH",
"461 597 OFFCURVE",
"374 625 OFFCURVE",
"273 625 CURVE SMOOTH",
"142 625 OFFCURVE",
"53 569 OFFCURVE",
"53 473 CURVE SMOOTH",
"53 387 OFFCURVE",
"110 344 OFFCURVE",
"215 324 CURVE SMOOTH",
"285 311 LINE SMOOTH",
"322 304 OFFCURVE",
"338 286 OFFCURVE",
"338 268 CURVE SMOOTH",
"338 250 OFFCURVE",
"331 239 OFFCURVE",
"314 217 CURVE",
"412 157 LINE",
"457 170 OFFCURVE",
"496 221 OFFCURVE",
"496 278 CURVE"
);
}
);
width = 546;
}
);
unicode = 00A7;
},
{
glyphname = dieresis;
layers = (
{
layerId = UUID0;
paths = (
{
closed = 1;
nodes = (
"154 632 OFFCURVE",
"133 654 OFFCURVE",
"104 654 CURVE SMOOTH",
"76 654 OFFCURVE",
"56 632 OFFCURVE",
"56 606 CURVE SMOOTH",
"56 580 OFFCURVE",
"76 558 OFFCURVE",
"104 558 CURVE SMOOTH",
"133 558 OFFCURVE",
"154 580 OFFCURVE",
"154 606 CURVE"
);
},
{
closed = 1;
nodes = (
"327 632 OFFCURVE",
"305 654 OFFCURVE",
"277 654 CURVE SMOOTH",
"250 654 OFFCURVE",
"228 632 OFFCURVE",
"228 606 CURVE SMOOTH",
"228 580 OFFCURVE",
"250 558 OFFCURVE",
"277 558 CURVE SMOOTH",
"305 558 OFFCURVE",
"327 580 OFFCURVE",
"327 606 CURVE"
);
}
);
width = 374;
},
{
layerId = UUID1;
paths = (
{
closed = 1;
nodes = (
"163 677 OFFCURVE",
"128 713 OFFCURVE",
"78 713 CURVE SMOOTH",
"28 713 OFFCURVE",
"-6 677 OFFCURVE",
"-6 630 CURVE SMOOTH",
"-6 583 OFFCURVE",
"28 548 OFFCURVE",
"78 548 CURVE SMOOTH",
"128 548 OFFCURVE",
"163 583 OFFCURVE",
"163 630 CURVE"
);
},
{
closed = 1;
nodes = (
"378 677 OFFCURVE",
"344 713 OFFCURVE",
"294 713 CURVE SMOOTH",
"244 713 OFFCURVE",
"209 677 OFFCURVE",
"209 630 CURVE SMOOTH",
"209 583 OFFCURVE",
"244 548 OFFCURVE",
"294 548 CURVE SMOOTH",
"344 548 OFFCURVE",
"378 583 OFFCURVE",
"378 630 CURVE"
);
}
);
width = 374;
}
);
unicode = 00A8;
},
{
glyphname = copyright;
layers = (
{
layerId = UUID0;
paths = (
{
closed = 1;
nodes = (
"54 129 OFFCURVE",
"175 -2 OFFCURVE",
"355 -2 CURVE SMOOTH",
"534 -2 OFFCURVE",
"659 129 OFFCURVE",
"659 298 CURVE SMOOTH",
"659 472 OFFCURVE",
"534 609 OFFCURVE",
"355 609 CURVE SMOOTH",
"175 609 OFFCURVE",
"54 472 OFFCURVE",
"54 298 CURVE"
);
},
{
closed = 1;
nodes = (
"505 555 OFFCURVE",
"594 449 OFFCURVE",
"594 298 CURVE SMOOTH",
"594 153 OFFCURVE",
"505 52 OFFCURVE",
"355 52 CURVE SMOOTH",
"206 52 OFFCURVE",
"116 153 OFFCURVE",
"116 298 CURVE SMOOTH",
"116 449 OFFCURVE",
"206 555 OFFCURVE",
"355 555 CURVE"
);
},
{
closed = 1;
nodes = (
"408 420 OFFCURVE",
"429 408 OFFCURVE",
"448 398 CURVE",
"459 403 OFFCURVE",
"469 415 OFFCURVE",
"469 425 CURVE SMOOTH",
"469 457 OFFCURVE",
"426 480 OFFCURVE",
"367 480 CURVE SMOOTH",
"287 480 OFFCURVE",
"198 426 OFFCURVE",
"198 303 CURVE SMOOTH",
"198 188 OFFCURVE",
"277 128 OFFCURVE",
"375 128 CURVE SMOOTH",
"440 128 OFFCURVE",
"473 155 OFFCURVE",
"473 177 CURVE SMOOTH",
"473 190 OFFCURVE",
"466 202 OFFCURVE",
"453 209 CURVE",
"436 198 OFFCURVE",
"417 187 OFFCURVE",
"380 187 CURVE SMOOTH",
"316 187 OFFCURVE",
"269 227 OFFCURVE",
"269 303 CURVE SMOOTH",
"269 385 OFFCURVE",
"321 420 OFFCURVE",
"377 420 CURVE"
);
}
);
width = 713;
},
{
layerId = UUID1;
paths = (
{
closed = 1;
nodes = (
"35 133 OFFCURVE",
"163 -2 OFFCURVE",
"355 -2 CURVE SMOOTH",
"546 -2 OFFCURVE",
"678 133 OFFCURVE",
"678 308 CURVE SMOOTH",
"678 482 OFFCURVE",
"546 619 OFFCURVE",
"355 619 CURVE SMOOTH",
"163 619 OFFCURVE",
"35 482 OFFCURVE",
"35 308 CURVE"
);
},
{
closed = 1;
nodes = (
"488 529 OFFCURVE",
"568 435 OFFCURVE",
"568 308 CURVE SMOOTH",
"568 180 OFFCURVE",
"488 90 OFFCURVE",
"355 90 CURVE SMOOTH",
"223 90 OFFCURVE",
"142 180 OFFCURVE",
"142 308 CURVE SMOOTH",
"142 435 OFFCURVE",
"223 529 OFFCURVE",
"355 529 CURVE"
);
},
{
closed = 1;
nodes = (
"417 373 OFFCURVE",
"435 366 OFFCURVE",
"447 359 CURVE",
"459 371 OFFCURVE",
"467 388 OFFCURVE",
"467 408 CURVE SMOOTH",
"467 441 OFFCURVE",
"430 466 OFFCURVE",
"375 466 CURVE SMOOTH",
"301 466 OFFCURVE",
"215 416 OFFCURVE",
"215 313 CURVE SMOOTH",
"215 212 OFFCURVE",
"283 155 OFFCURVE",
"371 155 CURVE SMOOTH",
"431 155 OFFCURVE",
"472 182 OFFCURVE",
"472 212 CURVE SMOOTH",
"472 233 OFFCURVE",
"463 250 OFFCURVE",
"449 262 CURVE",
"436 255 OFFCURVE",
"418 247 OFFCURVE",
"393 247 CURVE SMOOTH",
"356 247 OFFCURVE",
"329 271 OFFCURVE",
"329 312 CURVE SMOOTH",
"329 350 OFFCURVE",
"358 373 OFFCURVE",
"394 373 CURVE"
);
}
);
width = 713;
}
);
leftKerningGroup = copyright;
rightKerningGroup = copyright;
unicode = 00A9;
},
{
glyphname = ordfeminine;
layers = (
{
layerId = UUID0;
paths = (
{
closed = 1;
nodes = (
"213 305 OFFCURVE",
"250 313 OFFCURVE",
"277 326 CURVE SMOOTH",
"292 334 OFFCURVE",
"301 343 OFFCURVE",
"301 355 CURVE SMOOTH",
"301 510 LINE SMOOTH",
"301 595 OFFCURVE",
"246 620 OFFCURVE",
"171 620 CURVE SMOOTH",
"135 620 OFFCURVE",
"96 610 OFFCURVE",
"76 600 CURVE SMOOTH",
"62 592 OFFCURVE",
"55 585 OFFCURVE",
"55 570 CURVE SMOOTH",
"55 556 OFFCURVE",
"64 545 OFFCURVE",
"73 540 CURVE",
"95 555 OFFCURVE",
"133 567 OFFCURVE",
"167 567 CURVE SMOOTH",
"217 567 OFFCURVE",
"240 554 OFFCURVE",
"240 510 CURVE SMOOTH",
"240 503 LINE",
"159 495 LINE SMOOTH",
"83 488 OFFCURVE",
"42 459 OFFCURVE",
"42 400 CURVE SMOOTH",
"42 336 OFFCURVE",
"92 305 OFFCURVE",
"174 305 CURVE SMOOTH"
);
},
{
closed = 1;
nodes = (
"126 358 OFFCURVE",
"104 374 OFFCURVE",
"104 404 CURVE SMOOTH",
"104 428 OFFCURVE",
"124 440 OFFCURVE",
"172 445 CURVE",
"240 452 LINE",
"240 372 LINE",
"228 365 OFFCURVE",
"202 358 OFFCURVE",
"174 358 CURVE SMOOTH"
);
}
);
width = 352;
},
{
layerId = UUID1;
paths = (
{
closed = 1;
nodes = (
"215 287 OFFCURVE",
"256 295 OFFCURVE",
"283 312 CURVE SMOOTH",
"300 323 OFFCURVE",
"315 336 OFFCURVE",
"315 358 CURVE SMOOTH",
"315 504 LINE SMOOTH",
"315 585 OFFCURVE",
"254 623 OFFCURVE",
"159 623 CURVE SMOOTH",
"129 623 OFFCURVE",
"91 619 OFFCURVE",
"66 609 CURVE SMOOTH",
"43 600 OFFCURVE",
"34 587 OFFCURVE",
"34 565 CURVE SMOOTH",
"34 548 OFFCURVE",
"42 530 OFFCURVE",
"53 522 CURVE",
"78 533 OFFCURVE",
"112 541 OFFCURVE",
"144 541 CURVE SMOOTH",
"185 541 OFFCURVE",
"208 530 OFFCURVE",
"208 505 CURVE SMOOTH",
"208 501 LINE",
"123 492 LINE SMOOTH",
"48 484 OFFCURVE",
"14 453 OFFCURVE",
"14 392 CURVE SMOOTH",
"14 322 OFFCURVE",
"73 287 OFFCURVE",
"164 287 CURVE SMOOTH"
);
},
{
closed = 1;
nodes = (
"133 367 OFFCURVE",
"120 379 OFFCURVE",
"120 396 CURVE SMOOTH",
"120 414 OFFCURVE",
"138 422 OFFCURVE",
"162 424 CURVE",
"209 428 LINE",
"209 375 LINE",
"200 370 OFFCURVE",
"180 367 OFFCURVE",
"164 367 CURVE SMOOTH"
);
}
);
width = 355;
}
);
leftKerningGroup = ordmasculine;
rightKerningGroup = ordmasculine;
unicode = 00AA;
},
{
glyphname = guillemotleft;
layers = (
{
layerId = UUID0;
paths = (
{
closed = 1;
nodes = (
"207 334 LINE SMOOTH",
"226 354 OFFCURVE",
"234 364 OFFCURVE",
"234 380 CURVE SMOOTH",
"234 397 OFFCURVE",
"221 410 OFFCURVE",
"195 416 CURVE",
"50 265 LINE SMOOTH",
"41 257 OFFCURVE",
"35 247 OFFCURVE",
"35 226 CURVE SMOOTH",
"35 212 OFFCURVE",
"39 201 OFFCURVE",
"45 192 CURVE",
"156 69 LINE SMOOTH",
"169 55 OFFCURVE",
"184 42 OFFCURVE",
"201 42 CURVE SMOOTH",
"226 42 OFFCURVE",
"239 62 OFFCURVE",
"239 82 CURVE",
"101 225 LINE"
);
},
{
closed = 1;
nodes = (
"397 334 LINE SMOOTH",
"416 354 OFFCURVE",
"424 364 OFFCURVE",
"424 380 CURVE SMOOTH",
"424 397 OFFCURVE",
"411 410 OFFCURVE",
"385 416 CURVE",
"240 265 LINE SMOOTH",
"231 257 OFFCURVE",
"225 247 OFFCURVE",
"225 226 CURVE SMOOTH",
"225 212 OFFCURVE",
"229 201 OFFCURVE",
"235 192 CURVE",
"347 69 LINE SMOOTH",
"359 55 OFFCURVE",
"374 42 OFFCURVE",
"392 42 CURVE SMOOTH",
"416 42 OFFCURVE",
"429 62 OFFCURVE",
"429 82 CURVE",
"292 225 LINE"
);
}
);
width = 469;
},
{
layerId = UUID1;
paths = (
{
closed = 1;
nodes = (
"235 282 LINE SMOOTH",
"274 318 OFFCURVE",
"281 335 OFFCURVE",
"281 365 CURVE SMOOTH",
"281 397 OFFCURVE",
"254 427 OFFCURVE",
"204 441 CURVE",
"57 299 LINE SMOOTH",
"41 284 OFFCURVE",
"29 260 OFFCURVE",
"29 217 CURVE SMOOTH",
"29 196 OFFCURVE",
"36 171 OFFCURVE",
"44 158 CURVE",
"141 60 LINE SMOOTH",
"164 36 OFFCURVE",
"186 19 OFFCURVE",
"215 19 CURVE SMOOTH",
"268 19 OFFCURVE",
"293 56 OFFCURVE",
"293 94 CURVE",
"169 221 LINE"
);
},
{
closed = 1;
nodes = (
"484 282 LINE SMOOTH",
"523 318 OFFCURVE",
"530 335 OFFCURVE",
"530 365 CURVE SMOOTH",
"530 397 OFFCURVE",
"503 427 OFFCURVE",
"453 441 CURVE",
"306 299 LINE SMOOTH",
"290 284 OFFCURVE",
"278 260 OFFCURVE",
"278 217 CURVE SMOOTH",
"278 196 OFFCURVE",
"285 171 OFFCURVE",
"293 158 CURVE",
"390 60 LINE SMOOTH",
"413 36 OFFCURVE",
"435 19 OFFCURVE",
"464 19 CURVE SMOOTH",
"517 19 OFFCURVE",
"542 56 OFFCURVE",
"542 94 CURVE",
"418 221 LINE"
);
}
);
width = 574;
}
);
unicode = 00AB;
},
{
glyphname = logicalnot;
layers = (
{
layerId = UUID0;
paths = (
{
closed = 1;
nodes = (
"64 383 OFFCURVE",
"51 371 OFFCURVE",
"51 349 CURVE SMOOTH",
"51 337 OFFCURVE",
"54 326 OFFCURVE",
"58 318 CURVE",
"415 318 LINE",
"415 215 LINE SMOOTH",
"415 186 OFFCURVE",
"427 175 OFFCURVE",
"454 175 CURVE SMOOTH",
"469 175 OFFCURVE",
"480 178 OFFCURVE",
"490 182 CURVE",
"490 346 LINE SMOOTH",
"490 370 OFFCURVE",
"475 383 OFFCURVE",
"452 383 CURVE",
"86 383 LINE"
);
}
);
width = 542;
},
{
layerId = UUID1;
paths = (
{
closed = 1;
nodes = (
"53 448 OFFCURVE",
"30 429 OFFCURVE",
"30 382 CURVE SMOOTH",
"30 356 OFFCURVE",
"39 332 OFFCURVE",
"47 318 CURVE",
"340 318 LINE",
"340 249 LINE SMOOTH",
"340 187 OFFCURVE",
"369 174 OFFCURVE",
"425 174 CURVE SMOOTH",
"451 174 OFFCURVE",
"485 178 OFFCURVE",
"498 182 CURVE",
"498 373 LINE SMOOTH",
"498 419 OFFCURVE",
"469 448 OFFCURVE",
"423 448 CURVE",
"87 448 LINE"
);
}
);
width = 528;
}
);
unicode = 00AC;
},
{
glyphname = registered;
layers = (
{
layerId = UUID0;
paths = (
{
closed = 1;
nodes = (
"58 241 OFFCURVE",
"158 129 OFFCURVE",
"309 129 CURVE SMOOTH",
"457 129 OFFCURVE",
"561 241 OFFCURVE",
"561 377 CURVE SMOOTH",
"561 512 OFFCURVE",
"457 625 OFFCURVE",
"309 625 CURVE SMOOTH",
"158 625 OFFCURVE",
"58 512 OFFCURVE",
"58 377 CURVE"
);
},
{
closed = 1;
nodes = (
"113 491 OFFCURVE",
"191 576 OFFCURVE",
"309 576 CURVE SMOOTH",
"427 576 OFFCURVE",
"505 491 OFFCURVE",
"505 377 CURVE SMOOTH",
"505 263 OFFCURVE",
"427 178 OFFCURVE",
"309 178 CURVE SMOOTH",
"191 178 OFFCURVE",
"113 263 OFFCURVE",
"113 377 CURVE"
);
},
{
closed = 1;
nodes = (
"348 287 LINE SMOOTH",
"358 274 OFFCURVE",
"368 267 OFFCURVE",
"381 267 CURVE SMOOTH",
"395 267 OFFCURVE",
"407 276 OFFCURVE",
"410 287 CURVE",
"353 357 LINE",
"381 366 OFFCURVE",
"403 390 OFFCURVE",
"403 424 CURVE SMOOTH",
"403 472 OFFCURVE",
"365 499 OFFCURVE",
"301 499 CURVE SMOOTH",
"282 499 OFFCURVE",
"268 498 OFFCURVE",
"249 494 CURVE SMOOTH",
"234 491 OFFCURVE",
"227 485 OFFCURVE",
"227 476 CURVE SMOOTH",
"227 291 LINE SMOOTH",
"227 271 OFFCURVE",
"237 268 OFFCURVE",
"253 268 CURVE SMOOTH",
"264 268 OFFCURVE",
"274 269 OFFCURVE",
"279 270 CURVE",
"279 350 LINE",
"305 350 LINE"
);
},
{
closed = 1;
nodes = (
"279 456 LINE",
"287 457 OFFCURVE",
"296 458 OFFCURVE",
"305 458 CURVE SMOOTH",
"331 458 OFFCURVE",
"349 446 OFFCURVE",
"349 426 CURVE SMOOTH",
"349 404 OFFCURVE",
"337 391 OFFCURVE",
"311 391 CURVE SMOOTH",
"279 391 LINE"
);
}
);
width = 619;
},
{
layerId = UUID1;
paths = (
{
closed = 1;
nodes = (
"37 225 OFFCURVE",
"146 110 OFFCURVE",
"309 110 CURVE SMOOTH",
"469 110 OFFCURVE",
"582 225 OFFCURVE",
"582 372 CURVE SMOOTH",
"582 519 OFFCURVE",
"469 635 OFFCURVE",
"309 635 CURVE SMOOTH",
"146 635 OFFCURVE",
"37 519 OFFCURVE",
"37 372 CURVE"
);
},
{
closed = 1;
nodes = (
"127 480 OFFCURVE",
"197 559 OFFCURVE",
"309 559 CURVE SMOOTH",
"421 559 OFFCURVE",
"489 480 OFFCURVE",
"489 372 CURVE SMOOTH",
"489 264 OFFCURVE",
"421 188 OFFCURVE",
"309 188 CURVE SMOOTH",
"197 188 OFFCURVE",
"127 264 OFFCURVE",
"127 372 CURVE"
);
},
{
closed = 1;
nodes = (
"332 286 LINE SMOOTH",
"344 267 OFFCURVE",
"355 255 OFFCURVE",
"379 255 CURVE SMOOTH",
"396 255 OFFCURVE",
"414 265 OFFCURVE",
"419 283 CURVE",
"369 351 LINE",
"393 363 OFFCURVE",
"412 385 OFFCURVE",
"412 419 CURVE SMOOTH",
"412 472 OFFCURVE",
"375 504 OFFCURVE",
"302 504 CURVE SMOOTH",
"276 504 OFFCURVE",
"251 501 OFFCURVE",
"232 495 CURVE SMOOTH",
"222 491 OFFCURVE",
"216 486 OFFCURVE",
"216 476 CURVE SMOOTH",
"216 289 LINE SMOOTH",
"216 262 OFFCURVE",
"229 257 OFFCURVE",
"252 257 CURVE SMOOTH",
"269 257 OFFCURVE",
"282 259 OFFCURVE",
"290 260 CURVE",
"290 336 LINE",
"300 336 LINE"
);
},
{
closed = 1;
nodes = (
"290 446 LINE",
"292 446 OFFCURVE",
"297 447 OFFCURVE",
"304 447 CURVE SMOOTH",
"327 447 OFFCURVE",
"338 439 OFFCURVE",
"338 419 CURVE SMOOTH",
"338 398 OFFCURVE",
"325 390 OFFCURVE",
"305 390 CURVE SMOOTH",
"290 390 LINE"
);
}
);
width = 619;
}
);
unicode = 00AE;
},
{
glyphname = macron;
layers = (
{
layerId = UUID0;
paths = (
{
closed = 1;
nodes = (
"287 570 OFFCURVE",
"299 580 OFFCURVE",
"299 603 CURVE SMOOTH",
"299 615 OFFCURVE",
"294 627 OFFCURVE",
"289 635 CURVE",
"61 635 LINE SMOOTH",
"42 635 OFFCURVE",
"29 625 OFFCURVE",
"29 602 CURVE SMOOTH",
"29 589 OFFCURVE",
"35 578 OFFCURVE",
"40 570 CURVE",
"267 570 LINE"
);
}
);
width = 328;
},
{
layerId = UUID1;
paths = (
{
closed = 1;
nodes = (
"329 564 OFFCURVE",
"350 581 OFFCURVE",
"350 630 CURVE SMOOTH",
"350 654 OFFCURVE",
"345 678 OFFCURVE",
"334 692 CURVE",
"69 692 LINE SMOOTH",
"36 692 OFFCURVE",
"14 675 OFFCURVE",
"14 626 CURVE SMOOTH",
"14 602 OFFCURVE",
"24 578 OFFCURVE",
"30 564 CURVE",
"296 564 LINE"
);
}
);
width = 364;
}
);
unicode = 00AF;
},
{
glyphname = degree;
layers = (
{
layerId = UUID0;
paths = (
{
closed = 1;
nodes = (
"321 570 OFFCURVE",
"256 620 OFFCURVE",
"180 620 CURVE SMOOTH",
"104 620 OFFCURVE",
"39 569 OFFCURVE",
"39 489 CURVE SMOOTH",
"39 414 OFFCURVE",
"98 358 OFFCURVE",
"181 358 CURVE SMOOTH",
"257 358 OFFCURVE",
"321 409 OFFCURVE",
"321 489 CURVE"
);
},
{
closed = 1;
nodes = (
"216 561 OFFCURVE",
"251 536 OFFCURVE",
"251 489 CURVE SMOOTH",
"251 442 OFFCURVE",
"219 416 OFFCURVE",
"180 416 CURVE SMOOTH",
"142 416 OFFCURVE",
"109 442 OFFCURVE",
"109 489 CURVE SMOOTH",
"109 536 OFFCURVE",
"144 561 OFFCURVE",
"180 561 CURVE"
);
}
);
width = 360;
},
{
layerId = UUID1;
paths = (
{
closed = 1;
nodes = (
"345 569 OFFCURVE",
"275 623 OFFCURVE",
"181 623 CURVE SMOOTH",
"86 623 OFFCURVE",
"16 569 OFFCURVE",
"16 475 CURVE SMOOTH",
"16 380 OFFCURVE",
"86 326 OFFCURVE",
"181 326 CURVE SMOOTH",
"275 326 OFFCURVE",
"345 380 OFFCURVE",
"345 475 CURVE"
);
},
{
closed = 1;
nodes = (
"206 527 OFFCURVE",
"227 512 OFFCURVE",
"227 475 CURVE SMOOTH",
"227 437 OFFCURVE",
"206 421 OFFCURVE",
"181 421 CURVE SMOOTH",
"156 421 OFFCURVE",
"134 437 OFFCURVE",
"134 475 CURVE SMOOTH",
"134 512 OFFCURVE",
"156 527 OFFCURVE",
"181 527 CURVE"
);
}
);
width = 361;
}
);
unicode = 00B0;
},
{
glyphname = plusminus;
layers = (
{
layerId = UUID0;
paths = (
{
closed = 1;
nodes = (
"469 318 OFFCURVE",
"481 330 OFFCURVE",
"481 352 CURVE SMOOTH",
"481 365 OFFCURVE",
"478 375 OFFCURVE",
"475 383 CURVE",
"101 383 LINE SMOOTH",
"79 383 OFFCURVE",
"66 371 OFFCURVE",
"66 349 CURVE SMOOTH",
"66 337 OFFCURVE",
"69 326 OFFCURVE",
"72 318 CURVE",
"446 318 LINE"
);
},
{
closed = 1;
nodes = (
"469 0 OFFCURVE",
"481 12 OFFCURVE",
"481 34 CURVE SMOOTH",
"481 47 OFFCURVE",
"478 57 OFFCURVE",
"475 65 CURVE",
"101 65 LINE SMOOTH",
"79 65 OFFCURVE",
"66 53 OFFCURVE",
"66 31 CURVE SMOOTH",
"66 19 OFFCURVE",
"69 8 OFFCURVE",
"72 0 CURVE",
"446 0 LINE"
);
},
{
closed = 1;
nodes = (
"312 543 OFFCURVE",
"300 554 OFFCURVE",
"275 554 CURVE SMOOTH",
"260 554 OFFCURVE",
"249 551 OFFCURVE",
"239 547 CURVE",
"239 184 LINE SMOOTH",
"239 154 OFFCURVE",
"251 143 OFFCURVE",
"278 143 CURVE SMOOTH",
"292 143 OFFCURVE",
"302 147 OFFCURVE",
"312 150 CURVE",
"312 514 LINE"
);
}
);
width = 548;
},
{
layerId = UUID1;
paths = (
{
closed = 1;
nodes = (
"470 314 OFFCURVE",
"495 332 OFFCURVE",
"495 381 CURVE SMOOTH",
"495 408 OFFCURVE",
"486 434 OFFCURVE",
"478 448 CURVE",
"111 448 LINE SMOOTH",
"75 448 OFFCURVE",
"50 427 OFFCURVE",
"50 378 CURVE SMOOTH",
"50 351 OFFCURVE",
"58 328 OFFCURVE",
"67 314 CURVE",
"434 314 LINE"
);
},
{
closed = 1;
nodes = (
"470 0 OFFCURVE",
"495 18 OFFCURVE",
"495 67 CURVE SMOOTH",
"495 94 OFFCURVE",
"486 120 OFFCURVE",
"478 134 CURVE",
"111 134 LINE SMOOTH",
"75 134 OFFCURVE",
"50 113 OFFCURVE",
"50 64 CURVE SMOOTH",
"50 37 OFFCURVE",
"58 14 OFFCURVE",
"67 0 CURVE",
"434 0 LINE"
);
},
{
closed = 1;
nodes = (
"351 563 OFFCURVE",
"320 576 OFFCURVE",
"267 576 CURVE SMOOTH",
"242 576 OFFCURVE",
"210 570 OFFCURVE",
"197 567 CURVE",
"197 254 LINE SMOOTH",
"197 195 OFFCURVE",
"226 183 OFFCURVE",
"280 183 CURVE SMOOTH",
"305 183 OFFCURVE",
"338 188 OFFCURVE",
"351 191 CURVE",
"351 504 LINE"
);
}
);
width = 545;
}
);
unicode = 00B1;
},
{
glyphname = acute;
layers = (
{
layerId = UUID0;
paths = (
{
closed = 1;
nodes = (
"83 570 OFFCURVE",
"75 562 OFFCURVE",
"75 550 CURVE SMOOTH",
"75 533 OFFCURVE",
"93 516 OFFCURVE",
"119 516 CURVE",
"210 605 LINE",
"228 622 OFFCURVE",
"236 631 OFFCURVE",
"236 649 CURVE SMOOTH",
"236 668 OFFCURVE",
"216 686 OFFCURVE",
"187 687 CURVE",
"90 578 LINE"
);
}
);
width = 298;
},
{
layerId = UUID1;
paths = (
{
closed = 1;
nodes = (
"57 623 OFFCURVE",
"53 610 OFFCURVE",
"53 594 CURVE SMOOTH",
"53 562 OFFCURVE",
"83 528 OFFCURVE",
"142 528 CURVE",
"237 606 LINE",
"269 633 OFFCURVE",
"281 649 OFFCURVE",
"281 680 CURVE SMOOTH",
"281 717 OFFCURVE",
"246 752 OFFCURVE",
"177 752 CURVE",
"76 643 LINE"
);
}
);
width = 298;
}
);
unicode = 00B4;
},
{
glyphname = mu;
layers = (
{
layerId = UUID0;
paths = (
{
closed = 1;
nodes = (
"77 -154 LINE SMOOTH",
"77 -177 OFFCURVE",
"92 -190 OFFCURVE",
"121 -190 CURVE SMOOTH",
"136 -190 OFFCURVE",
"151 -186 OFFCURVE",
"157 -184 CURVE",
"157 -115 LINE",
"157 -47 OFFCURVE",
"152 27 OFFCURVE",
"147 65 CURVE",
"157 223 LINE",
"77 223 LINE"
);
},
{
closed = 1;
nodes = (
"119 23 OFFCURVE",
"197 -13 OFFCURVE",
"294 -13 CURVE SMOOTH",
"365 -13 OFFCURVE",
"417 8 OFFCURVE",
"445 24 CURVE SMOOTH",
"473 40 OFFCURVE",
"477 54 OFFCURVE",
"477 82 CURVE SMOOTH",
"477 260 LINE",
"397 260 LINE",
"397 79 LINE",
"376 67 OFFCURVE",
"338 53 OFFCURVE",
"285 53 CURVE SMOOTH",
"208 53 OFFCURVE",
"157 87 OFFCURVE",
"157 173 CURVE SMOOTH",
"157 260 LINE",
"119 259 LINE",
"119 140 LINE"
);
},
{
closed = 1;
nodes = (
"477 430 LINE SMOOTH",
"477 456 OFFCURVE",
"462 467 OFFCURVE",
"434 467 CURVE SMOOTH",
"418 467 OFFCURVE",
"404 463 OFFCURVE",
"397 460 CURVE",
"397 208 LINE",
"477 208 LINE"
);
},
{
closed = 1;
nodes = (
"157 430 LINE SMOOTH",
"157 456 OFFCURVE",
"143 467 OFFCURVE",
"114 467 CURVE SMOOTH",
"99 467 OFFCURVE",
"84 463 OFFCURVE",
"77 460 CURVE",
"77 208 LINE",
"157 208 LINE"
);
}
);
width = 552;
},
{
layerId = UUID1;
paths = (
{
closed = 1;
nodes = (
"52 -96 LINE SMOOTH",
"52 -158 OFFCURVE",
"80 -176 OFFCURVE",
"146 -176 CURVE SMOOTH",
"178 -176 OFFCURVE",
"204 -169 OFFCURVE",
"222 -160 CURVE",
"222 -126 LINE",
"222 -62 OFFCURVE",
"213 -13 OFFCURVE",
"202 63 CURVE",
"202 320 LINE",
"52 320 LINE"
);
},
{
closed = 1;
nodes = (
"152 73 OFFCURVE",
"183 -16 OFFCURVE",
"325 -16 CURVE SMOOTH",
"401 -16 OFFCURVE",
"450 4 OFFCURVE",
"488 29 CURVE SMOOTH",
"515 47 OFFCURVE",
"530 71 OFFCURVE",
"530 104 CURVE SMOOTH",
"530 259 LINE",
"360 259 LINE",
"360 129 LINE",
"350 124 OFFCURVE",
"330 117 OFFCURVE",
"300 117 CURVE SMOOTH",
"250 117 OFFCURVE",
"222 139 OFFCURVE",
"222 193 CURVE SMOOTH",
"222 259 LINE",
"152 237 LINE",
"152 171 LINE"
);
},
{
closed = 1;
nodes = (
"530 413 LINE SMOOTH",
"530 475 OFFCURVE",
"502 493 OFFCURVE",
"436 493 CURVE SMOOTH",
"404 493 OFFCURVE",
"375 488 OFFCURVE",
"360 484 CURVE",
"360 216 LINE",
"530 216 LINE"
);
},
{
closed = 1;
nodes = (
"222 413 LINE SMOOTH",
"222 475 OFFCURVE",
"194 493 OFFCURVE",
"128 493 CURVE SMOOTH",
"96 493 OFFCURVE",
"67 488 OFFCURVE",
"52 484 CURVE",
"52 216 LINE",
"222 216 LINE"
);
}
);
width = 582;
}
);
unicode = 00B5;
},
{
glyphname = paragraph;
layers = (
{
layerId = UUID0;
paths = (
{
closed = 1;
nodes = (
"109 613 OFFCURVE",
"15 553 OFFCURVE",
"15 426 CURVE SMOOTH",
"15 303 OFFCURVE",
"95 248 OFFCURVE",
"170 248 CURVE SMOOTH",
"208 248 OFFCURVE",
"225 260 OFFCURVE",
"225 276 CURVE SMOOTH",
"225 544 LINE",
"291 544 LINE",
"291 -38 LINE SMOOTH",
"291 -65 OFFCURVE",
"307 -75 OFFCURVE",
"335 -75 CURVE SMOOTH",
"349 -75 OFFCURVE",
"365 -71 OFFCURVE",
"371 -69 CURVE",
"371 575 LINE SMOOTH",
"371 607 OFFCURVE",
"355 613 OFFCURVE",
"328 613 CURVE SMOOTH",
"213 613 LINE"
);
}
);
width = 441;
},
{
layerId = UUID1;
paths = (
{
closed = 1;
nodes = (
"126 613 OFFCURVE",
"16 542 OFFCURVE",
"16 397 CURVE SMOOTH",
"16 259 OFFCURVE",
"107 197 OFFCURVE",
"193 197 CURVE SMOOTH",
"237 197 OFFCURVE",
"256 210 OFFCURVE",
"256 227 CURVE SMOOTH",
"256 470 LINE",
"325 470 LINE",
"325 2 LINE SMOOTH",
"325 -65 OFFCURVE",
"360 -78 OFFCURVE",
"419 -78 CURVE SMOOTH",
"448 -78 OFFCURVE",
"481 -72 OFFCURVE",
"495 -69 CURVE",
"495 533 LINE SMOOTH",
"495 600 OFFCURVE",
"460 613 OFFCURVE",
"401 613 CURVE SMOOTH",
"253 613 LINE"
);
}
);
width = 550;
}
);
unicode = 00B6;
},
{
glyphname = cedilla;
layers = (
{
layerId = UUID0;
paths = (
{
closed = 1;
nodes = (
"84 -21 OFFCURVE",
"93 -50 OFFCURVE",
"93 -72 CURVE SMOOTH",
"93 -107 OFFCURVE",
"72 -129 OFFCURVE",
"24 -129 CURVE SMOOTH",
"9 -129 LINE",
"5 -136 OFFCURVE",
"3 -146 OFFCURVE",
"3 -153 CURVE SMOOTH",
"3 -176 OFFCURVE",
"22 -189 OFFCURVE",
"55 -189 CURVE SMOOTH",
"119 -189 OFFCURVE",
"163 -149 OFFCURVE",
"163 -85 CURVE SMOOTH",
"163 -44 OFFCURVE",
"148 -9 OFFCURVE",
"111 17 CURVE",
"61 2 LINE"
);
}
);
width = 195;
},
{
layerId = UUID1;
paths = (
{
closed = 1;
nodes = (
"47 -8 OFFCURVE",
"52 -28 OFFCURVE",
"52 -41 CURVE SMOOTH",
"52 -70 OFFCURVE",
"35 -93 OFFCURVE",
"-6 -93 CURVE SMOOTH",
"-16 -93 LINE",
"-19 -103 OFFCURVE",
"-20 -113 OFFCURVE",
"-20 -123 CURVE SMOOTH",
"-20 -174 OFFCURVE",
"17 -202 OFFCURVE",
"73 -202 CURVE SMOOTH",
"149 -202 OFFCURVE",
"194 -152 OFFCURVE",
"194 -84 CURVE SMOOTH",
"194 -35 OFFCURVE",
"176 10 OFFCURVE",
"126 38 CURVE",
"35 5 LINE"
);
}
);
width = 195;
}
);
unicode = 00B8;
},
{
glyphname = ordmasculine;
layers = (
{
layerId = UUID0;
paths = (
{
closed = 1;
nodes = (
"333 564 OFFCURVE",
"276 620 OFFCURVE",
"189 620 CURVE SMOOTH",
"106 620 OFFCURVE",
"44 566 OFFCURVE",
"44 463 CURVE SMOOTH",
"44 359 OFFCURVE",
"104 305 OFFCURVE",
"189 305 CURVE SMOOTH",
"276 305 OFFCURVE",
"333 361 OFFCURVE",
"333 462 CURVE"
);
},
{
closed = 1;
nodes = (
"240 566 OFFCURVE",
"270 527 OFFCURVE",
"270 462 CURVE SMOOTH",
"270 396 OFFCURVE",
"238 360 OFFCURVE",
"189 360 CURVE SMOOTH",
"139 360 OFFCURVE",
"107 397 OFFCURVE",
"107 463 CURVE SMOOTH",
"107 528 OFFCURVE",
"140 566 OFFCURVE",
"189 566 CURVE"
);
}
);
width = 378;
},
{
layerId = UUID1;
paths = (
{
closed = 1;
nodes = (
"365 557 OFFCURVE",
"296 623 OFFCURVE",
"195 623 CURVE SMOOTH",
"93 623 OFFCURVE",
"25 558 OFFCURVE",
"25 456 CURVE SMOOTH",
"25 352 OFFCURVE",
"93 288 OFFCURVE",
"195 288 CURVE SMOOTH",
"296 288 OFFCURVE",
"365 348 OFFCURVE",
"365 456 CURVE"
);
},
{
closed = 1;
nodes = (
"230 537 OFFCURVE",
"252 507 OFFCURVE",
"252 456 CURVE SMOOTH",
"252 404 OFFCURVE",
"231 374 OFFCURVE",
"195 374 CURVE SMOOTH",
"160 374 OFFCURVE",
"138 403 OFFCURVE",
"138 456 CURVE SMOOTH",
"138 508 OFFCURVE",
"159 537 OFFCURVE",
"195 537 CURVE"
);
}
);
width = 396;
}
);
leftKerningGroup = ordmasculine;
rightKerningGroup = ordmasculine;
unicode = 00BA;
},
{
glyphname = guillemotright;
layers = (
{
layerId = UUID0;
paths = (
{
closed = 1;
nodes = (
"262 124 LINE SMOOTH",
"243 104 OFFCURVE",
"235 94 OFFCURVE",
"235 78 CURVE SMOOTH",
"235 61 OFFCURVE",
"248 48 OFFCURVE",
"273 42 CURVE",
"419 193 LINE SMOOTH",
"428 201 OFFCURVE",
"434 211 OFFCURVE",
"434 232 CURVE SMOOTH",
"434 246 OFFCURVE",
"430 257 OFFCURVE",
"424 266 CURVE",
"312 389 LINE SMOOTH",
"300 403 OFFCURVE",
"285 416 OFFCURVE",
"267 416 CURVE SMOOTH",
"243 416 OFFCURVE",
"230 396 OFFCURVE",
"230 376 CURVE",
"367 233 LINE"
);
},
{
closed = 1;
nodes = (
"72 124 LINE SMOOTH",
"53 104 OFFCURVE",
"45 94 OFFCURVE",
"45 78 CURVE SMOOTH",
"45 61 OFFCURVE",
"57 48 OFFCURVE",
"83 42 CURVE",
"228 193 LINE SMOOTH",
"238 201 OFFCURVE",
"244 211 OFFCURVE",
"244 232 CURVE SMOOTH",
"244 246 OFFCURVE",
"240 257 OFFCURVE",
"234 266 CURVE",
"122 389 LINE SMOOTH",
"110 403 OFFCURVE",
"95 416 OFFCURVE",
"77 416 CURVE SMOOTH",
"53 416 OFFCURVE",
"40 396 OFFCURVE",
"40 376 CURVE",
"177 233 LINE"
);
}
);
width = 469;
},
{
layerId = UUID1;
paths = (
{
closed = 1;
nodes = (
"339 178 LINE SMOOTH",
"300 142 OFFCURVE",
"293 125 OFFCURVE",
"293 95 CURVE SMOOTH",
"293 63 OFFCURVE",
"320 33 OFFCURVE",
"370 19 CURVE",
"517 161 LINE SMOOTH",
"533 176 OFFCURVE",
"545 200 OFFCURVE",
"545 243 CURVE SMOOTH",
"545 264 OFFCURVE",
"538 289 OFFCURVE",
"530 302 CURVE",
"433 400 LINE SMOOTH",
"410 424 OFFCURVE",
"388 441 OFFCURVE",
"359 441 CURVE SMOOTH",
"306 441 OFFCURVE",
"281 404 OFFCURVE",
"281 366 CURVE",
"405 239 LINE"
);
},
{
closed = 1;
nodes = (
"90 178 LINE SMOOTH",
"51 142 OFFCURVE",
"44 125 OFFCURVE",
"44 95 CURVE SMOOTH",
"44 63 OFFCURVE",
"71 33 OFFCURVE",
"121 19 CURVE",
"268 161 LINE SMOOTH",
"284 176 OFFCURVE",
"296 200 OFFCURVE",
"296 243 CURVE SMOOTH",
"296 264 OFFCURVE",
"289 289 OFFCURVE",
"281 302 CURVE",
"184 400 LINE SMOOTH",
"161 424 OFFCURVE",
"139 441 OFFCURVE",
"110 441 CURVE SMOOTH",
"57 441 OFFCURVE",
"32 404 OFFCURVE",
"32 366 CURVE",
"156 239 LINE"
);
}
);
width = 574;
}
);
unicode = 00BB;
},
